{"glyphs":{"0":{"ha":765,"x_min":82,"x_max":741,"o":"m 741 688 q 687 322 741 488 q 542 72 634 157 q 329 -14 450 -14 q 146 73 210 -14 q 82 323 82 159 q 138 672 82 507 q 284 923 193 838 q 493 1007 376 1007 q 741 688 741 1007 m 486 909 q 345 831 410 909 q 239 612 279 753 q 199 325 199 471 q 233 146 199 208 q 342 83 267 83 q 484 161 420 83 q 586 383 547 238 q 624 690 624 528 q 486 909 624 909 z "},"1":{"ha":765,"x_min":205,"x_max":611,"o":"m 399 0 l 282 0 l 415 619 q 475 863 455 796 q 380 787 441 827 l 260 713 l 205 799 l 510 991 l 611 991 l 399 0 z "},"2":{"ha":765,"x_min":8,"x_max":732,"o":"m 618 0 l 8 0 l 29 100 l 345 385 q 464 495 414 448 q 548 586 515 543 q 596 670 581 628 q 612 762 612 711 q 572 869 612 829 q 461 908 531 908 q 359 889 409 908 q 249 823 309 869 l 193 901 q 473 1006 323 1006 q 662 946 593 1006 q 732 781 732 886 q 705 642 732 705 q 616 509 678 579 q 416 318 554 438 l 178 110 l 178 104 l 637 104 l 618 0 z "},"3":{"ha":765,"x_min":32,"x_max":728,"o":"m 728 786 q 659 607 728 680 q 469 511 591 533 l 469 505 q 602 433 553 490 q 650 292 650 376 q 608 133 650 201 q 485 25 566 64 q 293 -14 404 -14 q 32 40 151 -14 l 32 151 q 167 100 96 118 q 296 82 238 82 q 467 136 406 82 q 528 283 528 190 q 474 418 528 372 q 325 464 420 464 l 236 464 l 257 561 l 351 561 q 537 620 463 561 q 611 774 611 679 q 572 873 611 836 q 465 909 532 909 q 359 891 411 909 q 240 828 307 873 l 186 908 q 473 1006 318 1006 q 661 947 595 1006 q 728 786 728 888 z "},"4":{"ha":765,"x_min":11,"x_max":746,"o":"m 724 227 l 566 227 l 517 0 l 406 0 l 456 227 l 11 227 l 31 334 l 596 997 l 729 997 l 589 330 l 746 330 l 724 227 m 478 330 q 531 583 509 479 q 610 885 553 687 l 604 885 q 559 820 593 865 q 510 754 526 774 l 149 330 l 478 330 z "},"5":{"ha":765,"x_min":54,"x_max":743,"o":"m 406 606 q 602 535 529 606 q 675 343 675 464 q 625 151 675 234 q 487 27 576 68 q 278 -14 398 -14 q 54 40 147 -14 l 54 151 q 281 82 165 82 q 483 147 410 82 q 555 329 555 212 q 506 464 555 414 q 367 514 456 514 q 301 510 334 514 q 207 489 268 505 l 157 528 l 290 991 l 743 991 l 721 888 l 367 888 l 281 590 q 406 606 340 606 z "},"6":{"ha":765,"x_min":90,"x_max":755,"o":"m 90 288 q 131 569 90 429 q 242 807 172 709 q 409 956 312 906 q 631 1006 506 1006 q 755 990 706 1006 l 732 892 q 616 907 686 907 q 375 806 473 907 q 231 505 277 705 l 236 505 q 335 591 276 559 q 467 623 395 623 q 632 556 571 623 q 693 372 693 489 q 648 173 693 263 q 526 34 603 82 q 349 -14 448 -14 q 158 64 225 -14 q 90 288 90 142 m 361 82 q 474 119 425 82 q 552 220 524 155 q 579 361 579 284 q 429 529 579 529 q 342 510 385 529 q 268 458 300 490 q 219 387 235 426 q 203 282 203 349 q 244 136 203 189 q 361 82 285 82 z "},"7":{"ha":765,"x_min":118,"x_max":777,"o":"m 118 0 l 639 890 l 151 890 l 172 991 l 777 991 l 758 897 l 240 0 l 118 0 z "},"8":{"ha":765,"x_min":65,"x_max":753,"o":"m 503 1007 q 687 948 621 1007 q 753 789 753 890 q 700 636 753 701 q 519 517 647 571 q 642 405 606 464 q 677 268 677 346 q 637 120 677 185 q 520 21 596 56 q 340 -14 444 -14 q 138 53 212 -14 q 65 235 65 120 q 130 408 65 335 q 330 533 194 481 q 238 631 266 580 q 211 747 211 682 q 248 882 211 823 q 352 974 285 941 q 503 1007 419 1007 m 412 475 q 235 377 287 434 q 183 240 183 321 q 230 125 183 168 q 353 82 277 82 q 503 132 447 82 q 559 265 559 182 q 524 383 559 332 q 412 475 489 434 m 494 909 q 371 865 417 909 q 325 746 325 821 q 351 648 325 690 q 437 570 378 606 q 592 659 547 610 q 637 777 637 707 q 598 873 637 838 q 494 909 559 909 z "},"9":{"ha":765,"x_min":66,"x_max":724,"o":"m 724 701 q 686 426 724 570 q 586 181 648 281 q 435 34 524 81 q 231 -14 347 -14 q 66 9 138 -14 l 66 117 q 233 85 157 85 q 455 180 370 85 q 583 479 540 276 l 576 479 q 487 399 542 429 q 364 370 431 370 q 187 436 250 370 q 125 632 125 503 q 169 822 125 736 q 291 957 212 909 q 467 1006 369 1006 q 656 928 589 1006 q 724 701 724 850 m 463 909 q 299 833 361 909 q 237 636 237 756 q 274 507 237 552 q 385 463 311 463 q 479 482 436 463 q 553 537 523 501 q 597 614 583 573 q 611 717 611 656 q 571 858 611 806 q 463 909 531 909 z "}," ":{"ha":361,"x_min":0,"x_max":0,"o":""},"!":{"ha":359,"x_min":29,"x_max":376,"o":"m 376 991 l 191 273 l 117 273 q 236 991 150 481 l 376 991 m 29 53 q 56 134 29 104 q 129 164 83 164 q 178 145 159 164 q 197 90 197 127 q 171 12 197 44 q 100 -20 144 -20 q 48 -1 66 -20 q 29 53 29 18 z "},"\"":{"ha":536,"x_min":153,"x_max":566,"o":"m 329 991 l 225 633 l 153 633 l 201 991 l 329 991 m 566 991 l 461 633 l 389 633 l 437 991 l 566 991 z "},"#":{"ha":897,"x_min":43,"x_max":908,"o":"m 703 610 l 636 379 l 829 379 l 821 292 l 611 292 l 526 0 l 432 0 l 519 292 l 314 292 l 228 0 l 138 0 l 220 292 l 43 292 l 52 379 l 244 379 l 313 610 l 125 610 l 134 696 l 338 696 l 421 991 l 515 991 l 431 696 l 637 696 l 724 991 l 814 991 l 729 696 l 908 696 l 900 610 l 703 610 m 339 379 l 545 379 l 610 610 l 404 610 l 339 379 z "},"$":{"ha":765,"x_min":49,"x_max":726,"o":"m 639 334 q 563 155 639 224 q 353 72 486 87 l 319 -81 l 229 -81 l 262 71 q 49 119 130 80 l 49 224 q 168 181 104 196 q 281 165 231 165 l 347 472 q 211 556 253 505 q 168 684 168 606 q 241 857 168 791 q 444 933 315 922 l 471 1053 l 561 1053 l 534 932 q 726 880 642 924 l 684 789 q 515 838 602 831 l 452 539 q 596 454 553 502 q 639 334 639 407 m 372 170 q 488 220 445 178 q 530 325 530 262 q 508 390 530 361 q 431 440 486 418 l 372 170 m 425 838 q 312 791 352 830 q 272 685 272 751 q 295 619 272 649 q 368 571 319 589 l 425 838 z "},"%":{"ha":1101,"x_min":114,"x_max":1039,"o":"m 996 991 l 260 0 l 157 0 l 893 991 l 996 991 m 871 524 q 790 480 825 524 q 733 352 754 436 q 711 189 711 268 q 783 72 711 72 q 863 116 827 72 q 921 251 898 160 q 945 411 945 341 q 871 524 945 524 m 1039 421 q 1018 261 1039 349 q 962 114 996 174 q 880 20 928 54 q 774 -14 832 -14 q 658 37 699 -14 q 616 186 616 87 q 651 402 616 298 q 743 557 685 505 q 879 608 802 608 q 998 560 958 608 q 1039 421 1039 511 m 368 921 q 288 878 323 921 q 230 751 252 836 q 208 586 208 667 q 281 469 208 469 q 345 496 316 469 q 394 573 373 523 q 429 692 416 624 q 441 808 441 760 q 368 921 441 921 m 536 818 q 515 657 536 745 q 459 509 493 569 q 377 416 425 450 q 271 383 330 383 q 155 434 197 383 q 114 583 114 485 q 148 799 114 696 q 241 954 182 903 q 376 1006 299 1006 q 496 957 455 1006 q 536 818 536 908 z "},"&":{"ha":930,"x_min":45,"x_max":889,"o":"m 500 914 q 389 873 429 914 q 350 758 350 833 q 406 599 350 677 q 535 673 500 647 q 591 731 570 700 q 612 802 612 762 q 584 884 612 854 q 500 914 555 914 m 319 81 q 433 103 378 81 q 566 187 488 125 l 358 481 q 233 402 271 435 q 175 329 195 369 q 155 240 155 290 q 200 124 155 168 q 319 81 245 81 m 45 232 q 106 407 45 332 q 311 550 167 481 q 241 760 241 662 q 313 939 241 871 q 504 1007 385 1007 q 664 954 605 1007 q 724 810 724 900 q 702 717 724 757 q 642 644 680 677 q 556 583 605 610 q 452 526 507 555 l 640 262 q 775 463 726 337 l 889 463 q 697 183 821 302 l 835 0 l 699 0 l 619 113 q 463 16 538 45 q 296 -14 389 -14 q 113 52 182 -14 q 45 232 45 117 z "},"'":{"ha":301,"x_min":153,"x_max":329,"o":"m 329 991 l 225 633 l 153 633 l 201 991 l 329 991 z "},"(":{"ha":396,"x_min":56,"x_max":504,"o":"m 56 184 q 137 610 56 414 q 397 991 218 805 l 504 991 q 252 605 337 808 q 167 186 167 401 q 244 -220 167 -44 l 155 -220 q 56 184 56 -39 z "},")":{"ha":396,"x_min":-109,"x_max":339,"o":"m 339 586 q 257 159 339 355 q -3 -220 174 -37 l -109 -220 q 228 586 228 154 q 151 991 228 817 l 240 991 q 339 586 339 809 z "},"*":{"ha":766,"x_min":146,"x_max":782,"o":"m 579 1036 l 496 777 l 782 789 l 777 682 l 510 714 l 632 454 l 519 419 l 443 694 l 268 461 l 189 543 l 399 736 l 146 810 l 183 914 l 435 789 l 463 1060 l 579 1036 z "},"+":{"ha":765,"x_min":86,"x_max":710,"o":"m 350 441 l 86 441 l 86 538 l 350 538 l 350 803 l 446 803 l 446 538 l 710 538 l 710 441 l 446 441 l 446 179 l 350 179 l 350 441 z "},",":{"ha":334,"x_min":-68,"x_max":203,"o":"m 197 161 l 203 146 q 20 -179 126 -14 l -68 -179 q 71 161 18 15 l 197 161 z "},"-":{"ha":433,"x_min":37,"x_max":386,"o":"m 37 318 l 61 425 l 386 425 l 363 318 l 37 318 z "},".":{"ha":351,"x_min":29,"x_max":197,"o":"m 29 50 q 57 133 29 102 q 132 164 84 164 q 179 146 161 164 q 197 93 197 129 q 170 13 197 45 q 97 -20 143 -20 q 47 -2 66 -20 q 29 50 29 16 z "},"/":{"ha":486,"x_min":-64,"x_max":606,"o":"m 606 991 l 54 0 l -64 0 l 488 991 l 606 991 z "},":":{"ha":351,"x_min":29,"x_max":306,"o":"m 29 50 q 57 133 29 102 q 132 164 84 164 q 179 146 161 164 q 197 93 197 129 q 170 13 197 45 q 97 -20 143 -20 q 47 -2 66 -20 q 29 50 29 16 m 138 648 q 165 731 138 701 q 240 762 192 762 q 306 692 306 762 q 278 611 306 642 q 205 579 250 579 q 156 597 174 579 q 138 648 138 615 z "},";":{"ha":351,"x_min":-68,"x_max":306,"o":"m 197 161 l 203 146 q 20 -179 126 -14 l -68 -179 q 71 161 18 15 l 197 161 m 138 648 q 165 731 138 701 q 240 762 192 762 q 306 692 306 762 q 278 611 306 642 q 205 579 250 579 q 156 597 174 579 q 138 648 138 615 z "},"<":{"ha":765,"x_min":82,"x_max":705,"o":"m 705 164 l 82 450 l 82 517 l 705 842 l 705 741 l 199 489 l 705 267 l 705 164 z "},"=":{"ha":765,"x_min":86,"x_max":710,"o":"m 86 582 l 86 676 l 710 676 l 710 582 l 86 582 m 86 301 l 86 397 l 710 397 l 710 301 l 86 301 z "},">":{"ha":765,"x_min":82,"x_max":705,"o":"m 82 267 l 587 489 l 82 741 l 82 842 l 705 517 l 705 450 l 82 164 l 82 267 z "},"?":{"ha":593,"x_min":107,"x_max":625,"o":"m 176 273 q 225 418 191 361 q 338 536 260 475 q 452 634 425 604 q 494 698 479 664 q 510 774 510 732 q 475 871 510 837 q 375 905 440 905 q 270 888 320 905 q 175 850 220 871 l 134 937 q 264 989 196 972 q 387 1006 332 1006 q 563 949 500 1006 q 625 787 625 892 q 581 634 625 704 q 428 482 536 564 q 313 382 343 420 q 268 273 283 344 l 176 273 m 107 50 q 134 133 107 102 q 210 164 161 164 q 257 146 239 164 q 275 93 275 129 q 247 12 275 43 q 175 -20 219 -20 q 125 -2 144 -20 q 107 50 107 16 z "},"@":{"ha":1177,"x_min":75,"x_max":1139,"o":"m 1139 578 q 1101 358 1139 456 q 996 204 1064 260 q 846 149 928 149 q 701 273 712 149 l 696 273 q 498 149 621 149 q 376 200 420 149 q 332 342 332 251 q 378 534 332 448 q 506 669 424 621 q 682 718 587 718 q 769 710 726 718 q 871 677 811 702 q 804 428 827 513 q 783 311 781 342 q 852 232 783 232 q 948 277 905 232 q 1017 402 991 323 q 1042 567 1042 481 q 955 816 1042 729 q 704 903 868 903 q 428 830 549 903 q 240 630 307 758 q 174 347 174 502 q 271 63 174 164 q 549 -37 368 -37 q 833 21 682 -37 l 833 -65 q 533 -126 685 -126 q 198 -1 320 -126 q 75 342 75 124 q 161 671 75 519 q 394 907 247 823 q 724 990 541 990 q 947 939 853 990 q 1089 794 1040 888 q 1139 578 1139 701 m 668 636 q 550 599 604 636 q 465 495 496 562 q 433 351 433 429 q 456 260 433 288 q 522 232 478 232 q 707 446 649 232 l 754 621 q 668 636 711 636 z "},"A":{"ha":771,"x_min":-79,"x_max":705,"o":"m 551 315 l 215 315 l 49 0 l -79 0 l 463 991 l 581 991 l 705 0 l 590 0 l 551 315 m 539 421 l 515 624 q 496 861 499 745 q 441 743 471 802 q 272 421 412 684 l 539 421 z "},"B":{"ha":831,"x_min":58,"x_max":815,"o":"m 522 991 q 815 764 815 991 q 756 602 815 668 q 590 517 697 536 l 590 510 q 710 435 668 488 q 751 307 751 382 q 648 82 751 163 q 372 0 545 0 l 58 0 l 268 991 l 522 991 m 294 567 l 463 567 q 631 616 568 567 q 694 751 694 666 q 649 857 694 822 q 507 892 604 892 l 364 892 l 294 567 m 195 98 l 375 98 q 564 153 498 98 q 629 307 629 208 q 579 428 629 386 q 433 469 528 469 l 273 469 l 195 98 z "},"C":{"ha":812,"x_min":102,"x_max":875,"o":"m 639 903 q 428 837 521 903 q 280 644 334 771 q 225 367 225 517 q 291 164 225 240 q 473 89 357 89 q 692 127 568 89 l 692 26 q 581 -4 633 5 q 453 -14 528 -14 q 195 88 289 -14 q 102 364 102 189 q 173 693 102 541 q 366 926 245 846 q 639 1006 486 1006 q 875 951 772 1006 l 828 856 q 639 903 734 903 z "},"D":{"ha":925,"x_min":58,"x_max":882,"o":"m 882 595 q 810 282 882 418 q 607 73 739 146 q 297 0 475 0 l 58 0 l 268 991 l 500 991 q 784 890 687 991 q 882 595 882 789 m 304 100 q 545 162 441 100 q 704 337 649 224 q 760 596 760 450 q 690 817 760 742 q 485 892 620 892 l 364 892 l 195 100 l 304 100 z "},"E":{"ha":710,"x_min":58,"x_max":766,"o":"m 557 0 l 58 0 l 268 991 l 766 991 l 745 888 l 361 888 l 294 570 l 652 570 l 632 467 l 273 467 l 196 103 l 579 103 l 557 0 z "},"F":{"ha":656,"x_min":58,"x_max":766,"o":"m 175 0 l 58 0 l 268 991 l 766 991 l 746 888 l 361 888 l 286 526 l 644 526 l 623 422 l 264 422 l 175 0 z "},"G":{"ha":940,"x_min":102,"x_max":921,"o":"m 557 519 l 868 519 l 764 37 q 479 -14 617 -14 q 201 84 300 -14 q 102 358 102 182 q 171 690 102 541 q 361 923 239 840 q 632 1006 484 1006 q 781 992 711 1006 q 921 949 850 979 l 876 846 q 764 886 824 869 q 632 903 704 903 q 424 834 517 903 q 277 642 330 765 q 225 366 225 518 q 295 163 225 237 q 489 89 364 89 q 665 115 593 89 l 730 416 l 534 416 l 557 519 z "},"H":{"ha":942,"x_min":58,"x_max":946,"o":"m 736 0 l 623 0 l 720 467 l 272 467 l 174 0 l 58 0 l 268 991 l 383 991 l 294 570 l 742 570 l 832 991 l 946 991 l 736 0 z "},"J":{"ha":371,"x_min":-216,"x_max":383,"o":"m -113 -261 q -216 -244 -184 -261 l -212 -144 q -114 -158 -165 -158 q -2 -116 -46 -158 q 60 8 43 -73 l 268 991 l 383 991 l 174 -4 q -113 -261 120 -261 z "},"K":{"ha":774,"x_min":58,"x_max":897,"o":"m 701 0 l 575 0 q 476 244 526 123 q 376 489 425 365 l 258 400 l 174 0 l 58 0 l 268 991 l 383 991 l 281 510 l 755 991 l 897 991 l 464 559 l 701 0 z "},"L":{"ha":659,"x_min":58,"x_max":579,"o":"m 58 0 l 268 991 l 383 991 l 196 104 l 579 104 l 557 0 l 58 0 z "},"M":{"ha":1162,"x_min":57,"x_max":1166,"o":"m 458 0 l 346 879 l 340 879 q 321 745 336 830 q 296 610 307 660 l 167 0 l 57 0 l 267 991 l 432 991 l 533 175 l 539 175 l 986 991 l 1166 991 l 961 0 l 843 0 q 974 614 928 400 q 1038 880 1019 828 l 1034 880 l 547 0 l 458 0 z "},"N":{"ha":975,"x_min":57,"x_max":982,"o":"m 772 0 l 650 0 l 338 829 l 334 829 q 283 546 312 680 l 167 0 l 57 0 l 267 991 l 389 991 l 700 164 l 704 164 q 753 439 724 316 l 871 991 l 982 991 l 772 0 z "},"O":{"ha":1000,"x_min":102,"x_max":957,"o":"m 957 615 q 897 289 957 433 q 726 65 838 144 q 469 -14 615 -14 q 199 88 296 -14 q 102 372 102 189 q 167 699 102 551 q 346 927 232 847 q 602 1007 459 1007 q 862 903 767 1007 q 957 615 957 798 m 593 904 q 402 836 486 904 q 272 645 318 767 q 225 375 225 523 q 292 164 225 240 q 472 89 358 89 q 657 155 575 89 q 786 345 739 221 q 833 618 833 468 q 770 828 833 753 q 593 904 706 904 z "},"P":{"ha":786,"x_min":58,"x_max":786,"o":"m 786 736 q 675 479 786 568 q 349 390 564 390 l 257 390 l 174 0 l 58 0 l 268 991 l 492 991 q 711 927 637 991 q 786 736 786 863 m 278 489 l 368 489 q 591 551 515 489 q 667 732 667 612 q 620 854 667 817 q 475 892 572 892 l 364 892 l 278 489 z "},"Q":{"ha":1000,"x_min":102,"x_max":957,"o":"m 593 904 q 402 836 486 904 q 272 645 318 767 q 225 375 225 523 q 292 164 225 240 q 472 89 358 89 q 661 157 579 89 q 788 347 743 224 q 833 618 833 469 q 770 828 833 753 q 593 904 706 904 m 492 -12 l 480 -14 l 469 -14 q 199 88 296 -14 q 102 372 102 189 q 167 699 102 551 q 346 927 232 847 q 602 1007 459 1007 q 862 903 767 1007 q 957 615 957 798 q 863 224 957 389 q 608 7 768 60 l 794 -236 l 646 -236 l 492 -12 z "},"R":{"ha":790,"x_min":58,"x_max":787,"o":"m 261 412 l 174 0 l 58 0 l 268 991 l 485 991 q 787 743 787 991 q 538 439 787 507 l 700 0 l 574 0 l 432 412 l 261 412 m 361 890 q 282 511 292 555 l 396 511 q 597 569 527 511 q 668 734 668 627 q 622 853 668 817 q 473 890 576 890 l 361 890 z "},"S":{"ha":697,"x_min":26,"x_max":718,"o":"m 619 288 q 524 65 619 144 q 256 -14 429 -14 q 129 -4 184 -14 q 26 29 75 6 l 26 144 q 257 87 136 87 q 431 139 367 87 q 496 279 496 190 q 460 373 496 332 q 328 468 425 413 q 185 583 225 526 q 146 720 146 641 q 235 926 146 846 q 471 1006 325 1006 q 596 993 538 1006 q 718 949 654 980 l 673 847 q 573 888 629 873 q 471 903 517 903 q 325 856 380 903 q 269 728 269 808 q 281 665 269 691 q 317 616 292 639 q 414 551 342 593 q 548 458 513 492 q 601 383 583 424 q 619 288 619 342 z "},"T":{"ha":692,"x_min":126,"x_max":817,"o":"m 330 0 l 214 0 l 401 889 l 126 889 l 149 991 l 817 991 l 796 889 l 519 889 l 330 0 z "},"U":{"ha":939,"x_min":111,"x_max":954,"o":"m 954 991 l 815 336 q 681 72 778 158 q 418 -14 585 -14 q 186 57 262 -14 q 111 260 111 127 q 127 396 111 315 l 256 991 l 371 991 l 241 387 q 227 260 227 315 q 276 135 227 180 q 424 89 326 89 q 605 148 541 89 q 700 345 670 208 l 839 991 l 954 991 z "},"V":{"ha":761,"x_min":127,"x_max":889,"o":"m 325 134 q 435 363 366 231 l 760 991 l 889 991 l 359 0 l 237 0 l 127 991 l 243 991 l 309 361 q 322 134 322 228 l 325 134 z "},"W":{"ha":1183,"x_min":151,"x_max":1303,"o":"m 852 0 l 737 0 l 704 654 q 699 846 699 747 l 694 846 q 653 741 677 797 q 311 0 629 685 l 193 0 l 151 991 l 267 991 l 288 380 l 289 321 q 282 146 289 254 l 286 146 q 392 406 347 311 l 667 991 l 787 991 l 817 408 q 823 202 823 304 l 822 146 l 828 146 q 917 386 879 298 l 1179 991 l 1303 991 l 852 0 z "},"X":{"ha":721,"x_min":-71,"x_max":836,"o":"m 648 0 l 526 0 l 382 435 l 56 0 l -71 0 l 334 526 l 155 991 l 272 991 l 410 610 l 710 991 l 836 991 l 460 521 l 648 0 z "},"Y":{"ha":699,"x_min":127,"x_max":827,"o":"m 364 485 l 696 991 l 827 991 l 401 367 l 325 0 l 208 0 l 289 372 l 127 991 l 243 991 l 364 485 z "},"Z":{"ha":737,"x_min":-11,"x_max":794,"o":"m 600 0 l -11 0 l 8 93 l 635 886 l 191 886 l 212 991 l 794 991 l 777 897 l 150 104 l 623 104 l 600 0 z "},"[":{"ha":397,"x_min":-11,"x_max":510,"o":"m 252 -220 l -11 -220 l 248 991 l 510 991 l 489 896 l 335 896 l 119 -123 l 273 -123 l 252 -220 z "},"\\":{"ha":486,"x_min":150,"x_max":401,"o":"m 254 991 l 401 0 l 297 0 l 150 991 l 254 991 z "},"]":{"ha":397,"x_min":-102,"x_max":419,"o":"m -81 -123 l 72 -123 l 289 896 l 135 896 l 155 991 l 419 991 l 161 -220 l -102 -220 l -81 -123 z "},"^":{"ha":718,"x_min":36,"x_max":696,"o":"m 36 375 l 441 999 l 515 999 l 696 375 l 597 375 l 461 882 l 144 375 l 36 375 z "},"_":{"ha":547,"x_min":-127,"x_max":443,"o":"m 422 -220 l -127 -220 l -107 -125 l 443 -125 l 422 -220 z "},"`":{"ha":770,"x_min":390,"x_max":612,"o":"m 612 842 l 542 842 q 455 946 500 883 q 390 1050 409 1009 l 390 1064 l 513 1064 q 612 859 542 972 l 612 842 z "},"a":{"ha":785,"x_min":66,"x_max":760,"o":"m 433 757 q 545 723 496 757 q 621 627 593 690 l 628 627 l 673 743 l 760 743 l 602 0 l 511 0 l 529 142 l 524 142 q 268 -14 402 -14 q 120 54 174 -14 q 66 237 66 121 q 115 499 66 378 q 248 688 163 620 q 433 757 332 757 m 304 81 q 435 143 370 81 q 541 307 500 206 q 582 509 582 408 q 544 620 582 578 q 444 661 506 661 q 313 603 374 661 q 218 445 252 545 q 183 235 183 345 q 215 119 183 157 q 304 81 247 81 z "},"b":{"ha":802,"x_min":40,"x_max":733,"o":"m 370 -14 q 254 21 304 -14 q 179 115 204 56 l 172 115 l 125 0 l 40 0 l 264 1055 l 378 1055 q 325 804 343 891 q 273 600 306 717 l 279 600 q 404 718 342 680 q 530 755 465 755 q 680 688 626 755 q 733 504 733 621 q 687 242 733 362 q 557 54 640 121 q 370 -14 474 -14 m 496 661 q 363 597 431 661 q 256 435 296 532 q 216 235 216 337 q 254 120 216 160 q 363 81 292 81 q 488 136 430 81 q 581 292 546 191 q 616 507 616 393 q 496 661 616 661 z "},"c":{"ha":625,"x_min":66,"x_max":636,"o":"m 343 -14 q 139 59 212 -14 q 66 264 66 132 q 117 514 66 399 q 255 693 167 629 q 454 757 344 757 q 636 722 547 757 l 604 627 q 456 661 523 661 q 317 609 380 661 q 219 465 254 557 q 183 264 183 372 q 228 129 183 177 q 353 81 273 81 q 445 94 401 81 q 530 126 488 108 l 530 29 q 343 -14 446 -14 z "},"d":{"ha":802,"x_min":66,"x_max":827,"o":"m 433 755 q 624 627 565 755 l 631 627 q 661 812 642 732 l 714 1055 l 827 1055 l 603 0 l 509 0 l 524 142 l 518 142 q 390 22 450 57 q 267 -14 330 -14 q 119 53 172 -14 q 66 237 66 119 q 115 503 66 382 q 247 690 164 624 q 433 755 330 755 m 304 81 q 436 144 368 81 q 544 306 504 208 q 583 507 583 405 q 547 622 583 583 q 440 661 510 661 q 313 605 372 661 q 219 448 254 549 q 183 235 183 347 q 304 81 183 81 z "},"e":{"ha":685,"x_min":66,"x_max":643,"o":"m 334 -14 q 138 60 209 -14 q 66 265 66 134 q 117 510 66 393 q 251 692 168 627 q 435 757 334 757 q 591 712 538 757 q 643 586 643 667 q 530 394 643 464 q 208 325 418 325 l 186 325 l 183 271 q 225 132 183 182 q 354 82 267 82 q 442 94 397 82 q 554 139 487 106 l 554 40 q 441 -2 490 10 q 334 -14 393 -14 m 428 660 q 297 596 358 660 q 203 419 235 532 l 211 419 q 448 459 366 419 q 530 576 530 500 q 506 636 530 612 q 428 660 481 660 z "},"f":{"ha":435,"x_min":-155,"x_max":610,"o":"m -71 -334 q -155 -319 -117 -334 l -155 -224 q -79 -239 -112 -239 q 0 -197 -28 -239 q 45 -77 28 -155 l 199 657 l 68 657 l 77 703 l 216 747 l 232 815 q 318 1007 263 951 q 482 1063 374 1063 q 549 1055 509 1063 q 610 1038 588 1047 l 581 950 q 488 970 529 970 q 397 937 429 970 q 346 817 366 904 l 329 743 l 490 743 l 473 657 l 313 657 l 155 -87 q 74 -275 129 -216 q -71 -334 19 -334 z "},"g":{"ha":696,"x_min":-86,"x_max":746,"o":"m 746 743 l 729 671 l 586 654 q 614 547 614 612 q 535 341 614 418 q 323 264 456 264 q 267 269 286 264 q 172 180 172 233 q 195 143 172 153 q 260 129 217 134 l 339 119 q 517 60 462 104 q 572 -72 572 15 q 473 -265 572 -197 q 195 -334 374 -334 q -12 -284 63 -334 q -86 -143 -86 -234 q -37 -20 -86 -72 q 121 69 12 33 q 68 151 68 97 q 102 232 68 198 q 199 294 137 265 q 129 358 156 316 q 102 457 102 401 q 183 673 102 589 q 390 757 264 757 q 494 743 443 757 l 746 743 m 24 -132 q 68 -215 24 -184 q 199 -245 112 -245 q 392 -202 322 -245 q 461 -81 461 -159 q 425 -14 461 -39 q 300 20 388 10 l 192 31 q 67 -29 111 14 q 24 -132 24 -72 m 212 461 q 243 373 212 404 q 328 343 273 343 q 421 372 381 343 q 483 450 461 400 q 504 558 504 500 q 474 643 504 614 q 389 672 444 672 q 296 645 336 672 q 234 568 256 617 q 212 461 212 519 z "},"h":{"ha":802,"x_min":40,"x_max":722,"o":"m 494 0 l 595 469 q 607 561 607 533 q 507 661 607 661 q 390 621 447 661 q 289 505 332 581 q 222 321 245 429 l 154 0 l 40 0 l 264 1055 l 378 1055 q 354 947 366 1000 q 331 841 343 895 q 306 728 319 787 q 273 600 292 669 l 281 600 q 407 720 345 684 q 536 755 469 755 q 674 707 625 755 q 722 568 722 658 q 707 456 722 526 q 608 0 680 325 l 494 0 z "},"i":{"ha":353,"x_min":40,"x_max":368,"o":"m 154 0 l 40 0 l 199 743 l 313 743 l 154 0 m 231 933 q 252 995 231 971 q 309 1019 274 1019 q 368 958 368 1019 q 346 895 368 921 q 293 869 323 869 q 248 886 266 869 q 231 933 231 903 z "},"j":{"ha":353,"x_min":-175,"x_max":367,"o":"m -92 -334 q -175 -319 -138 -334 l -175 -224 q -94 -239 -134 -239 q 20 -100 -9 -239 l 199 743 l 311 743 l 131 -110 q 53 -280 106 -226 q -92 -334 0 -334 m 231 933 q 252 995 231 971 q 309 1019 274 1019 q 367 958 367 1019 q 344 895 367 921 q 292 869 321 869 q 248 886 266 869 q 231 933 231 903 z "},"k":{"ha":677,"x_min":39,"x_max":717,"o":"m 224 379 l 581 743 l 717 743 l 399 427 l 599 0 l 472 0 l 313 355 l 210 272 l 154 0 l 39 0 l 262 1055 l 378 1055 q 290 647 329 827 q 221 379 252 467 l 224 379 z "},"l":{"ha":353,"x_min":39,"x_max":378,"o":"m 153 0 l 39 0 l 264 1055 l 378 1055 l 153 0 z "},"m":{"ha":1211,"x_min":40,"x_max":1133,"o":"m 472 0 l 572 469 q 585 561 585 533 q 564 635 585 608 q 492 661 543 661 q 381 621 435 661 q 286 504 327 580 q 222 322 245 429 l 154 0 l 40 0 l 199 743 l 293 743 l 278 606 l 285 606 q 402 722 344 686 q 524 757 461 757 q 642 713 600 757 q 690 590 683 669 l 696 590 q 820 716 754 675 q 953 757 886 757 q 1086 711 1039 757 q 1133 576 1133 665 q 1118 456 1133 530 l 1021 0 l 905 0 l 1006 469 q 1019 568 1019 540 q 996 636 1019 610 q 922 661 972 661 q 814 622 867 661 q 720 510 760 583 q 659 339 680 438 l 586 0 l 472 0 z "},"n":{"ha":802,"x_min":40,"x_max":722,"o":"m 494 0 l 595 469 q 608 567 608 540 q 584 635 608 610 q 507 661 560 661 q 390 621 447 661 q 289 505 332 580 q 222 322 245 429 l 154 0 l 40 0 l 199 743 l 293 743 l 278 606 l 285 606 q 411 723 350 688 q 536 757 471 757 q 672 710 623 757 q 722 578 722 663 q 707 456 722 524 l 610 0 l 494 0 z "},"o":{"ha":779,"x_min":66,"x_max":714,"o":"m 436 753 q 640 676 565 753 q 714 467 714 600 q 665 226 714 339 q 533 51 616 113 q 345 -11 450 -11 q 140 66 214 -11 q 66 275 66 142 q 116 518 66 404 q 250 692 165 631 q 436 753 334 753 m 596 482 q 554 609 596 560 q 439 657 511 657 q 306 607 365 657 q 215 468 248 557 q 183 269 183 378 q 226 132 183 180 q 350 83 269 83 q 477 133 420 83 q 565 274 533 182 q 596 482 596 365 z "},"p":{"ha":802,"x_min":-29,"x_max":733,"o":"m 370 -14 q 254 20 304 -14 q 178 115 205 54 l 171 115 l 168 90 q 161 42 166 73 q 83 -334 156 12 l -29 -334 l 199 743 l 293 743 l 275 602 l 281 602 q 533 755 402 755 q 680 689 626 755 q 733 504 733 623 q 686 240 733 360 q 557 53 640 120 q 370 -14 474 -14 m 496 661 q 363 597 431 661 q 256 435 296 532 q 216 235 216 337 q 254 120 216 160 q 363 81 292 81 q 488 136 430 81 q 581 292 546 191 q 616 507 616 393 q 496 661 616 661 z "},"q":{"ha":802,"x_min":66,"x_max":760,"o":"m 435 757 q 547 723 498 757 q 621 627 595 688 l 629 627 l 675 743 l 760 743 l 532 -334 l 419 -334 l 488 -8 q 526 142 494 22 l 521 142 q 395 23 456 60 q 269 -14 334 -14 q 120 53 174 -14 q 66 237 66 119 q 116 503 66 381 q 249 691 165 625 q 435 757 332 757 m 304 81 q 433 143 367 81 q 541 304 500 205 q 582 507 582 402 q 545 620 582 578 q 441 661 508 661 q 313 604 373 661 q 218 446 254 547 q 183 235 183 345 q 304 81 183 81 z "},"r":{"ha":550,"x_min":40,"x_max":591,"o":"m 510 757 q 591 747 557 757 l 567 646 q 496 654 531 654 q 380 614 434 654 q 286 501 326 573 q 227 340 245 429 l 154 0 l 40 0 l 199 743 l 293 743 l 278 606 l 285 606 q 366 698 334 670 q 432 742 397 726 q 510 757 467 757 z "},"s":{"ha":595,"x_min":5,"x_max":567,"o":"m 498 211 q 424 46 498 105 q 212 -14 349 -14 q 5 33 98 -14 l 5 140 q 108 96 53 112 q 210 81 163 81 q 338 115 295 81 q 382 201 382 149 q 358 267 382 240 q 256 339 334 293 q 131 436 168 389 q 94 549 94 484 q 163 700 94 642 q 343 757 231 757 q 567 707 459 757 l 530 614 l 492 631 q 343 660 424 660 q 244 630 280 660 q 208 554 208 601 q 232 489 208 516 q 332 419 256 462 q 436 349 404 378 q 483 287 467 320 q 498 211 498 253 z "},"t":{"ha":450,"x_min":61,"x_max":496,"o":"m 268 79 q 366 97 305 79 l 366 9 q 309 -7 342 0 q 254 -14 275 -14 q 124 27 170 -14 q 79 147 79 67 q 92 249 79 192 l 178 657 l 61 657 l 71 707 l 196 760 l 281 914 l 347 914 l 310 743 l 496 743 l 478 657 l 293 657 l 205 248 q 193 158 193 189 q 213 100 193 120 q 268 79 233 79 z "},"u":{"ha":802,"x_min":77,"x_max":758,"o":"m 306 743 l 204 272 q 192 178 192 212 q 292 81 192 81 q 409 121 351 81 q 511 238 467 162 q 578 421 555 314 l 646 743 l 758 743 l 602 0 l 507 0 l 522 138 l 514 138 q 387 20 448 53 q 262 -14 327 -14 q 126 34 176 -14 q 77 168 77 81 q 92 285 77 210 l 191 743 l 306 743 z "},"v":{"ha":642,"x_min":66,"x_max":707,"o":"m 151 0 l 66 743 l 180 743 l 224 328 q 240 82 240 153 l 244 82 q 366 334 330 269 l 586 743 l 707 743 l 306 0 l 151 0 z "},"w":{"ha":996,"x_min":79,"x_max":1046,"o":"m 564 0 l 542 408 q 539 525 539 472 l 539 631 l 533 631 l 499 551 l 443 422 l 245 0 l 109 0 l 79 743 l 191 743 l 203 340 l 203 281 q 197 98 203 181 l 201 98 q 294 317 233 182 l 494 743 l 618 743 l 643 340 q 647 163 647 227 l 647 127 l 646 98 l 650 98 q 706 247 669 157 q 925 743 743 336 l 1046 743 l 703 0 l 564 0 z "},"x":{"ha":664,"x_min":-50,"x_max":699,"o":"m 317 294 l 82 0 l -50 0 l 272 383 l 110 743 l 225 743 l 343 464 l 567 743 l 699 743 l 390 378 l 561 0 l 447 0 l 317 294 z "},"y":{"ha":642,"x_min":-134,"x_max":707,"o":"m 66 743 l 180 743 l 231 374 q 244 236 237 327 q 250 89 250 144 l 254 89 q 313 224 278 148 q 366 330 349 301 l 586 743 l 707 743 l 235 -126 q 110 -288 172 -243 q -39 -334 48 -334 q -134 -319 -87 -334 l -134 -228 q -45 -240 -91 -240 q 51 -206 11 -240 q 127 -104 90 -172 l 179 -12 l 66 743 z "},"z":{"ha":616,"x_min":-20,"x_max":606,"o":"m 468 0 l -20 0 l -4 79 l 467 659 l 142 659 l 160 743 l 606 743 l 586 648 l 125 85 l 485 85 l 468 0 z "},"{":{"ha":485,"x_min":18,"x_max":553,"o":"m 300 -220 q 153 -184 204 -220 q 102 -68 102 -149 q 115 28 102 -33 q 150 182 138 127 q 160 252 163 237 q 18 349 160 349 l 40 446 q 169 475 120 446 q 232 575 217 505 l 278 796 q 358 948 301 905 q 530 991 414 991 l 553 991 l 532 896 q 429 871 460 896 q 385 787 398 846 l 336 570 q 275 445 317 486 q 161 392 232 404 l 161 389 q 264 244 264 361 q 252 155 264 204 l 220 12 q 210 -54 210 -27 q 234 -107 210 -90 q 315 -123 259 -123 l 315 -220 l 300 -220 z "},"|":{"ha":765,"x_min":367,"x_max":461,"o":"m 367 1055 l 461 1055 l 461 -336 l 367 -336 l 367 1055 z "},"}":{"ha":485,"x_min":-50,"x_max":478,"o":"m 193 991 q 343 956 291 991 q 395 840 395 920 q 380 745 395 808 l 347 596 q 336 521 336 550 q 478 424 336 424 l 456 326 q 327 297 375 326 q 264 197 279 268 l 218 -24 q 138 -177 194 -135 q -41 -220 81 -220 l -50 -220 l -50 -123 q 63 -99 28 -123 q 111 -16 98 -75 l 160 203 q 220 325 177 282 q 335 379 262 367 l 335 383 q 233 526 233 412 q 245 615 233 566 l 279 760 q 289 827 289 804 q 261 879 289 863 q 167 896 234 896 l 186 991 l 193 991 z "},"~":{"ha":765,"x_min":78,"x_max":729,"o":"m 236 484 q 156 460 199 484 q 78 401 112 437 l 78 504 q 243 578 144 578 q 329 568 290 578 q 427 533 368 558 q 503 505 470 515 q 570 496 536 496 q 651 518 607 496 q 729 578 694 541 l 729 476 q 564 401 661 401 q 472 413 515 401 q 380 446 429 424 q 299 475 330 467 q 236 484 269 484 z "}," ":{"ha":361,"x_min":0,"x_max":0,"o":""},"¡":{"ha":359,"x_min":-9,"x_max":338,"o":"m 176 464 l 250 464 l 131 -253 l -9 -253 l 176 464 m 170 644 q 197 727 170 696 q 272 758 224 758 q 320 741 302 758 q 338 686 338 723 q 310 607 338 638 q 239 575 283 575 q 188 592 206 575 q 170 644 170 610 z "},"¢":{"ha":765,"x_min":153,"x_max":722,"o":"m 395 -14 l 310 -14 l 339 132 q 201 225 250 155 q 153 400 153 296 q 196 633 153 526 q 317 809 239 741 q 493 890 395 876 l 517 1006 l 600 1006 l 575 892 q 722 859 656 886 l 690 762 q 542 798 616 798 q 403 746 466 798 q 305 601 340 694 q 269 400 269 509 q 314 266 269 315 q 439 216 359 216 q 531 230 488 216 q 616 262 574 243 l 616 165 q 422 121 533 123 l 395 -14 z "},"£":{"ha":765,"x_min":-16,"x_max":799,"o":"m 571 1004 q 799 946 696 1004 l 754 856 q 566 909 655 909 q 387 749 421 909 l 340 528 l 591 528 l 574 441 l 322 441 l 290 293 q 245 180 275 227 q 161 104 216 134 l 653 104 l 631 0 l -16 0 l 3 96 q 178 292 142 127 l 210 441 l 74 441 l 92 528 l 228 528 l 279 765 q 571 1004 330 1004 z "},"¤":{"ha":765,"x_min":114,"x_max":705,"o":"m 155 490 q 201 636 155 570 l 114 724 l 176 786 l 262 699 q 410 746 332 746 q 555 699 487 746 l 643 786 l 705 725 l 618 637 q 665 490 665 567 q 618 343 665 410 l 704 257 l 643 196 l 555 282 q 410 236 489 236 q 262 283 329 236 l 176 197 l 115 258 l 201 345 q 155 490 155 410 m 243 490 q 291 372 243 420 q 410 323 340 323 q 530 372 480 323 q 579 490 579 420 q 530 610 579 561 q 410 660 480 660 q 292 611 340 660 q 243 490 243 562 z "},"¥":{"ha":765,"x_min":86,"x_max":854,"o":"m 395 485 l 728 991 l 854 991 l 493 469 l 650 469 l 631 379 l 429 379 l 407 271 l 608 271 l 589 180 l 389 180 l 350 0 l 245 0 l 283 180 l 86 180 l 106 271 l 302 271 l 325 379 l 127 379 l 147 469 l 300 469 l 163 991 l 273 991 l 395 485 z "},"¦":{"ha":765,"x_min":367,"x_max":461,"o":"m 367 1055 l 461 1055 l 461 529 l 367 529 l 367 1055 m 367 191 l 461 191 l 461 -336 l 367 -336 l 367 191 z "},"§":{"ha":675,"x_min":40,"x_max":676,"o":"m 118 522 q 279 730 118 659 q 199 868 199 778 q 269 1008 199 954 q 458 1061 339 1061 q 676 1015 587 1061 l 640 932 q 460 972 540 972 q 350 945 391 972 q 309 871 309 918 q 334 814 309 838 q 444 753 360 791 q 545 696 512 723 q 596 635 578 669 q 614 558 614 602 q 572 436 614 492 q 456 342 531 380 q 533 214 533 294 q 456 53 533 111 q 240 -5 378 -5 q 40 36 121 -5 l 40 136 q 133 98 78 113 q 239 83 187 83 q 377 114 329 83 q 425 201 425 144 q 391 262 425 234 q 288 321 357 290 q 156 409 194 362 q 118 522 118 456 m 349 685 q 257 626 293 667 q 221 536 221 584 q 255 457 221 489 q 390 382 290 425 q 476 454 444 412 q 509 543 509 497 q 475 615 509 584 q 349 685 441 646 z "},"¨":{"ha":770,"x_min":310,"x_max":679,"o":"m 310 935 q 329 988 310 966 q 379 1011 348 1011 q 432 957 432 1011 q 412 901 432 924 q 366 878 392 878 q 326 892 342 878 q 310 935 310 907 m 557 935 q 576 988 557 966 q 627 1011 595 1011 q 679 957 679 1011 q 659 901 679 924 q 612 878 639 878 q 573 892 589 878 q 557 935 557 907 z "},"©":{"ha":1156,"x_min":94,"x_max":1114,"o":"m 629 718 q 499 659 545 718 q 454 496 454 600 q 498 327 454 381 q 629 272 543 272 q 772 301 685 272 l 772 218 q 696 193 728 199 q 625 186 664 186 q 424 267 495 186 q 353 497 353 348 q 427 721 353 638 q 631 804 502 804 q 799 764 719 804 l 758 682 q 629 718 686 718 m 94 496 q 162 750 94 631 q 349 937 230 869 q 604 1006 467 1006 q 855 940 738 1006 q 1043 755 972 874 q 1114 496 1114 637 q 1045 240 1114 357 q 860 55 977 123 q 604 -14 743 -14 q 345 57 464 -14 q 160 244 227 127 q 94 496 94 361 m 165 496 q 224 276 165 378 q 386 116 283 174 q 604 57 488 57 q 823 116 722 57 q 984 276 924 175 q 1043 496 1043 376 q 984 715 1043 614 q 824 875 925 816 q 604 935 724 935 q 385 876 486 935 q 225 716 284 817 q 165 496 165 615 z "},"ª":{"ha":465,"x_min":115,"x_max":529,"o":"m 338 1003 q 441 933 415 1003 l 446 933 l 471 994 l 529 994 l 435 543 l 372 543 l 382 623 l 379 623 q 318 559 352 585 q 235 534 284 534 q 149 575 182 534 q 115 688 115 616 q 143 847 115 774 q 222 961 172 920 q 338 1003 273 1003 m 258 604 q 335 637 300 604 q 393 731 370 671 q 416 844 416 791 q 397 910 416 886 q 339 933 378 933 q 234 863 277 933 q 192 699 192 793 q 258 604 192 604 z "},"«":{"ha":650,"x_min":60,"x_max":635,"o":"m 60 396 l 325 650 l 378 595 l 176 372 l 293 110 l 216 77 l 60 376 l 60 396 m 328 367 l 576 642 l 635 595 l 443 347 l 550 110 l 473 77 l 328 346 l 328 367 z "},"¬":{"ha":765,"x_min":86,"x_max":710,"o":"m 710 538 l 710 179 l 615 179 l 615 441 l 86 441 l 86 538 l 710 538 z "},"­":{"ha":433,"x_min":37,"x_max":386,"o":"m 37 318 l 61 425 l 386 425 l 363 318 l 37 318 z "},"®":{"ha":1156,"x_min":94,"x_max":1114,"o":"m 94 496 q 162 750 94 631 q 349 937 230 869 q 604 1006 467 1006 q 855 940 738 1006 q 1043 755 972 874 q 1114 496 1114 637 q 1045 240 1114 357 q 860 55 977 123 q 604 -14 743 -14 q 345 57 464 -14 q 160 244 227 127 q 94 496 94 361 m 165 496 q 224 276 165 378 q 386 116 283 174 q 604 57 488 57 q 823 116 722 57 q 984 276 924 175 q 1043 496 1043 376 q 984 715 1043 614 q 824 875 925 816 q 604 935 724 935 q 385 876 486 935 q 225 716 284 817 q 165 496 165 615 m 810 621 q 778 525 810 568 q 688 458 745 482 l 842 197 l 741 197 l 600 436 l 524 436 l 524 197 l 437 197 l 437 794 l 593 794 q 756 751 703 794 q 810 621 810 709 m 524 517 l 586 517 q 718 618 718 517 q 686 690 718 669 q 585 711 654 711 l 524 711 l 524 517 z "},"¯":{"ha":530,"x_min":154,"x_max":710,"o":"m 686 1055 l 154 1055 l 176 1145 l 710 1145 l 686 1055 z "},"°":{"ha":595,"x_min":146,"x_max":568,"o":"m 146 794 q 207 943 146 881 q 357 1006 269 1006 q 462 978 413 1006 q 540 900 511 949 q 568 794 568 851 q 507 646 568 707 q 357 585 446 585 q 207 646 268 585 q 146 794 146 707 m 222 794 q 262 701 222 740 q 357 661 301 661 q 452 701 413 661 q 490 794 490 741 q 451 889 490 850 q 357 929 412 929 q 262 889 302 929 q 222 794 222 850 z "},"±":{"ha":765,"x_min":86,"x_max":710,"o":"m 350 436 l 86 436 l 86 532 l 350 532 l 350 798 l 446 798 l 446 532 l 710 532 l 710 436 l 446 436 l 446 174 l 350 174 l 350 436 m 86 0 l 86 96 l 710 96 l 710 0 l 86 0 z "},"²":{"ha":486,"x_min":65,"x_max":514,"o":"m 446 397 l 65 397 l 81 469 l 260 624 q 367 725 338 692 q 410 788 397 759 q 424 850 424 818 q 403 907 424 886 q 342 929 382 929 q 210 875 281 929 l 170 936 q 355 1004 254 1004 q 472 966 429 1004 q 514 864 514 928 q 478 742 514 797 q 345 603 443 688 l 195 476 l 463 476 l 446 397 z "},"³":{"ha":486,"x_min":81,"x_max":513,"o":"m 372 703 q 446 656 419 691 q 472 575 472 622 q 410 436 472 486 q 239 386 349 386 q 81 424 154 386 l 81 510 q 243 461 165 461 q 382 576 382 461 q 261 669 382 669 l 200 669 l 215 742 l 279 742 q 385 770 345 742 q 424 846 424 798 q 400 907 424 886 q 337 928 377 928 q 204 882 268 928 l 167 945 q 349 1004 241 1004 q 469 966 426 1004 q 513 864 513 928 q 372 705 513 742 l 372 703 z "},"´":{"ha":770,"x_min":361,"x_max":647,"o":"m 361 860 q 446 963 399 901 q 518 1064 493 1025 l 647 1064 l 647 1050 q 552 947 621 1017 q 432 842 483 878 l 361 842 l 361 860 z "},"µ":{"ha":810,"x_min":-29,"x_max":766,"o":"m 200 180 q 300 81 200 81 q 416 121 360 81 q 517 237 473 161 q 585 419 562 313 l 656 743 l 766 743 l 608 0 l 514 0 l 530 139 l 522 139 q 398 22 459 57 q 271 -14 337 -14 q 160 52 195 -14 l 154 52 q 139 -49 146 -1 q 82 -334 131 -96 l -29 -334 l 199 743 l 313 743 l 212 272 q 200 180 200 210 z "},"¶":{"ha":909,"x_min":135,"x_max":818,"o":"m 818 -176 l 741 -176 l 741 950 l 596 950 l 596 -176 l 518 -176 l 518 379 q 419 367 476 367 q 204 452 273 367 q 135 707 135 536 q 209 969 135 883 q 440 1055 283 1055 l 818 1055 l 818 -176 z "},"·":{"ha":351,"x_min":115,"x_max":283,"o":"m 115 468 q 143 551 115 520 q 218 582 170 582 q 266 564 248 582 q 283 511 283 547 q 256 430 283 463 q 183 398 229 398 q 134 416 152 398 q 115 468 115 433 z "},"¸":{"ha":285,"x_min":-115,"x_max":143,"o":"m 143 -187 q 88 -294 143 -254 q -57 -334 33 -334 q -115 -328 -85 -334 l -115 -260 q -69 -264 -90 -264 q 49 -189 49 -264 q 22 -143 49 -158 q -45 -123 -4 -129 l 24 0 l 96 0 l 54 -82 q 143 -187 143 -108 z "},"¹":{"ha":486,"x_min":175,"x_max":444,"o":"m 364 991 l 444 991 l 318 397 l 227 397 l 302 754 q 342 907 319 824 q 308 875 325 890 q 210 807 291 861 l 175 868 l 364 991 z "},"º":{"ha":467,"x_min":114,"x_max":505,"o":"m 505 827 q 445 616 505 697 q 282 534 385 534 q 160 583 205 534 q 114 715 114 631 q 142 862 114 795 q 222 966 171 928 q 340 1003 273 1003 q 463 958 420 1003 q 505 827 505 912 m 339 933 q 230 874 270 933 q 191 718 191 814 q 216 632 191 661 q 289 603 242 603 q 392 663 353 603 q 432 821 432 723 q 339 933 432 933 z "},"»":{"ha":650,"x_min":16,"x_max":591,"o":"m 591 329 l 325 78 l 272 134 l 473 353 l 357 618 l 433 652 l 591 349 l 591 329 m 323 358 l 74 86 l 16 134 l 207 378 l 100 618 l 176 652 l 323 379 l 323 358 z "},"¼":{"ha":1029,"x_min":83,"x_max":924,"o":"m 924 991 l 187 0 l 83 0 l 819 991 l 924 991 m 328 991 l 408 991 l 281 397 l 190 397 l 266 754 q 305 907 283 824 q 271 875 288 890 q 173 807 254 861 l 138 868 l 328 991 m 900 138 l 812 138 l 783 1 l 697 1 l 726 138 l 479 138 l 494 206 l 821 599 l 911 599 l 829 217 l 915 217 l 900 138 m 743 217 q 804 485 789 435 q 729 384 790 460 l 590 217 l 743 217 z "},"½":{"ha":1029,"x_min":45,"x_max":979,"o":"m 290 991 l 370 991 l 243 397 l 152 397 l 228 754 q 267 907 245 824 q 233 875 250 890 q 135 807 216 861 l 100 868 l 290 991 m 885 991 l 149 0 l 45 0 l 781 991 l 885 991 m 911 1 l 530 1 l 546 73 l 725 227 q 832 329 803 295 q 876 392 862 362 q 889 453 889 421 q 868 511 889 489 q 807 532 847 532 q 675 478 746 532 l 635 539 q 821 608 720 608 q 937 569 895 608 q 979 467 979 531 q 944 346 979 400 q 810 206 908 291 l 660 79 l 928 79 l 911 1 z "},"¾":{"ha":1061,"x_min":59,"x_max":1025,"o":"m 351 703 q 424 656 397 691 q 450 575 450 622 q 389 436 450 486 q 217 386 327 386 q 59 424 132 386 l 59 510 q 221 461 144 461 q 360 576 360 461 q 239 669 360 669 l 178 669 l 193 742 l 258 742 q 363 770 323 742 q 402 846 402 798 q 379 907 402 886 q 315 928 355 928 q 182 882 246 928 l 145 945 q 327 1004 219 1004 q 448 966 404 1004 q 491 864 491 928 q 351 705 491 742 l 351 703 m 1025 991 l 289 0 l 185 0 l 921 991 l 1025 991 m 1002 138 l 914 138 l 885 1 l 799 1 l 828 138 l 581 138 l 596 206 l 922 599 l 1013 599 l 930 217 l 1017 217 l 1002 138 m 844 217 q 905 485 891 435 q 831 384 892 460 l 692 217 l 844 217 z "},"¿":{"ha":593,"x_min":-3,"x_max":515,"o":"m 446 461 q 397 317 431 373 q 285 199 363 262 l 220 148 q 113 -39 113 62 q 148 -136 113 -102 q 248 -171 182 -171 q 352 -154 302 -171 q 447 -115 402 -136 l 489 -203 q 361 -253 428 -235 q 235 -271 294 -271 q 59 -214 121 -271 q -3 -53 -3 -157 q 42 102 -3 31 q 195 253 87 172 q 312 356 284 319 q 354 461 339 393 l 446 461 m 515 685 q 488 602 515 633 q 412 571 460 571 q 365 589 383 571 q 347 642 347 606 q 374 722 347 690 q 447 754 401 754 q 497 737 479 754 q 515 685 515 720 z "},"À":{"ha":771,"x_min":-79,"x_max":705,"o":"m 551 315 l 215 315 l 49 0 l -79 0 l 463 991 l 581 991 l 705 0 l 590 0 l 551 315 m 539 421 l 515 624 q 496 861 499 745 q 441 743 471 802 q 272 421 412 684 l 539 421 m 585 1071 l 515 1071 q 428 1175 473 1112 q 363 1279 382 1238 l 363 1293 l 486 1293 q 585 1088 515 1201 l 585 1071 z "},"Á":{"ha":771,"x_min":-79,"x_max":747,"o":"m 551 315 l 215 315 l 49 0 l -79 0 l 463 991 l 581 991 l 705 0 l 590 0 l 551 315 m 539 421 l 515 624 q 496 861 499 745 q 441 743 471 802 q 272 421 412 684 l 539 421 m 460 1089 q 546 1192 498 1130 q 618 1293 593 1254 l 747 1293 l 747 1279 q 652 1177 721 1246 q 532 1071 583 1107 l 460 1071 l 460 1089 z "},"Â":{"ha":771,"x_min":-79,"x_max":732,"o":"m 551 315 l 215 315 l 49 0 l -79 0 l 463 991 l 581 991 l 705 0 l 590 0 l 551 315 m 539 421 l 515 624 q 496 861 499 745 q 441 743 471 802 q 272 421 412 684 l 539 421 m 732 1071 l 663 1071 q 553 1199 624 1103 q 389 1071 463 1118 l 315 1071 l 315 1089 q 454 1223 414 1179 q 510 1293 494 1267 l 617 1293 q 704 1134 642 1226 l 732 1089 l 732 1071 z "},"Ã":{"ha":771,"x_min":-79,"x_max":791,"o":"m 551 315 l 215 315 l 49 0 l -79 0 l 463 991 l 581 991 l 705 0 l 590 0 l 551 315 m 539 421 l 515 624 q 496 861 499 745 q 441 743 471 802 q 272 421 412 684 l 539 421 m 633 1072 q 581 1084 606 1072 q 531 1111 555 1096 q 485 1137 507 1125 q 440 1149 462 1149 q 393 1129 410 1149 q 361 1071 376 1110 l 293 1071 q 450 1246 332 1246 q 506 1234 479 1246 q 557 1207 533 1221 q 602 1180 581 1192 q 642 1168 623 1168 q 689 1186 671 1168 q 724 1247 706 1204 l 791 1247 q 633 1072 747 1072 z "},"Ä":{"ha":771,"x_min":-79,"x_max":724,"o":"m 551 315 l 215 315 l 49 0 l -79 0 l 463 991 l 581 991 l 705 0 l 590 0 l 551 315 m 539 421 l 515 624 q 496 861 499 745 q 441 743 471 802 q 272 421 412 684 l 539 421 m 355 1164 q 374 1218 355 1195 q 424 1240 393 1240 q 477 1186 477 1240 q 457 1130 477 1153 q 410 1107 437 1107 q 371 1122 387 1107 q 355 1164 355 1137 m 602 1164 q 621 1218 602 1195 q 671 1240 640 1240 q 724 1186 724 1240 q 704 1130 724 1153 q 657 1107 684 1107 q 617 1122 633 1107 q 602 1164 602 1137 z "},"Å":{"ha":771,"x_min":-79,"x_max":705,"o":"m 551 315 l 215 315 l 49 0 l -79 0 l 463 991 l 581 991 l 705 0 l 590 0 l 551 315 m 539 421 l 515 624 q 496 861 499 745 q 441 743 471 802 q 272 421 412 684 l 539 421 m 672 1075 q 631 968 672 1008 q 524 929 591 929 q 415 968 455 929 q 375 1074 375 1007 q 417 1177 375 1137 q 524 1217 459 1217 q 632 1178 592 1217 q 672 1075 672 1139 m 602 1074 q 580 1131 602 1109 q 524 1152 558 1152 q 468 1131 490 1152 q 446 1074 446 1109 q 466 1016 446 1037 q 524 996 486 996 q 580 1016 558 996 q 602 1074 602 1037 z "},"Æ":{"ha":1135,"x_min":-81,"x_max":1192,"o":"m 982 0 l 482 0 l 549 315 l 252 315 l 53 0 l -81 0 l 555 991 l 1192 991 l 1169 888 l 786 888 l 718 570 l 1076 570 l 1057 468 l 699 468 l 621 103 l 1004 103 l 982 0 m 570 421 l 669 888 l 612 888 l 318 421 l 570 421 z "},"Ç":{"ha":812,"x_min":102,"x_max":875,"o":"m 639 903 q 428 837 521 903 q 280 644 334 771 q 225 367 225 517 q 291 164 225 240 q 473 89 357 89 q 692 127 568 89 l 692 26 q 581 -4 633 5 q 453 -14 528 -14 q 195 88 289 -14 q 102 364 102 189 q 173 693 102 541 q 366 926 245 846 q 639 1006 486 1006 q 875 951 772 1006 l 828 856 q 639 903 734 903 m 514 -187 q 459 -294 514 -254 q 314 -334 404 -334 q 256 -328 286 -334 l 256 -260 q 302 -264 281 -264 q 420 -189 420 -264 q 393 -143 420 -158 q 326 -123 367 -129 l 395 0 l 467 0 l 425 -82 q 514 -187 514 -108 z "},"È":{"ha":710,"x_min":58,"x_max":766,"o":"m 557 0 l 58 0 l 268 991 l 766 991 l 745 888 l 361 888 l 294 570 l 652 570 l 632 467 l 273 467 l 196 103 l 579 103 l 557 0 m 609 1071 l 538 1071 q 451 1175 497 1112 q 387 1279 406 1238 l 387 1293 l 509 1293 q 609 1088 538 1201 l 609 1071 z "},"É":{"ha":710,"x_min":58,"x_max":766,"o":"m 557 0 l 58 0 l 268 991 l 766 991 l 745 888 l 361 888 l 294 570 l 652 570 l 632 467 l 273 467 l 196 103 l 579 103 l 557 0 m 446 1089 q 531 1192 484 1130 q 603 1293 578 1254 l 732 1293 l 732 1279 q 637 1177 706 1246 q 517 1071 568 1107 l 446 1071 l 446 1089 z "},"Ê":{"ha":710,"x_min":58,"x_max":766,"o":"m 557 0 l 58 0 l 268 991 l 766 991 l 745 888 l 361 888 l 294 570 l 652 570 l 632 467 l 273 467 l 196 103 l 579 103 l 557 0 m 735 1071 l 665 1071 q 556 1199 627 1103 q 392 1071 465 1118 l 318 1071 l 318 1089 q 457 1223 416 1179 q 513 1293 497 1267 l 620 1293 q 707 1134 645 1226 l 735 1089 l 735 1071 z "},"Ë":{"ha":710,"x_min":58,"x_max":766,"o":"m 557 0 l 58 0 l 268 991 l 766 991 l 745 888 l 361 888 l 294 570 l 652 570 l 632 467 l 273 467 l 196 103 l 579 103 l 557 0 m 355 1164 q 374 1218 355 1195 q 424 1240 393 1240 q 477 1186 477 1240 q 457 1130 477 1153 q 410 1107 437 1107 q 371 1122 387 1107 q 355 1164 355 1137 m 602 1164 q 621 1218 602 1195 q 671 1240 640 1240 q 724 1186 724 1240 q 704 1130 724 1153 q 657 1107 684 1107 q 617 1122 633 1107 q 602 1164 602 1137 z "},"Ð":{"ha":925,"x_min":49,"x_max":882,"o":"m 882 595 q 810 282 882 418 q 607 73 739 146 q 297 0 475 0 l 58 0 l 150 440 l 49 440 l 71 542 l 172 542 l 268 991 l 500 991 q 784 890 687 991 q 882 595 882 789 m 304 100 q 545 162 441 100 q 704 337 649 224 q 760 596 760 450 q 690 817 760 742 q 485 892 620 892 l 364 892 l 289 542 l 513 542 l 490 440 l 267 440 l 195 100 l 304 100 z "},"Ñ":{"ha":975,"x_min":57,"x_max":982,"o":"m 772 0 l 650 0 l 338 829 l 334 829 q 283 546 312 680 l 167 0 l 57 0 l 267 991 l 389 991 l 700 164 l 704 164 q 753 439 724 316 l 871 991 l 982 991 l 772 0 m 747 1072 q 695 1084 720 1072 q 645 1111 669 1096 q 598 1137 621 1125 q 554 1149 576 1149 q 507 1129 524 1149 q 475 1071 490 1110 l 407 1071 q 564 1246 446 1246 q 620 1234 593 1246 q 671 1207 647 1221 q 716 1180 695 1192 q 755 1168 737 1168 q 803 1186 785 1168 q 838 1247 820 1204 l 905 1247 q 747 1072 861 1072 z "},"Ò":{"ha":1000,"x_min":102,"x_max":957,"o":"m 957 615 q 897 289 957 433 q 726 65 838 144 q 469 -14 615 -14 q 199 88 296 -14 q 102 372 102 189 q 167 699 102 551 q 346 927 232 847 q 602 1007 459 1007 q 862 903 767 1007 q 957 615 957 798 m 593 904 q 402 836 486 904 q 272 645 318 767 q 225 375 225 523 q 292 164 225 240 q 472 89 358 89 q 657 155 575 89 q 786 345 739 221 q 833 618 833 468 q 770 828 833 753 q 593 904 706 904 m 683 1071 l 612 1071 q 525 1175 571 1112 q 460 1279 479 1238 l 460 1293 l 583 1293 q 683 1088 612 1201 l 683 1071 z "},"Ó":{"ha":1000,"x_min":102,"x_max":957,"o":"m 957 615 q 897 289 957 433 q 726 65 838 144 q 469 -14 615 -14 q 199 88 296 -14 q 102 372 102 189 q 167 699 102 551 q 346 927 232 847 q 602 1007 459 1007 q 862 903 767 1007 q 957 615 957 798 m 593 904 q 402 836 486 904 q 272 645 318 767 q 225 375 225 523 q 292 164 225 240 q 472 89 358 89 q 657 155 575 89 q 786 345 739 221 q 833 618 833 468 q 770 828 833 753 q 593 904 706 904 m 557 1089 q 642 1192 595 1130 q 714 1293 689 1254 l 843 1293 l 843 1279 q 748 1177 817 1246 q 628 1071 679 1107 l 557 1071 l 557 1089 z "},"Ô":{"ha":1000,"x_min":102,"x_max":957,"o":"m 957 615 q 897 289 957 433 q 726 65 838 144 q 469 -14 615 -14 q 199 88 296 -14 q 102 372 102 189 q 167 699 102 551 q 346 927 232 847 q 602 1007 459 1007 q 862 903 767 1007 q 957 615 957 798 m 593 904 q 402 836 486 904 q 272 645 318 767 q 225 375 225 523 q 292 164 225 240 q 472 89 358 89 q 657 155 575 89 q 786 345 739 221 q 833 618 833 468 q 770 828 833 753 q 593 904 706 904 m 832 1071 l 762 1071 q 653 1199 724 1103 q 489 1071 562 1118 l 415 1071 l 415 1089 q 554 1223 513 1179 q 610 1293 594 1267 l 717 1293 q 804 1134 742 1226 l 832 1089 l 832 1071 z "},"Õ":{"ha":1000,"x_min":102,"x_max":957,"o":"m 957 615 q 897 289 957 433 q 726 65 838 144 q 469 -14 615 -14 q 199 88 296 -14 q 102 372 102 189 q 167 699 102 551 q 346 927 232 847 q 602 1007 459 1007 q 862 903 767 1007 q 957 615 957 798 m 593 904 q 402 836 486 904 q 272 645 318 767 q 225 375 225 523 q 292 164 225 240 q 472 89 358 89 q 657 155 575 89 q 786 345 739 221 q 833 618 833 468 q 770 828 833 753 q 593 904 706 904 m 724 1072 q 671 1084 696 1072 q 622 1111 646 1096 q 575 1137 597 1125 q 530 1149 552 1149 q 483 1129 500 1149 q 451 1071 466 1110 l 383 1071 q 540 1246 422 1246 q 596 1234 570 1246 q 647 1207 623 1221 q 692 1180 671 1192 q 732 1168 713 1168 q 779 1186 762 1168 q 814 1247 796 1204 l 882 1247 q 724 1072 837 1072 z "},"Ö":{"ha":1000,"x_min":102,"x_max":957,"o":"m 957 615 q 897 289 957 433 q 726 65 838 144 q 469 -14 615 -14 q 199 88 296 -14 q 102 372 102 189 q 167 699 102 551 q 346 927 232 847 q 602 1007 459 1007 q 862 903 767 1007 q 957 615 957 798 m 593 904 q 402 836 486 904 q 272 645 318 767 q 225 375 225 523 q 292 164 225 240 q 472 89 358 89 q 657 155 575 89 q 786 345 739 221 q 833 618 833 468 q 770 828 833 753 q 593 904 706 904 m 450 1164 q 469 1218 450 1195 q 519 1240 488 1240 q 572 1186 572 1240 q 552 1130 572 1153 q 506 1107 532 1107 q 466 1122 482 1107 q 450 1164 450 1137 m 697 1164 q 716 1218 697 1195 q 767 1240 735 1240 q 819 1186 819 1240 q 799 1130 819 1153 q 753 1107 779 1107 q 713 1122 729 1107 q 697 1164 697 1137 z "},"×":{"ha":765,"x_min":114,"x_max":684,"o":"m 330 490 l 114 708 l 180 775 l 397 558 l 616 775 l 684 710 l 464 490 l 682 272 l 616 207 l 397 424 l 180 208 l 115 273 l 330 490 z "},"Ø":{"ha":1000,"x_min":81,"x_max":991,"o":"m 957 615 q 897 289 957 433 q 726 65 838 144 q 469 -14 615 -14 q 244 52 334 -14 l 157 -57 l 81 5 l 174 121 q 102 372 102 213 q 167 699 102 551 q 346 927 232 847 q 602 1007 459 1007 q 723 989 669 1007 q 825 932 777 970 l 914 1044 l 991 982 l 890 857 q 940 751 923 815 q 957 615 957 688 m 593 904 q 402 836 486 904 q 272 645 318 767 q 225 375 225 523 q 253 221 225 283 l 753 844 q 593 904 692 904 m 833 618 q 811 757 833 698 l 314 139 q 472 89 376 89 q 657 155 575 89 q 786 345 739 221 q 833 618 833 468 z "},"Ù":{"ha":939,"x_min":111,"x_max":954,"o":"m 954 991 l 815 336 q 681 72 778 158 q 418 -14 585 -14 q 186 57 262 -14 q 111 260 111 127 q 127 396 111 315 l 256 991 l 371 991 l 241 387 q 227 260 227 315 q 276 135 227 180 q 424 89 326 89 q 605 148 541 89 q 700 345 670 208 l 839 991 l 954 991 m 672 1071 l 602 1071 q 514 1175 560 1112 q 450 1279 469 1238 l 450 1293 l 572 1293 q 672 1088 602 1201 l 672 1071 z "},"Ú":{"ha":939,"x_min":111,"x_max":954,"o":"m 954 991 l 815 336 q 681 72 778 158 q 418 -14 585 -14 q 186 57 262 -14 q 111 260 111 127 q 127 396 111 315 l 256 991 l 371 991 l 241 387 q 227 260 227 315 q 276 135 227 180 q 424 89 326 89 q 605 148 541 89 q 700 345 670 208 l 839 991 l 954 991 m 558 1089 q 643 1192 596 1130 q 715 1293 690 1254 l 844 1293 l 844 1279 q 749 1177 819 1246 q 629 1071 680 1107 l 558 1071 l 558 1089 z "},"Û":{"ha":939,"x_min":111,"x_max":954,"o":"m 954 991 l 815 336 q 681 72 778 158 q 418 -14 585 -14 q 186 57 262 -14 q 111 260 111 127 q 127 396 111 315 l 256 991 l 371 991 l 241 387 q 227 260 227 315 q 276 135 227 180 q 424 89 326 89 q 605 148 541 89 q 700 345 670 208 l 839 991 l 954 991 m 825 1071 l 755 1071 q 646 1199 717 1103 q 482 1071 555 1118 l 408 1071 l 408 1089 q 547 1223 507 1179 q 603 1293 587 1267 l 710 1293 q 797 1134 735 1226 l 825 1089 l 825 1071 z "},"Ü":{"ha":939,"x_min":111,"x_max":954,"o":"m 954 991 l 815 336 q 681 72 778 158 q 418 -14 585 -14 q 186 57 262 -14 q 111 260 111 127 q 127 396 111 315 l 256 991 l 371 991 l 241 387 q 227 260 227 315 q 276 135 227 180 q 424 89 326 89 q 605 148 541 89 q 700 345 670 208 l 839 991 l 954 991 m 436 1164 q 455 1218 436 1195 q 505 1240 474 1240 q 558 1186 558 1240 q 538 1130 558 1153 q 492 1107 518 1107 q 452 1122 468 1107 q 436 1164 436 1137 m 683 1164 q 702 1218 683 1195 q 753 1240 721 1240 q 805 1186 805 1240 q 785 1130 805 1153 q 739 1107 765 1107 q 699 1122 715 1107 q 683 1164 683 1137 z "},"Ý":{"ha":699,"x_min":127,"x_max":827,"o":"m 364 485 l 696 991 l 827 991 l 401 367 l 325 0 l 208 0 l 289 372 l 127 991 l 243 991 l 364 485 m 418 1089 q 503 1192 456 1130 q 575 1293 550 1254 l 704 1293 l 704 1279 q 609 1177 678 1246 q 489 1071 540 1107 l 418 1071 l 418 1089 z "},"Þ":{"ha":786,"x_min":58,"x_max":750,"o":"m 750 562 q 639 305 750 394 q 311 216 528 216 l 221 216 l 174 0 l 58 0 l 268 991 l 383 991 l 347 818 l 456 818 q 675 753 600 818 q 750 562 750 689 m 240 315 l 332 315 q 554 377 477 315 q 631 558 631 439 q 583 681 631 644 q 437 718 536 718 l 325 718 l 240 315 z "},"ß":{"ha":802,"x_min":-174,"x_max":754,"o":"m -90 -334 q -174 -319 -137 -334 l -174 -222 q -98 -237 -132 -237 q -26 -205 -54 -237 q 18 -98 3 -173 l 208 793 q 314 996 237 928 q 522 1063 391 1063 q 693 1015 632 1063 q 754 882 754 966 q 740 809 754 843 q 698 745 726 776 q 577 643 671 714 q 503 541 503 587 q 567 458 503 503 q 635 398 599 435 q 689 324 672 362 q 707 240 707 286 q 633 54 707 121 q 435 -14 559 -14 q 253 35 316 -14 l 253 143 q 333 98 288 115 q 421 81 379 81 q 544 120 498 81 q 590 228 590 159 q 583 276 590 255 q 560 316 576 297 q 500 372 545 335 q 417 456 440 419 q 393 534 393 494 q 406 600 393 570 q 439 653 418 629 q 524 724 460 677 q 599 783 578 762 q 631 827 620 804 q 643 875 643 850 q 607 943 643 918 q 511 968 572 968 q 385 925 431 968 q 321 796 340 883 l 135 -87 q 53 -275 108 -216 q -90 -334 -2 -334 z "},"à":{"ha":785,"x_min":66,"x_max":760,"o":"m 433 757 q 545 723 496 757 q 621 627 593 690 l 628 627 l 673 743 l 760 743 l 602 0 l 511 0 l 529 142 l 524 142 q 268 -14 402 -14 q 120 54 174 -14 q 66 237 66 121 q 115 499 66 378 q 248 688 163 620 q 433 757 332 757 m 304 81 q 435 143 370 81 q 541 307 500 206 q 582 509 582 408 q 544 620 582 578 q 444 661 506 661 q 313 603 374 661 q 218 445 252 545 q 183 235 183 345 q 215 119 183 157 q 304 81 247 81 m 559 842 l 488 842 q 401 946 447 883 q 336 1050 355 1009 l 336 1064 l 459 1064 q 559 859 488 972 l 559 842 z "},"á":{"ha":785,"x_min":66,"x_max":760,"o":"m 433 757 q 545 723 496 757 q 621 627 593 690 l 628 627 l 673 743 l 760 743 l 602 0 l 511 0 l 529 142 l 524 142 q 268 -14 402 -14 q 120 54 174 -14 q 66 237 66 121 q 115 499 66 378 q 248 688 163 620 q 433 757 332 757 m 304 81 q 435 143 370 81 q 541 307 500 206 q 582 509 582 408 q 544 620 582 578 q 444 661 506 661 q 313 603 374 661 q 218 445 252 545 q 183 235 183 345 q 215 119 183 157 q 304 81 247 81 m 407 860 q 492 963 445 901 q 564 1064 539 1025 l 693 1064 l 693 1050 q 598 947 667 1017 q 478 842 529 878 l 407 842 l 407 860 z "},"â":{"ha":785,"x_min":66,"x_max":760,"o":"m 433 757 q 545 723 496 757 q 621 627 593 690 l 628 627 l 673 743 l 760 743 l 602 0 l 511 0 l 529 142 l 524 142 q 268 -14 402 -14 q 120 54 174 -14 q 66 237 66 121 q 115 499 66 378 q 248 688 163 620 q 433 757 332 757 m 304 81 q 435 143 370 81 q 541 307 500 206 q 582 509 582 408 q 544 620 582 578 q 444 661 506 661 q 313 603 374 661 q 218 445 252 545 q 183 235 183 345 q 215 119 183 157 q 304 81 247 81 m 682 842 l 612 842 q 503 970 573 874 q 338 842 412 889 l 264 842 l 264 860 q 403 994 363 950 q 459 1064 444 1038 l 566 1064 q 653 905 591 997 l 682 860 l 682 842 z "},"ã":{"ha":785,"x_min":66,"x_max":760,"o":"m 433 757 q 545 723 496 757 q 621 627 593 690 l 628 627 l 673 743 l 760 743 l 602 0 l 511 0 l 529 142 l 524 142 q 268 -14 402 -14 q 120 54 174 -14 q 66 237 66 121 q 115 499 66 378 q 248 688 163 620 q 433 757 332 757 m 304 81 q 435 143 370 81 q 541 307 500 206 q 582 509 582 408 q 544 620 582 578 q 444 661 506 661 q 313 603 374 661 q 218 445 252 545 q 183 235 183 345 q 215 119 183 157 q 304 81 247 81 m 581 843 q 528 855 553 843 q 478 881 503 867 q 432 908 454 896 q 387 920 409 920 q 340 900 357 920 q 308 842 323 881 l 240 842 q 397 1017 279 1017 q 453 1004 427 1017 q 504 978 480 992 q 549 951 528 963 q 589 939 570 939 q 636 957 618 939 q 671 1018 653 975 l 739 1018 q 581 843 694 843 z "},"ä":{"ha":785,"x_min":66,"x_max":760,"o":"m 433 757 q 545 723 496 757 q 621 627 593 690 l 628 627 l 673 743 l 760 743 l 602 0 l 511 0 l 529 142 l 524 142 q 268 -14 402 -14 q 120 54 174 -14 q 66 237 66 121 q 115 499 66 378 q 248 688 163 620 q 433 757 332 757 m 304 81 q 435 143 370 81 q 541 307 500 206 q 582 509 582 408 q 544 620 582 578 q 444 661 506 661 q 313 603 374 661 q 218 445 252 545 q 183 235 183 345 q 215 119 183 157 q 304 81 247 81 m 308 935 q 327 988 308 966 q 377 1011 346 1011 q 430 957 430 1011 q 410 901 430 924 q 363 878 390 878 q 324 892 340 878 q 308 935 308 907 m 555 935 q 574 988 555 966 q 625 1011 593 1011 q 677 957 677 1011 q 657 901 677 924 q 610 878 637 878 q 571 892 587 878 q 555 935 555 907 z "},"å":{"ha":785,"x_min":66,"x_max":760,"o":"m 433 757 q 545 723 496 757 q 621 627 593 690 l 628 627 l 673 743 l 760 743 l 602 0 l 511 0 l 529 142 l 524 142 q 268 -14 402 -14 q 120 54 174 -14 q 66 237 66 121 q 115 499 66 378 q 248 688 163 620 q 433 757 332 757 m 304 81 q 435 143 370 81 q 541 307 500 206 q 582 509 582 408 q 544 620 582 578 q 444 661 506 661 q 313 603 374 661 q 218 445 252 545 q 183 235 183 345 q 215 119 183 157 q 304 81 247 81 m 645 987 q 604 881 645 920 q 496 842 564 842 q 388 881 428 842 q 348 986 348 920 q 390 1089 348 1050 q 496 1129 432 1129 q 605 1090 565 1129 q 645 987 645 1052 m 574 986 q 553 1043 574 1022 q 496 1064 531 1064 q 441 1043 463 1064 q 418 986 418 1022 q 438 929 418 949 q 496 908 458 908 q 553 929 531 908 q 574 986 574 949 z "},"æ":{"ha":1132,"x_min":66,"x_max":1101,"o":"m 790 -14 q 662 13 717 -14 q 579 94 606 40 l 558 0 l 481 0 l 498 142 l 493 142 q 363 19 419 52 q 243 -14 307 -14 q 113 54 160 -14 q 66 236 66 121 q 114 497 66 376 q 244 688 162 618 q 422 757 326 757 q 521 724 478 757 q 590 627 564 691 l 597 627 l 643 743 l 717 743 l 696 644 q 921 757 779 757 q 1052 711 1002 757 q 1101 586 1101 665 q 988 394 1101 463 q 668 325 876 325 l 642 325 l 639 271 q 681 132 639 182 q 812 82 724 82 q 891 93 850 82 q 1013 139 933 104 l 1013 37 q 790 -14 901 -14 m 279 81 q 407 143 344 81 q 511 306 471 205 q 551 509 551 407 q 520 620 551 578 q 437 661 490 661 q 311 603 370 661 q 217 446 251 544 q 183 236 183 347 q 208 120 183 159 q 279 81 233 81 m 899 660 q 755 596 819 660 q 660 419 692 532 l 669 419 q 906 459 823 419 q 989 574 989 498 q 965 637 989 615 q 899 660 941 660 z "},"ç":{"ha":625,"x_min":66,"x_max":636,"o":"m 343 -14 q 139 59 212 -14 q 66 264 66 132 q 117 514 66 399 q 255 693 167 629 q 454 757 344 757 q 636 722 547 757 l 604 627 q 456 661 523 661 q 317 609 380 661 q 219 465 254 557 q 183 264 183 372 q 228 129 183 177 q 353 81 273 81 q 445 94 401 81 q 530 126 488 108 l 530 29 q 343 -14 446 -14 m 401 -187 q 347 -294 401 -254 q 201 -334 292 -334 q 143 -328 174 -334 l 143 -260 q 189 -264 169 -264 q 307 -189 307 -264 q 281 -143 307 -158 q 214 -123 254 -129 l 282 0 l 354 0 l 313 -82 q 401 -187 401 -108 z "},"è":{"ha":685,"x_min":66,"x_max":643,"o":"m 334 -14 q 138 60 209 -14 q 66 265 66 134 q 117 510 66 393 q 251 692 168 627 q 435 757 334 757 q 591 712 538 757 q 643 586 643 667 q 530 394 643 464 q 208 325 418 325 l 186 325 l 183 271 q 225 132 183 182 q 354 82 267 82 q 442 94 397 82 q 554 139 487 106 l 554 40 q 441 -2 490 10 q 334 -14 393 -14 m 428 660 q 297 596 358 660 q 203 419 235 532 l 211 419 q 448 459 366 419 q 530 576 530 500 q 506 636 530 612 q 428 660 481 660 m 527 842 l 456 842 q 369 946 415 883 q 304 1050 323 1009 l 304 1064 l 427 1064 q 527 859 456 972 l 527 842 z "},"é":{"ha":685,"x_min":66,"x_max":683,"o":"m 334 -14 q 138 60 209 -14 q 66 265 66 134 q 117 510 66 393 q 251 692 168 627 q 435 757 334 757 q 591 712 538 757 q 643 586 643 667 q 530 394 643 464 q 208 325 418 325 l 186 325 l 183 271 q 225 132 183 182 q 354 82 267 82 q 442 94 397 82 q 554 139 487 106 l 554 40 q 441 -2 490 10 q 334 -14 393 -14 m 428 660 q 297 596 358 660 q 203 419 235 532 l 211 419 q 448 459 366 419 q 530 576 530 500 q 506 636 530 612 q 428 660 481 660 m 397 860 q 482 963 435 901 q 554 1064 529 1025 l 683 1064 l 683 1050 q 588 947 657 1017 q 468 842 519 878 l 397 842 l 397 860 z "},"ê":{"ha":685,"x_min":66,"x_max":655,"o":"m 334 -14 q 138 60 209 -14 q 66 265 66 134 q 117 510 66 393 q 251 692 168 627 q 435 757 334 757 q 591 712 538 757 q 643 586 643 667 q 530 394 643 464 q 208 325 418 325 l 186 325 l 183 271 q 225 132 183 182 q 354 82 267 82 q 442 94 397 82 q 554 139 487 106 l 554 40 q 441 -2 490 10 q 334 -14 393 -14 m 428 660 q 297 596 358 660 q 203 419 235 532 l 211 419 q 448 459 366 419 q 530 576 530 500 q 506 636 530 612 q 428 660 481 660 m 655 842 l 585 842 q 476 970 547 874 q 312 842 385 889 l 238 842 l 238 860 q 377 994 336 950 q 433 1064 417 1038 l 540 1064 q 627 905 565 997 l 655 860 l 655 842 z "},"ë":{"ha":685,"x_min":66,"x_max":649,"o":"m 334 -14 q 138 60 209 -14 q 66 265 66 134 q 117 510 66 393 q 251 692 168 627 q 435 757 334 757 q 591 712 538 757 q 643 586 643 667 q 530 394 643 464 q 208 325 418 325 l 186 325 l 183 271 q 225 132 183 182 q 354 82 267 82 q 442 94 397 82 q 554 139 487 106 l 554 40 q 441 -2 490 10 q 334 -14 393 -14 m 428 660 q 297 596 358 660 q 203 419 235 532 l 211 419 q 448 459 366 419 q 530 576 530 500 q 506 636 530 612 q 428 660 481 660 m 280 935 q 299 988 280 966 q 349 1011 318 1011 q 402 957 402 1011 q 382 901 402 924 q 336 878 362 878 q 296 892 312 878 q 280 935 280 907 m 527 935 q 546 988 527 966 q 597 1011 565 1011 q 649 957 649 1011 q 629 901 649 924 q 583 878 609 878 q 543 892 559 878 q 527 935 527 907 z "},"ì":{"ha":353,"x_min":40,"x_max":334,"o":"m 154 0 l 40 0 l 199 743 l 313 743 l 154 0 m 334 842 l 263 842 q 176 946 222 883 q 111 1050 130 1009 l 111 1064 l 234 1064 q 334 859 263 972 l 334 842 z "},"í":{"ha":353,"x_min":40,"x_max":506,"o":"m 154 0 l 40 0 l 199 743 l 313 743 l 154 0 m 220 860 q 305 963 258 901 q 377 1064 352 1025 l 506 1064 l 506 1050 q 411 947 480 1017 q 291 842 342 878 l 220 842 l 220 860 z "},"î":{"ha":353,"x_min":40,"x_max":480,"o":"m 154 0 l 40 0 l 199 743 l 313 743 l 154 0 m 480 842 l 410 842 q 301 970 372 874 q 137 842 210 889 l 63 842 l 63 860 q 202 994 161 950 q 258 1064 242 1038 l 365 1064 q 452 905 390 997 l 480 860 l 480 842 z "},"ï":{"ha":353,"x_min":40,"x_max":478,"o":"m 154 0 l 40 0 l 199 743 l 313 743 l 154 0 m 109 935 q 128 988 109 966 q 178 1011 147 1011 q 231 957 231 1011 q 211 901 231 924 q 165 878 191 878 q 125 892 141 878 q 109 935 109 907 m 356 935 q 375 988 356 966 q 426 1011 394 1011 q 478 957 478 1011 q 458 901 478 924 q 412 878 438 878 q 372 892 388 878 q 356 935 356 907 z "},"ð":{"ha":790,"x_min":61,"x_max":771,"o":"m 458 911 q 359 987 414 950 l 424 1067 q 551 962 504 1010 l 728 1061 l 771 990 l 608 900 q 694 737 667 822 q 721 554 721 652 q 672 251 721 382 q 535 53 624 119 q 323 -14 446 -14 q 131 57 200 -14 q 61 253 61 127 q 107 455 61 361 q 234 602 153 549 q 415 656 315 656 q 538 625 486 656 q 614 541 590 594 l 618 542 l 618 553 q 593 716 618 646 q 518 850 568 787 l 335 749 l 297 822 l 458 911 m 330 82 q 459 120 403 82 q 550 234 515 158 q 585 387 585 310 q 540 514 585 467 q 419 561 496 561 q 291 522 345 561 q 207 413 237 483 q 178 256 178 342 q 217 126 178 170 q 330 82 256 82 z "},"ñ":{"ha":802,"x_min":40,"x_max":749,"o":"m 494 0 l 595 469 q 608 567 608 540 q 584 635 608 610 q 507 661 560 661 q 390 621 447 661 q 289 505 332 580 q 222 322 245 429 l 154 0 l 40 0 l 199 743 l 293 743 l 278 606 l 285 606 q 411 723 350 688 q 536 757 471 757 q 672 710 623 757 q 722 578 722 663 q 707 456 722 524 l 610 0 l 494 0 m 591 843 q 538 855 564 843 q 489 881 513 867 q 442 908 465 896 q 397 920 419 920 q 350 900 368 920 q 318 842 333 881 l 250 842 q 407 1017 290 1017 q 464 1004 437 1017 q 514 978 490 992 q 559 951 538 963 q 599 939 581 939 q 646 957 629 939 q 681 1018 663 975 l 749 1018 q 591 843 704 843 z "},"ò":{"ha":779,"x_min":66,"x_max":714,"o":"m 436 753 q 640 676 565 753 q 714 467 714 600 q 665 226 714 339 q 533 51 616 113 q 345 -11 450 -11 q 140 66 214 -11 q 66 275 66 142 q 116 518 66 404 q 250 692 165 631 q 436 753 334 753 m 596 482 q 554 609 596 560 q 439 657 511 657 q 306 607 365 657 q 215 468 248 557 q 183 269 183 378 q 226 132 183 180 q 350 83 269 83 q 477 133 420 83 q 565 274 533 182 q 596 482 596 365 m 541 842 l 471 842 q 384 946 429 883 q 319 1050 338 1009 l 319 1064 l 441 1064 q 541 859 471 972 l 541 842 z "},"ó":{"ha":779,"x_min":66,"x_max":714,"o":"m 436 753 q 640 676 565 753 q 714 467 714 600 q 665 226 714 339 q 533 51 616 113 q 345 -11 450 -11 q 140 66 214 -11 q 66 275 66 142 q 116 518 66 404 q 250 692 165 631 q 436 753 334 753 m 596 482 q 554 609 596 560 q 439 657 511 657 q 306 607 365 657 q 215 468 248 557 q 183 269 183 378 q 226 132 183 180 q 350 83 269 83 q 477 133 420 83 q 565 274 533 182 q 596 482 596 365 m 399 860 q 485 963 437 901 q 557 1064 532 1025 l 686 1064 l 686 1050 q 591 947 660 1017 q 471 842 522 878 l 399 842 l 399 860 z "},"ô":{"ha":779,"x_min":66,"x_max":714,"o":"m 436 753 q 640 676 565 753 q 714 467 714 600 q 665 226 714 339 q 533 51 616 113 q 345 -11 450 -11 q 140 66 214 -11 q 66 275 66 142 q 116 518 66 404 q 250 692 165 631 q 436 753 334 753 m 596 482 q 554 609 596 560 q 439 657 511 657 q 306 607 365 657 q 215 468 248 557 q 183 269 183 378 q 226 132 183 180 q 350 83 269 83 q 477 133 420 83 q 565 274 533 182 q 596 482 596 365 m 676 842 l 606 842 q 497 970 568 874 q 333 842 406 889 l 259 842 l 259 860 q 398 994 357 950 q 454 1064 438 1038 l 561 1064 q 648 905 586 997 l 676 860 l 676 842 z "},"õ":{"ha":779,"x_min":66,"x_max":730,"o":"m 436 753 q 640 676 565 753 q 714 467 714 600 q 665 226 714 339 q 533 51 616 113 q 345 -11 450 -11 q 140 66 214 -11 q 66 275 66 142 q 116 518 66 404 q 250 692 165 631 q 436 753 334 753 m 596 482 q 554 609 596 560 q 439 657 511 657 q 306 607 365 657 q 215 468 248 557 q 183 269 183 378 q 226 132 183 180 q 350 83 269 83 q 477 133 420 83 q 565 274 533 182 q 596 482 596 365 m 572 843 q 520 855 545 843 q 470 881 494 867 q 424 908 446 896 q 379 920 401 920 q 332 900 349 920 q 300 842 315 881 l 232 842 q 389 1017 271 1017 q 445 1004 418 1017 q 496 978 472 992 q 541 951 520 963 q 581 939 562 939 q 628 957 610 939 q 663 1018 645 975 l 730 1018 q 572 843 686 843 z "},"ö":{"ha":779,"x_min":66,"x_max":714,"o":"m 436 753 q 640 676 565 753 q 714 467 714 600 q 665 226 714 339 q 533 51 616 113 q 345 -11 450 -11 q 140 66 214 -11 q 66 275 66 142 q 116 518 66 404 q 250 692 165 631 q 436 753 334 753 m 596 482 q 554 609 596 560 q 439 657 511 657 q 306 607 365 657 q 215 468 248 557 q 183 269 183 378 q 226 132 183 180 q 350 83 269 83 q 477 133 420 83 q 565 274 533 182 q 596 482 596 365 m 294 935 q 313 988 294 966 q 363 1011 332 1011 q 416 957 416 1011 q 396 901 416 924 q 349 878 376 878 q 310 892 326 878 q 294 935 294 907 m 541 935 q 559 988 541 966 q 610 1011 578 1011 q 663 957 663 1011 q 643 901 663 924 q 596 878 623 878 q 556 892 572 878 q 541 935 541 907 z "},"÷":{"ha":765,"x_min":86,"x_max":710,"o":"m 86 441 l 86 538 l 710 538 l 710 441 l 86 441 m 322 253 q 397 335 322 335 q 453 314 433 335 q 473 253 473 294 q 453 192 473 214 q 397 171 433 171 q 342 192 362 171 q 322 253 322 213 m 322 726 q 397 808 322 808 q 453 788 433 808 q 473 726 473 767 q 453 666 473 687 q 397 644 433 644 q 342 665 362 644 q 322 726 322 686 z "},"ø":{"ha":779,"x_min":41,"x_max":749,"o":"m 710 478 q 663 234 710 350 q 533 54 616 118 q 346 -11 450 -11 q 179 33 247 -11 l 113 -52 l 41 4 l 115 96 q 69 275 69 165 q 119 520 69 407 q 252 693 169 633 q 436 753 334 753 q 607 707 535 753 l 677 794 l 749 741 l 668 653 q 710 478 710 587 m 439 659 q 306 609 366 659 q 213 472 247 559 q 179 282 179 385 q 191 189 179 220 l 542 627 q 439 659 505 659 m 600 467 q 591 547 600 524 l 243 113 q 350 82 281 82 q 478 131 420 82 q 568 267 536 179 q 600 467 600 354 z "},"ù":{"ha":802,"x_min":77,"x_max":758,"o":"m 306 743 l 204 272 q 192 178 192 212 q 292 81 192 81 q 409 121 351 81 q 511 238 467 162 q 578 421 555 314 l 646 743 l 758 743 l 602 0 l 507 0 l 522 138 l 514 138 q 387 20 448 53 q 262 -14 327 -14 q 126 34 176 -14 q 77 168 77 81 q 92 285 77 210 l 191 743 l 306 743 m 543 842 l 472 842 q 385 946 431 883 q 320 1050 339 1009 l 320 1064 l 443 1064 q 543 859 472 972 l 543 842 z "},"ú":{"ha":802,"x_min":77,"x_max":758,"o":"m 306 743 l 204 272 q 192 178 192 212 q 292 81 192 81 q 409 121 351 81 q 511 238 467 162 q 578 421 555 314 l 646 743 l 758 743 l 602 0 l 507 0 l 522 138 l 514 138 q 387 20 448 53 q 262 -14 327 -14 q 126 34 176 -14 q 77 168 77 81 q 92 285 77 210 l 191 743 l 306 743 m 431 860 q 516 963 469 901 q 589 1064 564 1025 l 718 1064 l 718 1050 q 623 947 692 1017 q 503 842 553 878 l 431 842 l 431 860 z "},"û":{"ha":802,"x_min":77,"x_max":758,"o":"m 306 743 l 204 272 q 192 178 192 212 q 292 81 192 81 q 409 121 351 81 q 511 238 467 162 q 578 421 555 314 l 646 743 l 758 743 l 602 0 l 507 0 l 522 138 l 514 138 q 387 20 448 53 q 262 -14 327 -14 q 126 34 176 -14 q 77 168 77 81 q 92 285 77 210 l 191 743 l 306 743 m 694 842 l 625 842 q 515 970 586 874 q 351 842 425 889 l 277 842 l 277 860 q 416 994 376 950 q 472 1064 456 1038 l 579 1064 q 666 905 604 997 l 694 860 l 694 842 z "},"ü":{"ha":802,"x_min":77,"x_max":758,"o":"m 306 743 l 204 272 q 192 178 192 212 q 292 81 192 81 q 409 121 351 81 q 511 238 467 162 q 578 421 555 314 l 646 743 l 758 743 l 602 0 l 507 0 l 522 138 l 514 138 q 387 20 448 53 q 262 -14 327 -14 q 126 34 176 -14 q 77 168 77 81 q 92 285 77 210 l 191 743 l 306 743 m 310 935 q 329 988 310 966 q 379 1011 348 1011 q 432 957 432 1011 q 412 901 432 924 q 366 878 392 878 q 326 892 342 878 q 310 935 310 907 m 557 935 q 576 988 557 966 q 627 1011 595 1011 q 679 957 679 1011 q 659 901 679 924 q 612 878 639 878 q 573 892 589 878 q 557 935 557 907 z "},"ý":{"ha":642,"x_min":-134,"x_max":707,"o":"m 66 743 l 180 743 l 231 374 q 244 236 237 327 q 250 89 250 144 l 254 89 q 313 224 278 148 q 366 330 349 301 l 586 743 l 707 743 l 235 -126 q 110 -288 172 -243 q -39 -334 48 -334 q -134 -319 -87 -334 l -134 -228 q -45 -240 -91 -240 q 51 -206 11 -240 q 127 -104 90 -172 l 179 -12 l 66 743 m 339 860 q 424 963 377 901 q 496 1064 471 1025 l 625 1064 l 625 1050 q 530 947 600 1017 q 410 842 461 878 l 339 842 l 339 860 z "},"þ":{"ha":802,"x_min":-29,"x_max":733,"o":"m 370 -14 q 253 21 303 -14 q 176 115 203 56 l 170 115 q 153 -4 164 45 l 83 -334 l -29 -334 l 264 1055 l 378 1055 q 300 701 313 756 q 273 600 286 646 l 279 600 q 408 720 348 685 q 532 755 467 755 q 680 689 626 755 q 733 504 733 623 q 686 240 733 360 q 557 53 640 120 q 370 -14 474 -14 m 496 661 q 363 597 431 661 q 256 435 296 532 q 216 235 216 337 q 254 120 216 160 q 363 81 292 81 q 488 136 430 81 q 581 292 546 191 q 616 507 616 393 q 496 661 616 661 z "},"ÿ":{"ha":642,"x_min":-134,"x_max":707,"o":"m 66 743 l 180 743 l 231 374 q 244 236 237 327 q 250 89 250 144 l 254 89 q 313 224 278 148 q 366 330 349 301 l 586 743 l 707 743 l 235 -126 q 110 -288 172 -243 q -39 -334 48 -334 q -134 -319 -87 -334 l -134 -228 q -45 -240 -91 -240 q 51 -206 11 -240 q 127 -104 90 -172 l 179 -12 l 66 743 m 227 935 q 246 988 227 966 q 296 1011 265 1011 q 349 957 349 1011 q 329 901 349 924 q 283 878 309 878 q 243 892 259 878 q 227 935 227 907 m 474 935 q 493 988 474 966 q 544 1011 512 1011 q 596 957 596 1011 q 576 901 596 924 q 530 878 556 878 q 490 892 506 878 q 474 935 474 907 z "},"Ā":{"ha":771,"x_min":-79,"x_max":732,"o":"m 551 315 l 215 315 l 49 0 l -79 0 l 463 991 l 581 991 l 705 0 l 590 0 l 551 315 m 539 421 l 515 624 q 496 861 499 745 q 441 743 471 802 q 272 421 412 684 l 539 421 m 362 1166 l 732 1166 l 711 1071 l 342 1071 l 362 1166 z "},"ā":{"ha":785,"x_min":66,"x_max":760,"o":"m 433 757 q 545 723 496 757 q 621 627 593 690 l 628 627 l 673 743 l 760 743 l 602 0 l 511 0 l 529 142 l 524 142 q 268 -14 402 -14 q 120 54 174 -14 q 66 237 66 121 q 115 499 66 378 q 248 688 163 620 q 433 757 332 757 m 304 81 q 435 143 370 81 q 541 307 500 206 q 582 509 582 408 q 544 620 582 578 q 444 661 506 661 q 313 603 374 661 q 218 445 252 545 q 183 235 183 345 q 215 119 183 157 q 304 81 247 81 m 319 937 l 689 937 l 668 842 l 299 842 l 319 937 z "},"Ă":{"ha":771,"x_min":-79,"x_max":747,"o":"m 551 315 l 215 315 l 49 0 l -79 0 l 463 991 l 581 991 l 705 0 l 590 0 l 551 315 m 539 421 l 515 624 q 496 861 499 745 q 441 743 471 802 q 272 421 412 684 l 539 421 m 747 1253 q 669 1115 724 1159 q 525 1071 614 1071 q 402 1111 448 1071 q 357 1223 357 1152 l 357 1238 l 358 1253 l 425 1253 q 450 1190 425 1213 q 537 1168 475 1168 q 675 1253 652 1168 l 747 1253 z "},"ă":{"ha":785,"x_min":66,"x_max":760,"o":"m 433 757 q 545 723 496 757 q 621 627 593 690 l 628 627 l 673 743 l 760 743 l 602 0 l 511 0 l 529 142 l 524 142 q 268 -14 402 -14 q 120 54 174 -14 q 66 237 66 121 q 115 499 66 378 q 248 688 163 620 q 433 757 332 757 m 304 81 q 435 143 370 81 q 541 307 500 206 q 582 509 582 408 q 544 620 582 578 q 444 661 506 661 q 313 603 374 661 q 218 445 252 545 q 183 235 183 345 q 215 119 183 157 q 304 81 247 81 m 714 1023 q 636 886 691 930 q 492 842 581 842 q 369 882 415 842 q 323 994 323 922 l 323 1008 l 325 1023 l 391 1023 q 416 961 391 983 q 504 939 441 939 q 642 1023 618 939 l 714 1023 z "},"Ą":{"ha":771,"x_min":-79,"x_max":705,"o":"m 551 315 l 215 315 l 49 0 l -79 0 l 463 991 l 581 991 l 705 0 l 590 0 l 551 315 m 539 421 l 515 624 q 496 861 499 745 q 441 743 471 802 q 272 421 412 684 l 539 421 m 676 0 q 597 -69 621 -44 q 561 -120 574 -94 q 547 -175 547 -146 q 594 -222 547 -222 q 648 -216 621 -222 l 648 -289 q 574 -298 620 -298 q 485 -270 517 -298 q 453 -189 453 -242 q 467 -123 453 -153 q 509 -66 481 -93 q 597 0 536 -39 l 676 0 z "},"ą":{"ha":785,"x_min":66,"x_max":760,"o":"m 433 757 q 545 723 496 757 q 621 627 593 690 l 628 627 l 673 743 l 760 743 l 602 0 l 511 0 l 529 142 l 524 142 q 268 -14 402 -14 q 120 54 174 -14 q 66 237 66 121 q 115 499 66 378 q 248 688 163 620 q 433 757 332 757 m 304 81 q 435 143 370 81 q 541 307 500 206 q 582 509 582 408 q 544 620 582 578 q 444 661 506 661 q 313 603 374 661 q 218 445 252 545 q 183 235 183 345 q 215 119 183 157 q 304 81 247 81 m 586 0 q 507 -69 530 -44 q 471 -120 484 -94 q 457 -175 457 -146 q 504 -222 457 -222 q 558 -216 530 -222 l 558 -289 q 484 -298 530 -298 q 395 -270 427 -298 q 363 -189 363 -242 q 377 -123 363 -153 q 418 -66 391 -93 q 507 0 446 -39 l 586 0 z "},"Ć":{"ha":812,"x_min":102,"x_max":875,"o":"m 639 903 q 428 837 521 903 q 280 644 334 771 q 225 367 225 517 q 291 164 225 240 q 473 89 357 89 q 692 127 568 89 l 692 26 q 581 -4 633 5 q 453 -14 528 -14 q 195 88 289 -14 q 102 364 102 189 q 173 693 102 541 q 366 926 245 846 q 639 1006 486 1006 q 875 951 772 1006 l 828 856 q 639 903 734 903 m 573 1089 q 658 1192 611 1130 q 730 1293 705 1254 l 859 1293 l 859 1279 q 764 1177 833 1246 q 644 1071 695 1107 l 573 1071 l 573 1089 z "},"ć":{"ha":625,"x_min":66,"x_max":694,"o":"m 343 -14 q 139 59 212 -14 q 66 264 66 132 q 117 514 66 399 q 255 693 167 629 q 454 757 344 757 q 636 722 547 757 l 604 627 q 456 661 523 661 q 317 609 380 661 q 219 465 254 557 q 183 264 183 372 q 228 129 183 177 q 353 81 273 81 q 445 94 401 81 q 530 126 488 108 l 530 29 q 343 -14 446 -14 m 408 860 q 493 963 446 901 q 566 1064 541 1025 l 694 1064 l 694 1050 q 600 947 669 1017 q 479 842 530 878 l 408 842 l 408 860 z "},"Ĉ":{"ha":812,"x_min":102,"x_max":875,"o":"m 639 903 q 428 837 521 903 q 280 644 334 771 q 225 367 225 517 q 291 164 225 240 q 473 89 357 89 q 692 127 568 89 l 692 26 q 581 -4 633 5 q 453 -14 528 -14 q 195 88 289 -14 q 102 364 102 189 q 173 693 102 541 q 366 926 245 846 q 639 1006 486 1006 q 875 951 772 1006 l 828 856 q 639 903 734 903 m 832 1071 l 762 1071 q 653 1199 724 1103 q 489 1071 562 1118 l 415 1071 l 415 1089 q 554 1223 513 1179 q 610 1293 594 1267 l 717 1293 q 804 1134 742 1226 l 832 1089 l 832 1071 z "},"ĉ":{"ha":625,"x_min":66,"x_max":654,"o":"m 343 -14 q 139 59 212 -14 q 66 264 66 132 q 117 514 66 399 q 255 693 167 629 q 454 757 344 757 q 636 722 547 757 l 604 627 q 456 661 523 661 q 317 609 380 661 q 219 465 254 557 q 183 264 183 372 q 228 129 183 177 q 353 81 273 81 q 445 94 401 81 q 530 126 488 108 l 530 29 q 343 -14 446 -14 m 654 842 l 584 842 q 475 970 545 874 q 311 842 384 889 l 237 842 l 237 860 q 375 994 335 950 q 431 1064 416 1038 l 538 1064 q 625 905 564 997 l 654 860 l 654 842 z "},"Ċ":{"ha":812,"x_min":102,"x_max":875,"o":"m 639 903 q 428 837 521 903 q 280 644 334 771 q 225 367 225 517 q 291 164 225 240 q 473 89 357 89 q 692 127 568 89 l 692 26 q 581 -4 633 5 q 453 -14 528 -14 q 195 88 289 -14 q 102 364 102 189 q 173 693 102 541 q 366 926 245 846 q 639 1006 486 1006 q 875 951 772 1006 l 828 856 q 639 903 734 903 m 557 1162 q 579 1223 557 1198 q 635 1249 601 1249 q 694 1187 694 1249 q 672 1124 694 1150 q 620 1099 649 1099 q 576 1115 594 1099 q 557 1162 557 1132 z "},"ċ":{"ha":625,"x_min":66,"x_max":636,"o":"m 343 -14 q 139 59 212 -14 q 66 264 66 132 q 117 514 66 399 q 255 693 167 629 q 454 757 344 757 q 636 722 547 757 l 604 627 q 456 661 523 661 q 317 609 380 661 q 219 465 254 557 q 183 264 183 372 q 228 129 183 177 q 353 81 273 81 q 445 94 401 81 q 530 126 488 108 l 530 29 q 343 -14 446 -14 m 410 933 q 432 994 410 969 q 488 1019 454 1019 q 547 958 547 1019 q 525 895 547 921 q 473 869 502 869 q 429 886 447 869 q 410 933 410 903 z "},"Č":{"ha":812,"x_min":102,"x_max":875,"o":"m 639 903 q 428 837 521 903 q 280 644 334 771 q 225 367 225 517 q 291 164 225 240 q 473 89 357 89 q 692 127 568 89 l 692 26 q 581 -4 633 5 q 453 -14 528 -14 q 195 88 289 -14 q 102 364 102 189 q 173 693 102 541 q 366 926 245 846 q 639 1006 486 1006 q 875 951 772 1006 l 828 856 q 639 903 734 903 m 429 1293 l 497 1293 q 552 1238 525 1272 q 607 1165 578 1204 q 774 1293 690 1239 l 846 1293 l 846 1275 q 730 1164 787 1223 q 652 1071 673 1106 l 543 1071 q 458 1230 520 1135 l 429 1275 l 429 1293 z "},"č":{"ha":625,"x_min":66,"x_max":689,"o":"m 343 -14 q 139 59 212 -14 q 66 264 66 132 q 117 514 66 399 q 255 693 167 629 q 454 757 344 757 q 636 722 547 757 l 604 627 q 456 661 523 661 q 317 609 380 661 q 219 465 254 557 q 183 264 183 372 q 228 129 183 177 q 353 81 273 81 q 445 94 401 81 q 530 126 488 108 l 530 29 q 343 -14 446 -14 m 273 1064 l 340 1064 q 395 1008 368 1042 q 450 936 422 975 q 617 1064 534 1010 l 689 1064 l 689 1046 q 573 935 630 994 q 495 842 517 877 l 387 842 q 302 1001 363 906 l 273 1046 l 273 1064 z "},"Ď":{"ha":925,"x_min":58,"x_max":882,"o":"m 882 595 q 810 282 882 418 q 607 73 739 146 q 297 0 475 0 l 58 0 l 268 991 l 500 991 q 784 890 687 991 q 882 595 882 789 m 304 100 q 545 162 441 100 q 704 337 649 224 q 760 596 760 450 q 690 817 760 742 q 485 892 620 892 l 364 892 l 195 100 l 304 100 m 380 1293 l 448 1293 q 503 1238 476 1272 q 558 1165 530 1204 q 725 1293 642 1239 l 797 1293 l 797 1275 q 681 1164 738 1223 q 603 1071 625 1106 l 494 1071 q 410 1230 471 1135 l 380 1275 l 380 1293 z "},"ď":{"ha":802,"x_min":66,"x_max":1053,"o":"m 433 755 q 624 627 565 755 l 631 627 q 661 812 642 732 l 714 1055 l 827 1055 l 603 0 l 509 0 l 524 142 l 518 142 q 390 22 450 57 q 267 -14 330 -14 q 119 53 172 -14 q 66 237 66 119 q 115 503 66 382 q 247 690 164 624 q 433 755 330 755 m 304 81 q 436 144 368 81 q 544 306 504 208 q 583 507 583 405 q 547 622 583 583 q 440 661 510 661 q 313 605 372 661 q 219 448 254 549 q 183 235 183 347 q 304 81 183 81 m 843 851 q 900 954 868 888 q 945 1055 932 1019 l 1053 1055 l 1053 1042 q 991 937 1039 1004 q 905 833 943 869 l 843 833 l 843 851 z "},"Đ":{"ha":925,"x_min":49,"x_max":882,"o":"m 882 595 q 810 282 882 418 q 607 73 739 146 q 297 0 475 0 l 58 0 l 150 440 l 49 440 l 71 542 l 172 542 l 268 991 l 500 991 q 784 890 687 991 q 882 595 882 789 m 304 100 q 545 162 441 100 q 704 337 649 224 q 760 596 760 450 q 690 817 760 742 q 485 892 620 892 l 364 892 l 289 542 l 513 542 l 490 440 l 267 440 l 195 100 l 304 100 z "},"đ":{"ha":802,"x_min":66,"x_max":900,"o":"m 431 761 q 546 727 496 761 q 624 632 596 693 l 631 632 l 638 691 l 648 755 l 667 842 l 414 842 l 432 929 l 688 929 l 714 1055 l 827 1055 l 799 929 l 900 929 l 882 842 l 781 842 l 603 0 l 509 0 l 524 142 l 518 142 q 390 22 450 57 q 267 -14 330 -14 q 119 53 172 -14 q 66 237 66 119 q 113 502 66 382 q 242 692 159 623 q 431 761 326 761 m 304 81 q 436 146 368 81 q 544 310 505 212 q 583 511 583 409 q 545 627 583 587 q 437 667 507 667 q 310 610 368 667 q 218 452 253 553 q 183 235 183 351 q 304 81 183 81 z "},"Ē":{"ha":710,"x_min":58,"x_max":766,"o":"m 557 0 l 58 0 l 268 991 l 766 991 l 745 888 l 361 888 l 294 570 l 652 570 l 632 467 l 273 467 l 196 103 l 579 103 l 557 0 m 357 1166 l 726 1166 l 705 1071 l 336 1071 l 357 1166 z "},"ē":{"ha":685,"x_min":66,"x_max":665,"o":"m 334 -14 q 138 60 209 -14 q 66 265 66 134 q 117 510 66 393 q 251 692 168 627 q 435 757 334 757 q 591 712 538 757 q 643 586 643 667 q 530 394 643 464 q 208 325 418 325 l 186 325 l 183 271 q 225 132 183 182 q 354 82 267 82 q 442 94 397 82 q 554 139 487 106 l 554 40 q 441 -2 490 10 q 334 -14 393 -14 m 428 660 q 297 596 358 660 q 203 419 235 532 l 211 419 q 448 459 366 419 q 530 576 530 500 q 506 636 530 612 q 428 660 481 660 m 296 937 l 665 937 l 644 842 l 275 842 l 296 937 z "},"Ĕ":{"ha":710,"x_min":58,"x_max":766,"o":"m 557 0 l 58 0 l 268 991 l 766 991 l 745 888 l 361 888 l 294 570 l 652 570 l 632 467 l 273 467 l 196 103 l 579 103 l 557 0 m 754 1253 q 676 1115 731 1159 q 532 1071 621 1071 q 409 1111 455 1071 q 363 1223 363 1152 l 363 1238 l 365 1253 l 431 1253 q 456 1190 431 1213 q 544 1168 481 1168 q 682 1253 659 1168 l 754 1253 z "},"ĕ":{"ha":685,"x_min":66,"x_max":682,"o":"m 334 -14 q 138 60 209 -14 q 66 265 66 134 q 117 510 66 393 q 251 692 168 627 q 435 757 334 757 q 591 712 538 757 q 643 586 643 667 q 530 394 643 464 q 208 325 418 325 l 186 325 l 183 271 q 225 132 183 182 q 354 82 267 82 q 442 94 397 82 q 554 139 487 106 l 554 40 q 441 -2 490 10 q 334 -14 393 -14 m 428 660 q 297 596 358 660 q 203 419 235 532 l 211 419 q 448 459 366 419 q 530 576 530 500 q 506 636 530 612 q 428 660 481 660 m 682 1023 q 604 886 659 930 q 459 842 549 842 q 337 882 382 842 q 291 994 291 922 l 291 1008 l 292 1023 l 359 1023 q 384 961 359 983 q 471 939 409 939 q 609 1023 586 939 l 682 1023 z "},"Ė":{"ha":710,"x_min":58,"x_max":766,"o":"m 557 0 l 58 0 l 268 991 l 766 991 l 745 888 l 361 888 l 294 570 l 652 570 l 632 467 l 273 467 l 196 103 l 579 103 l 557 0 m 456 1143 q 477 1204 456 1179 q 533 1229 499 1229 q 593 1168 593 1229 q 570 1105 593 1131 q 518 1079 547 1079 q 474 1096 492 1079 q 456 1143 456 1112 z "},"ė":{"ha":685,"x_min":66,"x_max":643,"o":"m 334 -14 q 138 60 209 -14 q 66 265 66 134 q 117 510 66 393 q 251 692 168 627 q 435 757 334 757 q 591 712 538 757 q 643 586 643 667 q 530 394 643 464 q 208 325 418 325 l 186 325 l 183 271 q 225 132 183 182 q 354 82 267 82 q 442 94 397 82 q 554 139 487 106 l 554 40 q 441 -2 490 10 q 334 -14 393 -14 m 428 660 q 297 596 358 660 q 203 419 235 532 l 211 419 q 448 459 366 419 q 530 576 530 500 q 506 636 530 612 q 428 660 481 660 m 396 933 q 418 994 396 969 q 473 1019 439 1019 q 533 958 533 1019 q 510 895 533 921 q 458 869 488 869 q 414 886 433 869 q 396 933 396 903 z "},"Ę":{"ha":710,"x_min":58,"x_max":766,"o":"m 557 0 l 58 0 l 268 991 l 766 991 l 745 888 l 361 888 l 294 570 l 652 570 l 632 467 l 273 467 l 196 103 l 579 103 l 557 0 m 524 0 q 445 -69 468 -44 q 408 -120 422 -94 q 395 -175 395 -146 q 441 -222 395 -222 q 496 -216 468 -222 l 496 -289 q 421 -298 467 -298 q 333 -270 365 -298 q 300 -189 300 -242 q 315 -123 300 -153 q 356 -66 329 -93 q 445 0 383 -39 l 524 0 z "},"ę":{"ha":685,"x_min":66,"x_max":643,"o":"m 334 -14 q 138 60 209 -14 q 66 265 66 134 q 117 510 66 393 q 251 692 168 627 q 435 757 334 757 q 591 712 538 757 q 643 586 643 667 q 530 394 643 464 q 208 325 418 325 l 186 325 l 183 271 q 225 132 183 182 q 354 82 267 82 q 442 94 397 82 q 554 139 487 106 l 554 40 q 441 -2 490 10 q 334 -14 393 -14 m 428 660 q 297 596 358 660 q 203 419 235 532 l 211 419 q 448 459 366 419 q 530 576 530 500 q 506 636 530 612 q 428 660 481 660 m 494 21 q 416 -48 439 -23 q 379 -99 393 -73 q 366 -154 366 -125 q 412 -201 366 -201 q 467 -195 439 -201 l 467 -268 q 392 -277 438 -277 q 303 -249 336 -277 q 271 -168 271 -221 q 286 -102 271 -132 q 327 -45 300 -72 q 416 21 354 -18 l 494 21 z "},"Ě":{"ha":710,"x_min":58,"x_max":766,"o":"m 557 0 l 58 0 l 268 991 l 766 991 l 745 888 l 361 888 l 294 570 l 652 570 l 632 467 l 273 467 l 196 103 l 579 103 l 557 0 m 349 1293 l 416 1293 q 471 1238 444 1272 q 526 1165 498 1204 q 693 1293 610 1239 l 765 1293 l 765 1275 q 649 1164 706 1223 q 571 1071 593 1106 l 463 1071 q 378 1230 439 1135 l 349 1275 l 349 1293 z "},"ě":{"ha":685,"x_min":66,"x_max":691,"o":"m 334 -14 q 138 60 209 -14 q 66 265 66 134 q 117 510 66 393 q 251 692 168 627 q 435 757 334 757 q 591 712 538 757 q 643 586 643 667 q 530 394 643 464 q 208 325 418 325 l 186 325 l 183 271 q 225 132 183 182 q 354 82 267 82 q 442 94 397 82 q 554 139 487 106 l 554 40 q 441 -2 490 10 q 334 -14 393 -14 m 428 660 q 297 596 358 660 q 203 419 235 532 l 211 419 q 448 459 366 419 q 530 576 530 500 q 506 636 530 612 q 428 660 481 660 m 275 1064 l 342 1064 q 397 1008 370 1042 q 452 936 424 975 q 619 1064 536 1010 l 691 1064 l 691 1046 q 575 935 632 994 q 497 842 519 877 l 389 842 q 304 1001 366 906 l 275 1046 l 275 1064 z "},"Ĝ":{"ha":940,"x_min":102,"x_max":921,"o":"m 557 519 l 868 519 l 764 37 q 479 -14 617 -14 q 201 84 300 -14 q 102 358 102 182 q 171 690 102 541 q 361 923 239 840 q 632 1006 484 1006 q 781 992 711 1006 q 921 949 850 979 l 876 846 q 764 886 824 869 q 632 903 704 903 q 424 834 517 903 q 277 642 330 765 q 225 366 225 518 q 295 163 225 237 q 489 89 364 89 q 665 115 593 89 l 730 416 l 534 416 l 557 519 m 827 1071 l 757 1071 q 648 1199 718 1103 q 484 1071 557 1118 l 410 1071 l 410 1089 q 548 1223 508 1179 q 604 1293 589 1267 l 711 1293 q 798 1134 736 1226 l 827 1089 l 827 1071 z "},"ĝ":{"ha":696,"x_min":-86,"x_max":746,"o":"m 746 743 l 729 671 l 586 654 q 614 547 614 612 q 535 341 614 418 q 323 264 456 264 q 267 269 286 264 q 172 180 172 233 q 195 143 172 153 q 260 129 217 134 l 339 119 q 517 60 462 104 q 572 -72 572 15 q 473 -265 572 -197 q 195 -334 374 -334 q -12 -284 63 -334 q -86 -143 -86 -234 q -37 -20 -86 -72 q 121 69 12 33 q 68 151 68 97 q 102 232 68 198 q 199 294 137 265 q 129 358 156 316 q 102 457 102 401 q 183 673 102 589 q 390 757 264 757 q 494 743 443 757 l 746 743 m 24 -132 q 68 -215 24 -184 q 199 -245 112 -245 q 392 -202 322 -245 q 461 -81 461 -159 q 425 -14 461 -39 q 300 20 388 10 l 192 31 q 67 -29 111 14 q 24 -132 24 -72 m 212 461 q 243 373 212 404 q 328 343 273 343 q 421 372 381 343 q 483 450 461 400 q 504 558 504 500 q 474 643 504 614 q 389 672 444 672 q 296 645 336 672 q 234 568 256 617 q 212 461 212 519 m 646 842 l 576 842 q 467 970 537 874 q 302 842 376 889 l 229 842 l 229 860 q 367 994 327 950 q 423 1064 408 1038 l 530 1064 q 617 905 555 997 l 646 860 l 646 842 z "},"Ğ":{"ha":940,"x_min":102,"x_max":921,"o":"m 557 519 l 868 519 l 764 37 q 479 -14 617 -14 q 201 84 300 -14 q 102 358 102 182 q 171 690 102 541 q 361 923 239 840 q 632 1006 484 1006 q 781 992 711 1006 q 921 949 850 979 l 876 846 q 764 886 824 869 q 632 903 704 903 q 424 834 517 903 q 277 642 330 765 q 225 366 225 518 q 295 163 225 237 q 489 89 364 89 q 665 115 593 89 l 730 416 l 534 416 l 557 519 m 839 1253 q 761 1115 816 1159 q 616 1071 706 1071 q 494 1111 540 1071 q 448 1223 448 1152 l 448 1238 l 450 1253 l 516 1253 q 541 1190 516 1213 q 629 1168 566 1168 q 766 1253 743 1168 l 839 1253 z "},"ğ":{"ha":696,"x_min":-86,"x_max":746,"o":"m 746 743 l 729 671 l 586 654 q 614 547 614 612 q 535 341 614 418 q 323 264 456 264 q 267 269 286 264 q 172 180 172 233 q 195 143 172 153 q 260 129 217 134 l 339 119 q 517 60 462 104 q 572 -72 572 15 q 473 -265 572 -197 q 195 -334 374 -334 q -12 -284 63 -334 q -86 -143 -86 -234 q -37 -20 -86 -72 q 121 69 12 33 q 68 151 68 97 q 102 232 68 198 q 199 294 137 265 q 129 358 156 316 q 102 457 102 401 q 183 673 102 589 q 390 757 264 757 q 494 743 443 757 l 746 743 m 24 -132 q 68 -215 24 -184 q 199 -245 112 -245 q 392 -202 322 -245 q 461 -81 461 -159 q 425 -14 461 -39 q 300 20 388 10 l 192 31 q 67 -29 111 14 q 24 -132 24 -72 m 212 461 q 243 373 212 404 q 328 343 273 343 q 421 372 381 343 q 483 450 461 400 q 504 558 504 500 q 474 643 504 614 q 389 672 444 672 q 296 645 336 672 q 234 568 256 617 q 212 461 212 519 m 665 1023 q 587 886 642 930 q 442 842 532 842 q 320 882 366 842 q 274 994 274 922 l 274 1008 l 275 1023 l 342 1023 q 367 961 342 983 q 454 939 392 939 q 592 1023 569 939 l 665 1023 z "},"Ġ":{"ha":940,"x_min":102,"x_max":921,"o":"m 557 519 l 868 519 l 764 37 q 479 -14 617 -14 q 201 84 300 -14 q 102 358 102 182 q 171 690 102 541 q 361 923 239 840 q 632 1006 484 1006 q 781 992 711 1006 q 921 949 850 979 l 876 846 q 764 886 824 869 q 632 903 704 903 q 424 834 517 903 q 277 642 330 765 q 225 366 225 518 q 295 163 225 237 q 489 89 364 89 q 665 115 593 89 l 730 416 l 534 416 l 557 519 m 567 1162 q 589 1223 567 1198 q 644 1249 610 1249 q 704 1187 704 1249 q 681 1124 704 1150 q 629 1099 659 1099 q 585 1115 604 1099 q 567 1162 567 1132 z "},"ġ":{"ha":696,"x_min":-86,"x_max":746,"o":"m 746 743 l 729 671 l 586 654 q 614 547 614 612 q 535 341 614 418 q 323 264 456 264 q 267 269 286 264 q 172 180 172 233 q 195 143 172 153 q 260 129 217 134 l 339 119 q 517 60 462 104 q 572 -72 572 15 q 473 -265 572 -197 q 195 -334 374 -334 q -12 -284 63 -334 q -86 -143 -86 -234 q -37 -20 -86 -72 q 121 69 12 33 q 68 151 68 97 q 102 232 68 198 q 199 294 137 265 q 129 358 156 316 q 102 457 102 401 q 183 673 102 589 q 390 757 264 757 q 494 743 443 757 l 746 743 m 24 -132 q 68 -215 24 -184 q 199 -245 112 -245 q 392 -202 322 -245 q 461 -81 461 -159 q 425 -14 461 -39 q 300 20 388 10 l 192 31 q 67 -29 111 14 q 24 -132 24 -72 m 212 461 q 243 373 212 404 q 328 343 273 343 q 421 372 381 343 q 483 450 461 400 q 504 558 504 500 q 474 643 504 614 q 389 672 444 672 q 296 645 336 672 q 234 568 256 617 q 212 461 212 519 m 414 933 q 436 994 414 969 q 492 1019 458 1019 q 551 958 551 1019 q 529 895 551 921 q 477 869 506 869 q 433 886 451 869 q 414 933 414 903 z "},"Ģ":{"ha":940,"x_min":102,"x_max":921,"o":"m 557 519 l 868 519 l 764 37 q 479 -14 617 -14 q 201 84 300 -14 q 102 358 102 182 q 171 690 102 541 q 361 923 239 840 q 632 1006 484 1006 q 781 992 711 1006 q 921 949 850 979 l 876 846 q 764 886 824 869 q 632 903 704 903 q 424 834 517 903 q 277 642 330 765 q 225 366 225 518 q 295 163 225 237 q 489 89 364 89 q 665 115 593 89 l 730 416 l 534 416 l 557 519 m 310 -289 q 361 -197 331 -256 q 410 -85 391 -138 l 518 -85 l 518 -98 q 457 -204 503 -138 q 372 -307 411 -270 l 310 -307 l 310 -289 z "},"ģ":{"ha":696,"x_min":-86,"x_max":746,"o":"m 746 743 l 729 671 l 586 654 q 614 547 614 612 q 535 341 614 418 q 323 264 456 264 q 267 269 286 264 q 172 180 172 233 q 195 143 172 153 q 260 129 217 134 l 339 119 q 517 60 462 104 q 572 -72 572 15 q 473 -265 572 -197 q 195 -334 374 -334 q -12 -284 63 -334 q -86 -143 -86 -234 q -37 -20 -86 -72 q 121 69 12 33 q 68 151 68 97 q 102 232 68 198 q 199 294 137 265 q 129 358 156 316 q 102 457 102 401 q 183 673 102 589 q 390 757 264 757 q 494 743 443 757 l 746 743 m 24 -132 q 68 -215 24 -184 q 199 -245 112 -245 q 392 -202 322 -245 q 461 -81 461 -159 q 425 -14 461 -39 q 300 20 388 10 l 192 31 q 67 -29 111 14 q 24 -132 24 -72 m 212 461 q 243 373 212 404 q 328 343 273 343 q 421 372 381 343 q 483 450 461 400 q 504 558 504 500 q 474 643 504 614 q 389 672 444 672 q 296 645 336 672 q 234 568 256 617 q 212 461 212 519 m 629 1046 q 574 944 605 1009 q 530 842 543 880 l 421 842 l 421 856 q 479 955 432 887 q 567 1064 526 1023 l 629 1064 l 629 1046 z "},"Ĥ":{"ha":942,"x_min":58,"x_max":946,"o":"m 736 0 l 623 0 l 720 467 l 272 467 l 174 0 l 58 0 l 268 991 l 383 991 l 294 570 l 742 570 l 832 991 l 946 991 l 736 0 m 814 1071 l 744 1071 q 635 1199 705 1103 q 471 1071 544 1118 l 397 1071 l 397 1089 q 535 1223 495 1179 q 591 1293 576 1267 l 699 1293 q 785 1134 724 1226 l 814 1089 l 814 1071 z "},"ĥ":{"ha":802,"x_min":40,"x_max":729,"o":"m 494 0 l 595 469 q 607 561 607 533 q 507 661 607 661 q 390 621 447 661 q 289 505 332 581 q 222 321 245 429 l 154 0 l 40 0 l 264 1055 l 378 1055 q 354 947 366 1000 q 331 841 343 895 q 306 728 319 787 q 273 600 292 669 l 281 600 q 407 720 345 684 q 536 755 469 755 q 674 707 625 755 q 722 568 722 658 q 707 456 722 526 q 608 0 680 325 l 494 0 m 729 1108 l 659 1108 q 550 1236 621 1141 q 386 1108 459 1156 l 312 1108 l 312 1126 q 451 1260 410 1217 q 507 1331 491 1304 l 614 1331 q 701 1171 639 1263 l 729 1126 l 729 1108 z "},"Ħ":{"ha":942,"x_min":58,"x_max":1040,"o":"m 914 822 l 1040 822 l 1021 725 l 892 725 l 739 0 l 623 0 l 720 467 l 272 467 l 174 0 l 58 0 l 211 725 l 85 725 l 106 822 l 232 822 l 268 991 l 383 991 l 347 822 l 794 822 l 832 991 l 949 991 l 914 822 m 742 570 l 775 725 l 326 725 l 294 570 l 742 570 z "},"ħ":{"ha":802,"x_min":40,"x_max":720,"o":"m 494 0 l 593 460 q 606 551 606 520 q 505 654 606 654 q 388 614 446 654 q 286 497 330 573 q 220 314 242 420 l 154 0 l 40 0 l 220 842 l 117 842 l 136 929 l 237 929 l 264 1055 l 378 1055 l 350 929 l 587 929 l 568 842 l 332 842 l 272 593 l 279 593 q 533 749 391 749 q 672 699 624 749 q 720 558 720 649 q 704 446 720 519 l 608 0 l 494 0 z "},"ĩ":{"ha":353,"x_min":40,"x_max":541,"o":"m 154 0 l 40 0 l 199 743 l 313 743 l 154 0 m 383 843 q 331 855 356 843 q 281 881 305 867 q 234 908 257 896 q 190 920 212 920 q 143 900 160 920 q 111 842 125 881 l 43 842 q 199 1017 82 1017 q 256 1004 229 1017 q 307 978 283 992 q 352 951 331 963 q 391 939 373 939 q 438 957 421 939 q 473 1018 456 975 l 541 1018 q 383 843 496 843 z "},"ī":{"ha":353,"x_min":40,"x_max":477,"o":"m 154 0 l 40 0 l 199 743 l 313 743 l 154 0 m 107 937 l 477 937 l 456 842 l 87 842 l 107 937 z "},"ĭ":{"ha":353,"x_min":40,"x_max":494,"o":"m 154 0 l 40 0 l 199 743 l 313 743 l 154 0 m 494 1023 q 416 886 471 930 q 271 842 361 842 q 149 882 195 842 q 103 994 103 922 l 103 1008 l 104 1023 l 171 1023 q 196 961 171 983 q 283 939 221 939 q 421 1023 398 939 l 494 1023 z "},"į":{"ha":353,"x_min":-69,"x_max":368,"o":"m 154 0 l 40 0 l 199 743 l 313 743 l 154 0 m 231 933 q 252 995 231 971 q 309 1019 274 1019 q 368 958 368 1019 q 346 895 368 921 q 293 869 323 869 q 248 886 266 869 q 231 933 231 903 m 154 0 q 75 -69 98 -44 q 39 -120 52 -94 q 25 -175 25 -146 q 72 -222 25 -222 q 126 -216 98 -222 l 126 -289 q 52 -298 98 -298 q -37 -270 -5 -298 q -69 -189 -69 -242 q -55 -123 -69 -153 q -14 -66 -41 -93 q 75 0 14 -39 l 154 0 z "},"ı":{"ha":353,"x_min":40,"x_max":313,"o":"m 154 0 l 40 0 l 199 743 l 313 743 l 154 0 z "},"ĳ":{"ha":705,"x_min":40,"x_max":720,"o":"m 154 0 l 40 0 l 199 743 l 313 743 l 154 0 m 231 933 q 252 995 231 971 q 309 1019 274 1019 q 368 958 368 1019 q 346 895 368 921 q 293 869 323 869 q 248 886 266 869 q 231 933 231 903 m 261 -334 q 178 -319 214 -334 l 178 -224 q 258 -239 219 -239 q 372 -100 343 -239 l 551 743 l 664 743 l 484 -110 q 406 -280 459 -226 q 261 -334 353 -334 m 583 933 q 605 995 583 971 q 661 1019 627 1019 q 720 958 720 1019 q 697 895 720 921 q 644 869 674 869 q 601 886 618 869 q 583 933 583 903 z "},"Ĵ":{"ha":371,"x_min":-216,"x_max":540,"o":"m -113 -261 q -216 -244 -184 -261 l -212 -144 q -114 -158 -165 -158 q -2 -116 -46 -158 q 60 8 43 -73 l 268 991 l 383 991 l 174 -4 q -113 -261 120 -261 m 540 1071 l 470 1071 q 361 1199 431 1103 q 197 1071 270 1118 l 123 1071 l 123 1089 q 261 1223 221 1179 q 317 1293 302 1267 l 425 1293 q 511 1134 450 1226 l 540 1089 l 540 1071 z "},"ĵ":{"ha":353,"x_min":-175,"x_max":475,"o":"m -92 -334 q -175 -319 -138 -334 l -175 -224 q -94 -239 -134 -239 q 20 -100 -9 -239 l 199 743 l 311 743 l 131 -110 q 53 -280 106 -226 q -92 -334 0 -334 m 475 842 l 405 842 q 296 970 366 874 q 132 842 205 889 l 58 842 l 58 860 q 196 994 156 950 q 252 1064 237 1038 l 359 1064 q 446 905 385 997 l 475 860 l 475 842 z "},"Ķ":{"ha":774,"x_min":58,"x_max":897,"o":"m 701 0 l 575 0 q 476 244 526 123 q 376 489 425 365 l 258 400 l 174 0 l 58 0 l 268 991 l 383 991 l 281 510 l 755 991 l 897 991 l 464 559 l 701 0 m 203 -289 q 254 -197 224 -256 q 302 -85 283 -138 l 411 -85 l 411 -98 q 350 -204 396 -138 q 265 -307 304 -270 l 203 -307 l 203 -289 z "},"ķ":{"ha":677,"x_min":39,"x_max":717,"o":"m 224 379 l 581 743 l 717 743 l 399 427 l 599 0 l 472 0 l 313 355 l 210 272 l 154 0 l 39 0 l 262 1055 l 378 1055 q 290 647 329 827 q 221 379 252 467 l 224 379 m 153 -289 q 204 -197 174 -256 q 253 -85 234 -138 l 361 -85 l 361 -98 q 300 -204 347 -138 q 216 -307 254 -270 l 153 -307 l 153 -289 z "},"ĸ":{"ha":677,"x_min":39,"x_max":717,"o":"m 224 379 l 581 743 l 717 743 l 399 427 l 599 0 l 472 0 l 313 355 l 210 272 l 154 0 l 39 0 l 196 743 l 311 743 l 269 553 q 260 512 265 532 q 221 379 255 492 l 224 379 z "},"Ĺ":{"ha":659,"x_min":58,"x_max":583,"o":"m 58 0 l 268 991 l 383 991 l 196 104 l 579 104 l 557 0 l 58 0 m 296 1089 q 381 1192 334 1130 q 454 1293 429 1254 l 583 1293 l 583 1279 q 488 1177 557 1246 q 368 1071 418 1107 l 296 1071 l 296 1089 z "},"ĺ":{"ha":353,"x_min":39,"x_max":562,"o":"m 153 0 l 39 0 l 264 1055 l 378 1055 l 153 0 m 275 1128 q 360 1231 313 1168 q 433 1332 408 1293 l 562 1332 l 562 1318 q 467 1215 536 1284 q 347 1109 397 1146 l 275 1109 l 275 1128 z "},"Ļ":{"ha":659,"x_min":58,"x_max":579,"o":"m 58 0 l 268 991 l 383 991 l 196 104 l 579 104 l 557 0 l 58 0 m 212 -289 q 262 -197 233 -256 q 311 -85 292 -138 l 420 -85 l 420 -98 q 359 -204 405 -138 q 274 -307 313 -270 l 212 -307 l 212 -289 z "},"ļ":{"ha":353,"x_min":-66,"x_max":378,"o":"m 153 0 l 39 0 l 264 1055 l 378 1055 l 153 0 m -66 -289 q -15 -197 -45 -256 q 34 -85 15 -138 l 142 -85 l 142 -98 q 81 -204 127 -138 q -3 -307 35 -270 l -66 -307 l -66 -289 z "},"Ľ":{"ha":659,"x_min":58,"x_max":719,"o":"m 58 0 l 268 991 l 383 991 l 196 104 l 579 104 l 557 0 l 58 0 m 509 788 q 566 891 534 825 q 611 992 598 956 l 719 992 l 719 979 q 657 874 705 941 q 572 770 609 806 l 509 770 l 509 788 z "},"ľ":{"ha":353,"x_min":39,"x_max":604,"o":"m 153 0 l 39 0 l 264 1055 l 378 1055 l 153 0 m 394 851 q 451 954 419 888 q 496 1055 483 1019 l 604 1055 l 604 1042 q 542 937 590 1004 q 456 833 494 869 l 394 833 l 394 851 z "},"Ŀ":{"ha":659,"x_min":58,"x_max":601,"o":"m 58 0 l 268 991 l 383 991 l 196 104 l 579 104 l 557 0 l 58 0 m 464 481 q 486 542 464 517 q 541 567 507 567 q 601 506 601 567 q 578 443 601 469 q 526 417 555 417 q 482 434 500 417 q 464 481 464 450 z "},"ŀ":{"ha":393,"x_min":39,"x_max":472,"o":"m 153 0 l 39 0 l 264 1055 l 378 1055 l 153 0 m 335 500 q 357 562 335 536 q 412 587 378 587 q 472 526 472 587 q 449 463 472 488 q 397 437 427 437 q 353 453 372 437 q 335 500 335 470 z "},"Ł":{"ha":659,"x_min":16,"x_max":579,"o":"m 57 0 l 131 343 l 56 300 l 16 374 l 153 453 l 267 991 l 383 991 l 285 529 l 446 621 l 486 549 l 262 419 l 196 104 l 579 104 l 557 0 l 57 0 z "},"ł":{"ha":347,"x_min":3,"x_max":397,"o":"m 277 590 l 361 640 l 397 570 l 253 484 l 150 0 l 36 0 l 122 404 l 41 355 l 3 427 l 144 513 l 261 1055 l 375 1055 l 277 590 z "},"Ń":{"ha":975,"x_min":57,"x_max":982,"o":"m 772 0 l 650 0 l 338 829 l 334 829 q 283 546 312 680 l 167 0 l 57 0 l 267 991 l 389 991 l 700 164 l 704 164 q 753 439 724 316 l 871 991 l 982 991 l 772 0 m 564 1089 q 649 1192 602 1130 q 721 1293 696 1254 l 850 1293 l 850 1279 q 755 1177 824 1246 q 635 1071 686 1107 l 564 1071 l 564 1089 z "},"ń":{"ha":802,"x_min":40,"x_max":724,"o":"m 494 0 l 595 469 q 608 567 608 540 q 584 635 608 610 q 507 661 560 661 q 390 621 447 661 q 289 505 332 580 q 222 322 245 429 l 154 0 l 40 0 l 199 743 l 293 743 l 278 606 l 285 606 q 411 723 350 688 q 536 757 471 757 q 672 710 623 757 q 722 578 722 663 q 707 456 722 524 l 610 0 l 494 0 m 437 860 q 523 963 475 901 q 595 1064 570 1025 l 724 1064 l 724 1050 q 629 947 698 1017 q 509 842 559 878 l 437 842 l 437 860 z "},"Ņ":{"ha":975,"x_min":57,"x_max":982,"o":"m 772 0 l 650 0 l 338 829 l 334 829 q 283 546 312 680 l 167 0 l 57 0 l 267 991 l 389 991 l 700 164 l 704 164 q 753 439 724 316 l 871 991 l 982 991 l 772 0 m 258 -289 q 309 -197 279 -256 q 358 -85 339 -138 l 467 -85 l 467 -98 q 406 -204 452 -138 q 321 -307 359 -270 l 258 -307 l 258 -289 z "},"ņ":{"ha":802,"x_min":40,"x_max":722,"o":"m 494 0 l 595 469 q 608 567 608 540 q 584 635 608 610 q 507 661 560 661 q 390 621 447 661 q 289 505 332 580 q 222 322 245 429 l 154 0 l 40 0 l 199 743 l 293 743 l 278 606 l 285 606 q 411 723 350 688 q 536 757 471 757 q 672 710 623 757 q 722 578 722 663 q 707 456 722 524 l 610 0 l 494 0 m 164 -289 q 215 -197 185 -256 q 264 -85 245 -138 l 372 -85 l 372 -98 q 311 -204 357 -138 q 227 -307 265 -270 l 164 -307 l 164 -289 z "},"Ň":{"ha":975,"x_min":57,"x_max":982,"o":"m 772 0 l 650 0 l 338 829 l 334 829 q 283 546 312 680 l 167 0 l 57 0 l 267 991 l 389 991 l 700 164 l 704 164 q 753 439 724 316 l 871 991 l 982 991 l 772 0 m 440 1293 l 508 1293 q 563 1238 536 1272 q 618 1165 589 1204 q 785 1293 701 1239 l 857 1293 l 857 1275 q 741 1164 798 1223 q 663 1071 684 1106 l 554 1071 q 469 1230 531 1135 l 440 1275 l 440 1293 z "},"ň":{"ha":802,"x_min":40,"x_max":728,"o":"m 494 0 l 595 469 q 608 567 608 540 q 584 635 608 610 q 507 661 560 661 q 390 621 447 661 q 289 505 332 580 q 222 322 245 429 l 154 0 l 40 0 l 199 743 l 293 743 l 278 606 l 285 606 q 411 723 350 688 q 536 757 471 757 q 672 710 623 757 q 722 578 722 663 q 707 456 722 524 l 610 0 l 494 0 m 312 1064 l 380 1064 q 434 1008 408 1042 q 490 936 461 975 q 656 1064 573 1010 l 728 1064 l 728 1046 q 613 935 669 994 q 534 842 556 877 l 426 842 q 341 1001 403 906 l 312 1046 l 312 1064 z "},"ŉ":{"ha":896,"x_min":63,"x_max":817,"o":"m 589 0 l 689 469 q 703 567 703 540 q 679 635 703 610 q 602 661 654 661 q 484 621 541 661 q 383 505 427 580 q 317 322 339 429 l 248 0 l 134 0 l 293 743 l 387 743 l 372 606 l 379 606 q 505 723 444 688 q 631 757 566 757 q 767 710 717 757 q 817 578 817 663 q 801 456 817 524 l 704 0 l 589 0 m 328 991 l 334 977 q 258 828 307 915 q 151 652 210 742 l 63 652 q 201 991 154 854 l 328 991 z "},"Ŋ":{"ha":975,"x_min":57,"x_max":982,"o":"m 486 -260 q 382 -243 416 -260 l 387 -143 q 486 -157 431 -157 q 598 -116 555 -157 q 657 0 642 -75 l 338 829 l 332 829 q 283 546 305 650 l 167 0 l 57 0 l 267 991 l 390 991 l 699 168 l 703 168 q 733 343 716 252 q 869 991 749 435 l 982 991 l 772 0 q 486 -260 717 -260 z "},"ŋ":{"ha":802,"x_min":40,"x_max":722,"o":"m 364 -334 q 281 -319 319 -334 l 281 -224 q 361 -239 324 -239 q 473 -98 445 -239 l 595 469 q 608 567 608 540 q 584 635 608 610 q 507 661 560 661 q 390 621 447 661 q 289 505 332 580 q 222 322 245 429 l 154 0 l 40 0 l 199 743 l 293 743 l 278 606 l 285 606 q 411 723 350 688 q 536 757 471 757 q 672 710 623 757 q 722 578 722 663 q 707 456 722 526 l 586 -111 q 508 -281 562 -228 q 364 -334 455 -334 z "},"Ō":{"ha":1000,"x_min":102,"x_max":957,"o":"m 957 615 q 897 289 957 433 q 726 65 838 144 q 469 -14 615 -14 q 199 88 296 -14 q 102 372 102 189 q 167 699 102 551 q 346 927 232 847 q 602 1007 459 1007 q 862 903 767 1007 q 957 615 957 798 m 593 904 q 402 836 486 904 q 272 645 318 767 q 225 375 225 523 q 292 164 225 240 q 472 89 358 89 q 657 155 575 89 q 786 345 739 221 q 833 618 833 468 q 770 828 833 753 q 593 904 706 904 m 452 1166 l 822 1166 l 801 1071 l 432 1071 l 452 1166 z "},"ō":{"ha":779,"x_min":66,"x_max":714,"o":"m 436 753 q 640 676 565 753 q 714 467 714 600 q 665 226 714 339 q 533 51 616 113 q 345 -11 450 -11 q 140 66 214 -11 q 66 275 66 142 q 116 518 66 404 q 250 692 165 631 q 436 753 334 753 m 596 482 q 554 609 596 560 q 439 657 511 657 q 306 607 365 657 q 215 468 248 557 q 183 269 183 378 q 226 132 183 180 q 350 83 269 83 q 477 133 420 83 q 565 274 533 182 q 596 482 596 365 m 297 937 l 667 937 l 646 842 l 277 842 l 297 937 z "},"Ŏ":{"ha":1000,"x_min":102,"x_max":957,"o":"m 957 615 q 897 289 957 433 q 726 65 838 144 q 469 -14 615 -14 q 199 88 296 -14 q 102 372 102 189 q 167 699 102 551 q 346 927 232 847 q 602 1007 459 1007 q 862 903 767 1007 q 957 615 957 798 m 593 904 q 402 836 486 904 q 272 645 318 767 q 225 375 225 523 q 292 164 225 240 q 472 89 358 89 q 657 155 575 89 q 786 345 739 221 q 833 618 833 468 q 770 828 833 753 q 593 904 706 904 m 825 1253 q 747 1115 802 1159 q 603 1071 692 1071 q 480 1111 526 1071 q 435 1223 435 1152 l 435 1238 l 436 1253 l 503 1253 q 528 1190 503 1213 q 615 1168 553 1168 q 753 1253 730 1168 l 825 1253 z "},"ŏ":{"ha":779,"x_min":66,"x_max":714,"o":"m 436 753 q 640 676 565 753 q 714 467 714 600 q 665 226 714 339 q 533 51 616 113 q 345 -11 450 -11 q 140 66 214 -11 q 66 275 66 142 q 116 518 66 404 q 250 692 165 631 q 436 753 334 753 m 596 482 q 554 609 596 560 q 439 657 511 657 q 306 607 365 657 q 215 468 248 557 q 183 269 183 378 q 226 132 183 180 q 350 83 269 83 q 477 133 420 83 q 565 274 533 182 q 596 482 596 365 m 682 1023 q 604 886 659 930 q 459 842 549 842 q 337 882 382 842 q 291 994 291 922 l 291 1008 l 292 1023 l 359 1023 q 384 961 359 983 q 471 939 409 939 q 609 1023 586 939 l 682 1023 z "},"Ő":{"ha":1000,"x_min":102,"x_max":974,"o":"m 957 615 q 897 289 957 433 q 726 65 838 144 q 469 -14 615 -14 q 199 88 296 -14 q 102 372 102 189 q 167 699 102 551 q 346 927 232 847 q 602 1007 459 1007 q 862 903 767 1007 q 957 615 957 798 m 593 904 q 402 836 486 904 q 272 645 318 767 q 225 375 225 523 q 292 164 225 240 q 472 89 358 89 q 657 155 575 89 q 786 345 739 221 q 833 618 833 468 q 770 828 833 753 q 593 904 706 904 m 469 1089 q 546 1181 499 1120 q 625 1293 593 1242 l 742 1293 l 742 1279 q 641 1170 707 1235 q 528 1071 574 1105 l 469 1071 l 469 1089 m 701 1089 q 780 1185 733 1124 q 857 1293 827 1246 l 974 1293 l 974 1279 q 873 1170 939 1235 q 760 1071 806 1105 l 701 1071 l 701 1089 z "},"ő":{"ha":779,"x_min":66,"x_max":789,"o":"m 436 753 q 640 676 565 753 q 714 467 714 600 q 665 226 714 339 q 533 51 616 113 q 345 -11 450 -11 q 140 66 214 -11 q 66 275 66 142 q 116 518 66 404 q 250 692 165 631 q 436 753 334 753 m 596 482 q 554 609 596 560 q 439 657 511 657 q 306 607 365 657 q 215 468 248 557 q 183 269 183 378 q 226 132 183 180 q 350 83 269 83 q 477 133 420 83 q 565 274 533 182 q 596 482 596 365 m 285 860 q 362 952 315 890 q 441 1064 409 1013 l 557 1064 l 557 1050 q 456 941 523 1006 q 343 842 390 876 l 285 842 l 285 860 m 517 860 q 596 956 549 895 q 673 1064 643 1017 l 789 1064 l 789 1050 q 688 941 755 1006 q 575 842 622 876 l 517 842 l 517 860 z "},"Œ":{"ha":1187,"x_min":102,"x_max":1243,"o":"m 1034 0 l 576 0 q 469 -14 524 -14 q 199 88 296 -14 q 102 372 102 189 q 167 699 102 551 q 346 927 232 847 q 602 1007 459 1007 q 762 991 705 1007 l 1243 991 l 1222 888 l 839 888 l 771 570 l 1129 570 l 1108 468 l 750 468 l 672 103 l 1055 103 l 1034 0 m 472 89 q 555 102 519 89 l 722 889 q 593 904 671 904 q 402 836 486 904 q 272 645 318 767 q 225 375 225 523 q 292 164 225 240 q 472 89 358 89 z "},"œ":{"ha":1200,"x_min":66,"x_max":1158,"o":"m 848 -14 q 607 139 665 -14 q 491 28 560 66 q 338 -11 421 -11 q 140 66 213 -11 q 66 275 66 144 q 117 519 66 406 q 254 693 168 633 q 444 753 339 753 q 688 600 627 753 q 808 715 739 674 q 958 757 878 757 q 1105 712 1053 757 q 1158 586 1158 668 q 1047 393 1158 462 q 729 325 935 325 l 701 325 l 699 271 q 740 132 699 182 q 869 82 782 82 q 968 99 920 82 q 1069 139 1015 115 l 1069 37 q 848 -14 960 -14 m 440 657 q 307 608 366 657 q 216 471 248 558 q 183 278 183 383 q 225 133 183 182 q 342 83 267 83 q 530 192 462 83 q 599 482 599 301 q 558 612 599 566 q 440 657 518 657 m 958 660 q 809 596 873 660 q 714 419 744 532 l 726 419 q 964 460 883 419 q 1046 581 1046 502 q 1024 636 1046 613 q 958 660 1002 660 z "},"Ŕ":{"ha":790,"x_min":58,"x_max":787,"o":"m 261 412 l 174 0 l 58 0 l 268 991 l 485 991 q 787 743 787 991 q 538 439 787 507 l 700 0 l 574 0 l 432 412 l 261 412 m 361 890 q 282 511 292 555 l 396 511 q 597 569 527 511 q 668 734 668 627 q 622 853 668 817 q 473 890 576 890 l 361 890 m 459 1089 q 544 1192 497 1130 q 616 1293 591 1254 l 745 1293 l 745 1279 q 650 1177 720 1246 q 530 1071 581 1107 l 459 1071 l 459 1089 z "},"ŕ":{"ha":550,"x_min":40,"x_max":628,"o":"m 510 757 q 591 747 557 757 l 567 646 q 496 654 531 654 q 380 614 434 654 q 286 501 326 573 q 227 340 245 429 l 154 0 l 40 0 l 199 743 l 293 743 l 278 606 l 285 606 q 366 698 334 670 q 432 742 397 726 q 510 757 467 757 m 342 860 q 427 963 380 901 q 499 1064 474 1025 l 628 1064 l 628 1050 q 533 947 602 1017 q 413 842 464 878 l 342 842 l 342 860 z "},"Ŗ":{"ha":790,"x_min":58,"x_max":787,"o":"m 261 412 l 174 0 l 58 0 l 268 991 l 485 991 q 787 743 787 991 q 538 439 787 507 l 700 0 l 574 0 l 432 412 l 261 412 m 361 890 q 282 511 292 555 l 396 511 q 597 569 527 511 q 668 734 668 627 q 622 853 668 817 q 473 890 576 890 l 361 890 m 213 -289 q 264 -197 234 -256 q 313 -85 294 -138 l 421 -85 l 421 -98 q 360 -204 406 -138 q 275 -307 314 -270 l 213 -307 l 213 -289 z "},"ŗ":{"ha":550,"x_min":-70,"x_max":591,"o":"m 510 757 q 591 747 557 757 l 567 646 q 496 654 531 654 q 380 614 434 654 q 286 501 326 573 q 227 340 245 429 l 154 0 l 40 0 l 199 743 l 293 743 l 278 606 l 285 606 q 366 698 334 670 q 432 742 397 726 q 510 757 467 757 m -70 -289 q -19 -197 -49 -256 q 30 -85 11 -138 l 138 -85 l 138 -98 q 77 -204 123 -138 q -7 -307 31 -270 l -70 -307 l -70 -289 z "},"Ř":{"ha":790,"x_min":58,"x_max":787,"o":"m 261 412 l 174 0 l 58 0 l 268 991 l 485 991 q 787 743 787 991 q 538 439 787 507 l 700 0 l 574 0 l 432 412 l 261 412 m 361 890 q 282 511 292 555 l 396 511 q 597 569 527 511 q 668 734 668 627 q 622 853 668 817 q 473 890 576 890 l 361 890 m 351 1293 l 419 1293 q 474 1238 447 1272 q 529 1165 500 1204 q 696 1293 612 1239 l 768 1293 l 768 1275 q 652 1164 709 1223 q 574 1071 595 1106 l 465 1071 q 380 1230 442 1135 l 351 1275 l 351 1293 z "},"ř":{"ha":550,"x_min":40,"x_max":641,"o":"m 510 757 q 591 747 557 757 l 567 646 q 496 654 531 654 q 380 614 434 654 q 286 501 326 573 q 227 340 245 429 l 154 0 l 40 0 l 199 743 l 293 743 l 278 606 l 285 606 q 366 698 334 670 q 432 742 397 726 q 510 757 467 757 m 224 1064 l 292 1064 q 347 1008 320 1042 q 402 936 374 975 q 569 1064 486 1010 l 641 1064 l 641 1046 q 525 935 582 994 q 447 842 469 877 l 338 842 q 254 1001 315 906 l 224 1046 l 224 1064 z "},"Ś":{"ha":697,"x_min":26,"x_max":721,"o":"m 619 288 q 524 65 619 144 q 256 -14 429 -14 q 129 -4 184 -14 q 26 29 75 6 l 26 144 q 257 87 136 87 q 431 139 367 87 q 496 279 496 190 q 460 373 496 332 q 328 468 425 413 q 185 583 225 526 q 146 720 146 641 q 235 926 146 846 q 471 1006 325 1006 q 596 993 538 1006 q 718 949 654 980 l 673 847 q 573 888 629 873 q 471 903 517 903 q 325 856 380 903 q 269 728 269 808 q 281 665 269 691 q 317 616 292 639 q 414 551 342 593 q 548 458 513 492 q 601 383 583 424 q 619 288 619 342 m 435 1089 q 520 1192 473 1130 q 592 1293 567 1254 l 721 1293 l 721 1279 q 626 1177 695 1246 q 506 1071 557 1107 l 435 1071 l 435 1089 z "},"ś":{"ha":595,"x_min":5,"x_max":616,"o":"m 498 211 q 424 46 498 105 q 212 -14 349 -14 q 5 33 98 -14 l 5 140 q 108 96 53 112 q 210 81 163 81 q 338 115 295 81 q 382 201 382 149 q 358 267 382 240 q 256 339 334 293 q 131 436 168 389 q 94 549 94 484 q 163 700 94 642 q 343 757 231 757 q 567 707 459 757 l 530 614 l 492 631 q 343 660 424 660 q 244 630 280 660 q 208 554 208 601 q 232 489 208 516 q 332 419 256 462 q 436 349 404 378 q 483 287 467 320 q 498 211 498 253 m 330 860 q 415 963 368 901 q 487 1064 462 1025 l 616 1064 l 616 1050 q 521 947 590 1017 q 401 842 452 878 l 330 842 l 330 860 z "},"Ŝ":{"ha":697,"x_min":26,"x_max":718,"o":"m 619 288 q 524 65 619 144 q 256 -14 429 -14 q 129 -4 184 -14 q 26 29 75 6 l 26 144 q 257 87 136 87 q 431 139 367 87 q 496 279 496 190 q 460 373 496 332 q 328 468 425 413 q 185 583 225 526 q 146 720 146 641 q 235 926 146 846 q 471 1006 325 1006 q 596 993 538 1006 q 718 949 654 980 l 673 847 q 573 888 629 873 q 471 903 517 903 q 325 856 380 903 q 269 728 269 808 q 281 665 269 691 q 317 616 292 639 q 414 551 342 593 q 548 458 513 492 q 601 383 583 424 q 619 288 619 342 m 688 1071 l 618 1071 q 509 1199 579 1103 q 345 1071 418 1118 l 271 1071 l 271 1089 q 409 1223 369 1179 q 465 1293 450 1267 l 572 1293 q 659 1134 597 1226 l 688 1089 l 688 1071 z "},"ŝ":{"ha":595,"x_min":5,"x_max":578,"o":"m 498 211 q 424 46 498 105 q 212 -14 349 -14 q 5 33 98 -14 l 5 140 q 108 96 53 112 q 210 81 163 81 q 338 115 295 81 q 382 201 382 149 q 358 267 382 240 q 256 339 334 293 q 131 436 168 389 q 94 549 94 484 q 163 700 94 642 q 343 757 231 757 q 567 707 459 757 l 530 614 l 492 631 q 343 660 424 660 q 244 630 280 660 q 208 554 208 601 q 232 489 208 516 q 332 419 256 462 q 436 349 404 378 q 483 287 467 320 q 498 211 498 253 m 578 842 l 509 842 q 399 970 470 874 q 235 842 309 889 l 161 842 l 161 860 q 300 994 260 950 q 356 1064 340 1038 l 463 1064 q 550 905 488 997 l 578 860 l 578 842 z "},"Ş":{"ha":697,"x_min":26,"x_max":718,"o":"m 619 288 q 524 65 619 144 q 256 -14 429 -14 q 129 -4 184 -14 q 26 29 75 6 l 26 144 q 257 87 136 87 q 431 139 367 87 q 496 279 496 190 q 460 373 496 332 q 328 468 425 413 q 185 583 225 526 q 146 720 146 641 q 235 926 146 846 q 471 1006 325 1006 q 596 993 538 1006 q 718 949 654 980 l 673 847 q 573 888 629 873 q 471 903 517 903 q 325 856 380 903 q 269 728 269 808 q 281 665 269 691 q 317 616 292 639 q 414 551 342 593 q 548 458 513 492 q 601 383 583 424 q 619 288 619 342 m 364 -187 q 309 -294 364 -254 q 164 -334 254 -334 q 106 -328 136 -334 l 106 -260 q 152 -264 132 -264 q 270 -189 270 -264 q 243 -143 270 -158 q 176 -123 217 -129 l 245 0 l 317 0 l 275 -82 q 364 -187 364 -108 z "},"ş":{"ha":595,"x_min":5,"x_max":567,"o":"m 498 211 q 424 46 498 105 q 212 -14 349 -14 q 5 33 98 -14 l 5 140 q 108 96 53 112 q 210 81 163 81 q 338 115 295 81 q 382 201 382 149 q 358 267 382 240 q 256 339 334 293 q 131 436 168 389 q 94 549 94 484 q 163 700 94 642 q 343 757 231 757 q 567 707 459 757 l 530 614 l 492 631 q 343 660 424 660 q 244 630 280 660 q 208 554 208 601 q 232 489 208 516 q 332 419 256 462 q 436 349 404 378 q 483 287 467 320 q 498 211 498 253 m 317 -187 q 262 -294 317 -254 q 117 -334 207 -334 q 58 -328 89 -334 l 58 -260 q 104 -264 84 -264 q 222 -189 222 -264 q 196 -143 222 -158 q 129 -123 170 -129 l 197 0 l 269 0 l 228 -82 q 317 -187 317 -108 z "},"Š":{"ha":697,"x_min":26,"x_max":718,"o":"m 619 288 q 524 65 619 144 q 256 -14 429 -14 q 129 -4 184 -14 q 26 29 75 6 l 26 144 q 257 87 136 87 q 431 139 367 87 q 496 279 496 190 q 460 373 496 332 q 328 468 425 413 q 185 583 225 526 q 146 720 146 641 q 235 926 146 846 q 471 1006 325 1006 q 596 993 538 1006 q 718 949 654 980 l 673 847 q 573 888 629 873 q 471 903 517 903 q 325 856 380 903 q 269 728 269 808 q 281 665 269 691 q 317 616 292 639 q 414 551 342 593 q 548 458 513 492 q 601 383 583 424 q 619 288 619 342 m 286 1293 l 353 1293 q 408 1238 381 1272 q 463 1165 435 1204 q 630 1293 547 1239 l 702 1293 l 702 1275 q 586 1164 643 1223 q 508 1071 530 1106 l 399 1071 q 315 1230 376 1135 l 286 1275 l 286 1293 z "},"š":{"ha":595,"x_min":5,"x_max":609,"o":"m 498 211 q 424 46 498 105 q 212 -14 349 -14 q 5 33 98 -14 l 5 140 q 108 96 53 112 q 210 81 163 81 q 338 115 295 81 q 382 201 382 149 q 358 267 382 240 q 256 339 334 293 q 131 436 168 389 q 94 549 94 484 q 163 700 94 642 q 343 757 231 757 q 567 707 459 757 l 530 614 l 492 631 q 343 660 424 660 q 244 630 280 660 q 208 554 208 601 q 232 489 208 516 q 332 419 256 462 q 436 349 404 378 q 483 287 467 320 q 498 211 498 253 m 193 1064 l 260 1064 q 315 1008 288 1042 q 370 936 342 975 q 537 1064 454 1010 l 609 1064 l 609 1046 q 493 935 550 994 q 415 842 437 877 l 307 842 q 222 1001 283 906 l 193 1046 l 193 1064 z "},"Ț":{"ha":692,"x_min":98,"x_max":817,"o":"m 330 0 l 214 0 l 401 889 l 126 889 l 149 991 l 817 991 l 796 889 l 519 889 l 330 0 m 98 -289 q 149 -197 119 -256 q 198 -85 179 -138 l 307 -85 l 307 -98 q 245 -204 292 -138 q 161 -307 199 -270 l 98 -307 l 98 -289 z "},"ț":{"ha":450,"x_min":40,"x_max":496,"o":"m 268 79 q 366 97 305 79 l 366 9 q 309 -7 342 0 q 254 -14 275 -14 q 124 27 170 -14 q 79 147 79 67 q 92 249 79 192 l 178 657 l 61 657 l 71 707 l 196 760 l 281 914 l 347 914 l 310 743 l 496 743 l 478 657 l 293 657 l 205 248 q 193 158 193 189 q 213 100 193 120 q 268 79 233 79 m 40 -289 q 91 -197 61 -256 q 140 -85 121 -138 l 248 -85 l 248 -98 q 187 -204 233 -138 q 102 -307 141 -270 l 40 -307 l 40 -289 z "},"Ť":{"ha":692,"x_min":126,"x_max":817,"o":"m 330 0 l 214 0 l 401 889 l 126 889 l 149 991 l 817 991 l 796 889 l 519 889 l 330 0 m 318 1293 l 386 1293 q 440 1238 414 1272 q 496 1165 467 1204 q 663 1293 579 1239 l 734 1293 l 734 1275 q 619 1164 675 1223 q 541 1071 562 1106 l 432 1071 q 347 1230 409 1135 l 318 1275 l 318 1293 z "},"ť":{"ha":450,"x_min":61,"x_max":651,"o":"m 268 79 q 366 97 305 79 l 366 9 q 309 -7 342 0 q 254 -14 275 -14 q 124 27 170 -14 q 79 147 79 67 q 92 249 79 192 l 178 657 l 61 657 l 71 707 l 196 760 l 281 914 l 347 914 l 310 743 l 496 743 l 478 657 l 293 657 l 205 248 q 193 158 193 189 q 213 100 193 120 q 268 79 233 79 m 441 850 q 498 953 467 888 q 543 1055 530 1019 l 651 1055 l 651 1041 q 589 936 637 1004 q 504 833 541 869 l 441 833 l 441 850 z "},"Ŧ":{"ha":692,"x_min":115,"x_max":817,"o":"m 447 553 l 647 553 l 628 460 l 428 460 l 330 0 l 214 0 l 311 460 l 115 460 l 136 553 l 329 553 l 401 889 l 126 889 l 149 991 l 817 991 l 796 889 l 519 889 l 447 553 z "},"ŧ":{"ha":450,"x_min":29,"x_max":496,"o":"m 268 79 q 366 97 305 79 l 366 9 q 309 -7 342 0 q 254 -14 275 -14 q 124 27 170 -14 q 79 147 79 67 q 84 203 79 171 q 122 397 88 235 l 29 397 l 47 485 l 140 485 l 178 657 l 61 657 l 71 707 l 196 760 l 281 914 l 347 914 l 310 743 l 496 743 l 478 657 l 293 657 l 256 485 l 421 485 l 403 397 l 237 397 q 198 206 202 231 q 193 158 193 181 q 213 100 193 120 q 268 79 233 79 z "},"Ũ":{"ha":939,"x_min":111,"x_max":954,"o":"m 954 991 l 815 336 q 681 72 778 158 q 418 -14 585 -14 q 186 57 262 -14 q 111 260 111 127 q 127 396 111 315 l 256 991 l 371 991 l 241 387 q 227 260 227 315 q 276 135 227 180 q 424 89 326 89 q 605 148 541 89 q 700 345 670 208 l 839 991 l 954 991 m 718 1072 q 666 1084 691 1072 q 616 1111 640 1096 q 569 1137 592 1125 q 525 1149 547 1149 q 478 1129 495 1149 q 446 1071 460 1110 l 378 1071 q 534 1246 417 1246 q 591 1234 564 1246 q 642 1207 618 1221 q 687 1180 666 1192 q 726 1168 708 1168 q 773 1186 756 1168 q 808 1247 791 1204 l 876 1247 q 718 1072 831 1072 z "},"ũ":{"ha":802,"x_min":77,"x_max":760,"o":"m 306 743 l 204 272 q 192 178 192 212 q 292 81 192 81 q 409 121 351 81 q 511 238 467 162 q 578 421 555 314 l 646 743 l 758 743 l 602 0 l 507 0 l 522 138 l 514 138 q 387 20 448 53 q 262 -14 327 -14 q 126 34 176 -14 q 77 168 77 81 q 92 285 77 210 l 191 743 l 306 743 m 602 843 q 549 855 574 843 q 499 881 524 867 q 453 908 475 896 q 408 920 430 920 q 361 900 378 920 q 329 842 344 881 l 261 842 q 418 1017 300 1017 q 474 1004 448 1017 q 525 978 501 992 q 570 951 549 963 q 610 939 591 939 q 657 957 640 939 q 692 1018 674 975 l 760 1018 q 602 843 715 843 z "},"Ū":{"ha":939,"x_min":111,"x_max":954,"o":"m 954 991 l 815 336 q 681 72 778 158 q 418 -14 585 -14 q 186 57 262 -14 q 111 260 111 127 q 127 396 111 315 l 256 991 l 371 991 l 241 387 q 227 260 227 315 q 276 135 227 180 q 424 89 326 89 q 605 148 541 89 q 700 345 670 208 l 839 991 l 954 991 m 446 1166 l 815 1166 l 794 1071 l 425 1071 l 446 1166 z "},"ū":{"ha":802,"x_min":77,"x_max":758,"o":"m 306 743 l 204 272 q 192 178 192 212 q 292 81 192 81 q 409 121 351 81 q 511 238 467 162 q 578 421 555 314 l 646 743 l 758 743 l 602 0 l 507 0 l 522 138 l 514 138 q 387 20 448 53 q 262 -14 327 -14 q 126 34 176 -14 q 77 168 77 81 q 92 285 77 210 l 191 743 l 306 743 m 326 937 l 696 937 l 675 842 l 306 842 l 326 937 z "},"Ŭ":{"ha":939,"x_min":111,"x_max":954,"o":"m 954 991 l 815 336 q 681 72 778 158 q 418 -14 585 -14 q 186 57 262 -14 q 111 260 111 127 q 127 396 111 315 l 256 991 l 371 991 l 241 387 q 227 260 227 315 q 276 135 227 180 q 424 89 326 89 q 605 148 541 89 q 700 345 670 208 l 839 991 l 954 991 m 828 1253 q 750 1115 805 1159 q 606 1071 695 1071 q 483 1111 529 1071 q 437 1223 437 1152 l 437 1238 l 439 1253 l 505 1253 q 530 1190 505 1213 q 618 1168 555 1168 q 755 1253 732 1168 l 828 1253 z "},"ŭ":{"ha":802,"x_min":77,"x_max":758,"o":"m 306 743 l 204 272 q 192 178 192 212 q 292 81 192 81 q 409 121 351 81 q 511 238 467 162 q 578 421 555 314 l 646 743 l 758 743 l 602 0 l 507 0 l 522 138 l 514 138 q 387 20 448 53 q 262 -14 327 -14 q 126 34 176 -14 q 77 168 77 81 q 92 285 77 210 l 191 743 l 306 743 m 705 1023 q 627 886 682 930 q 483 842 572 842 q 360 882 406 842 q 315 994 315 922 l 315 1008 l 316 1023 l 382 1023 q 408 961 382 983 q 495 939 433 939 q 633 1023 610 939 l 705 1023 z "},"Ů":{"ha":939,"x_min":111,"x_max":954,"o":"m 954 991 l 815 336 q 681 72 778 158 q 418 -14 585 -14 q 186 57 262 -14 q 111 260 111 127 q 127 396 111 315 l 256 991 l 371 991 l 241 387 q 227 260 227 315 q 276 135 227 180 q 424 89 326 89 q 605 148 541 89 q 700 345 670 208 l 839 991 l 954 991 m 768 1217 q 727 1110 768 1149 q 619 1071 686 1071 q 511 1110 551 1071 q 471 1215 471 1149 q 513 1319 471 1279 q 619 1358 555 1358 q 728 1320 688 1358 q 768 1217 768 1281 m 697 1215 q 675 1272 697 1251 q 619 1293 654 1293 q 564 1272 586 1293 q 541 1215 541 1251 q 561 1158 541 1179 q 619 1137 581 1137 q 675 1158 654 1137 q 697 1215 697 1179 z "},"ů":{"ha":802,"x_min":77,"x_max":758,"o":"m 306 743 l 204 272 q 192 178 192 212 q 292 81 192 81 q 409 121 351 81 q 511 238 467 162 q 578 421 555 314 l 646 743 l 758 743 l 602 0 l 507 0 l 522 138 l 514 138 q 387 20 448 53 q 262 -14 327 -14 q 126 34 176 -14 q 77 168 77 81 q 92 285 77 210 l 191 743 l 306 743 m 645 987 q 604 881 645 920 q 496 842 564 842 q 388 881 428 842 q 348 986 348 920 q 390 1089 348 1050 q 496 1129 432 1129 q 605 1090 565 1129 q 645 987 645 1052 m 574 986 q 553 1043 574 1022 q 496 1064 531 1064 q 441 1043 463 1064 q 418 986 418 1022 q 438 929 418 949 q 496 908 458 908 q 553 929 531 908 q 574 986 574 949 z "},"Ű":{"ha":939,"x_min":111,"x_max":954,"o":"m 954 991 l 815 336 q 681 72 778 158 q 418 -14 585 -14 q 186 57 262 -14 q 111 260 111 127 q 127 396 111 315 l 256 991 l 371 991 l 241 387 q 227 260 227 315 q 276 135 227 180 q 424 89 326 89 q 605 148 541 89 q 700 345 670 208 l 839 991 l 954 991 m 450 1089 q 527 1181 479 1120 q 606 1293 574 1242 l 722 1293 l 722 1279 q 621 1170 688 1235 q 508 1071 555 1105 l 450 1071 l 450 1089 m 682 1089 q 761 1185 713 1124 q 838 1293 808 1246 l 954 1293 l 954 1279 q 853 1170 920 1235 q 740 1071 787 1105 l 682 1071 l 682 1089 z "},"ű":{"ha":802,"x_min":77,"x_max":815,"o":"m 306 743 l 204 272 q 192 178 192 212 q 292 81 192 81 q 409 121 351 81 q 511 238 467 162 q 578 421 555 314 l 646 743 l 758 743 l 602 0 l 507 0 l 522 138 l 514 138 q 387 20 448 53 q 262 -14 327 -14 q 126 34 176 -14 q 77 168 77 81 q 92 285 77 210 l 191 743 l 306 743 m 311 860 q 388 952 340 890 q 467 1064 435 1013 l 583 1064 l 583 1050 q 482 941 549 1006 q 369 842 416 876 l 311 842 l 311 860 m 543 860 q 622 956 574 895 q 699 1064 669 1017 l 815 1064 l 815 1050 q 714 941 781 1006 q 601 842 648 876 l 543 842 l 543 860 z "},"Ų":{"ha":939,"x_min":111,"x_max":954,"o":"m 954 991 l 815 336 q 681 72 778 158 q 418 -14 585 -14 q 186 57 262 -14 q 111 260 111 127 q 127 396 111 315 l 256 991 l 371 991 l 241 387 q 227 260 227 315 q 276 135 227 180 q 424 89 326 89 q 605 148 541 89 q 700 345 670 208 l 839 991 l 954 991 m 553 0 q 474 -69 497 -44 q 437 -120 451 -94 q 424 -175 424 -146 q 471 -222 424 -222 q 525 -216 497 -222 l 525 -289 q 450 -298 496 -298 q 362 -270 394 -298 q 330 -189 330 -242 q 344 -123 330 -153 q 385 -66 358 -93 q 474 0 412 -39 l 553 0 z "},"ų":{"ha":802,"x_min":77,"x_max":758,"o":"m 306 743 l 204 272 q 192 178 192 212 q 292 81 192 81 q 409 121 351 81 q 511 238 467 162 q 578 421 555 314 l 646 743 l 758 743 l 602 0 l 507 0 l 522 138 l 514 138 q 387 20 448 53 q 262 -14 327 -14 q 126 34 176 -14 q 77 168 77 81 q 92 285 77 210 l 191 743 l 306 743 m 586 0 q 507 -69 530 -44 q 471 -120 484 -94 q 457 -175 457 -146 q 504 -222 457 -222 q 558 -216 530 -222 l 558 -289 q 484 -298 530 -298 q 395 -270 427 -298 q 363 -189 363 -242 q 377 -123 363 -153 q 418 -66 391 -93 q 507 0 446 -39 l 586 0 z "},"Ŵ":{"ha":1183,"x_min":151,"x_max":1303,"o":"m 852 0 l 737 0 l 704 654 q 699 846 699 747 l 694 846 q 653 741 677 797 q 311 0 629 685 l 193 0 l 151 991 l 267 991 l 288 380 l 289 321 q 282 146 289 254 l 286 146 q 392 406 347 311 l 667 991 l 787 991 l 817 408 q 823 202 823 304 l 822 146 l 828 146 q 917 386 879 298 l 1179 991 l 1303 991 l 852 0 m 933 1071 l 863 1071 q 754 1199 825 1103 q 590 1071 663 1118 l 516 1071 l 516 1089 q 655 1223 614 1179 q 711 1293 695 1267 l 818 1293 q 905 1134 843 1226 l 933 1089 l 933 1071 z "},"ŵ":{"ha":996,"x_min":79,"x_max":1046,"o":"m 564 0 l 542 408 q 539 525 539 472 l 539 631 l 533 631 l 499 551 l 443 422 l 245 0 l 109 0 l 79 743 l 191 743 l 203 340 l 203 281 q 197 98 203 181 l 201 98 q 294 317 233 182 l 494 743 l 618 743 l 643 340 q 647 163 647 227 l 647 127 l 646 98 l 650 98 q 706 247 669 157 q 925 743 743 336 l 1046 743 l 703 0 l 564 0 m 772 842 l 703 842 q 593 970 664 874 q 429 842 503 889 l 355 842 l 355 860 q 494 994 454 950 q 550 1064 534 1038 l 657 1064 q 744 905 682 997 l 772 860 l 772 842 z "},"Ŷ":{"ha":699,"x_min":127,"x_max":827,"o":"m 364 485 l 696 991 l 827 991 l 401 367 l 325 0 l 208 0 l 289 372 l 127 991 l 243 991 l 364 485 m 670 1071 l 600 1071 q 491 1199 562 1103 q 327 1071 400 1118 l 253 1071 l 253 1089 q 392 1223 351 1179 q 448 1293 432 1267 l 555 1293 q 642 1134 580 1226 l 670 1089 l 670 1071 z "},"ŷ":{"ha":642,"x_min":-134,"x_max":707,"o":"m 66 743 l 180 743 l 231 374 q 244 236 237 327 q 250 89 250 144 l 254 89 q 313 224 278 148 q 366 330 349 301 l 586 743 l 707 743 l 235 -126 q 110 -288 172 -243 q -39 -334 48 -334 q -134 -319 -87 -334 l -134 -228 q -45 -240 -91 -240 q 51 -206 11 -240 q 127 -104 90 -172 l 179 -12 l 66 743 m 590 842 l 520 842 q 411 970 481 874 q 247 842 320 889 l 173 842 l 173 860 q 312 994 271 950 q 368 1064 352 1038 l 475 1064 q 562 905 500 997 l 590 860 l 590 842 z "},"Ÿ":{"ha":699,"x_min":127,"x_max":827,"o":"m 364 485 l 696 991 l 827 991 l 401 367 l 325 0 l 208 0 l 289 372 l 127 991 l 243 991 l 364 485 m 307 1164 q 326 1218 307 1195 q 376 1240 345 1240 q 429 1186 429 1240 q 409 1130 429 1153 q 362 1107 389 1107 q 322 1122 338 1107 q 307 1164 307 1137 m 553 1164 q 572 1218 553 1195 q 623 1240 591 1240 q 675 1186 675 1240 q 655 1130 675 1153 q 609 1107 635 1107 q 569 1122 585 1107 q 553 1164 553 1137 z "},"Ź":{"ha":737,"x_min":-11,"x_max":794,"o":"m 600 0 l -11 0 l 8 93 l 635 886 l 191 886 l 212 991 l 794 991 l 777 897 l 150 104 l 623 104 l 600 0 m 460 1089 q 546 1192 498 1130 q 618 1293 593 1254 l 747 1293 l 747 1279 q 652 1177 721 1246 q 532 1071 583 1107 l 460 1071 l 460 1089 z "},"ź":{"ha":616,"x_min":-20,"x_max":641,"o":"m 468 0 l -20 0 l -4 79 l 467 659 l 142 659 l 160 743 l 606 743 l 586 648 l 125 85 l 485 85 l 468 0 m 355 860 q 440 963 393 901 q 512 1064 487 1025 l 641 1064 l 641 1050 q 546 947 615 1017 q 426 842 477 878 l 355 842 l 355 860 z "},"Ż":{"ha":737,"x_min":-11,"x_max":794,"o":"m 600 0 l -11 0 l 8 93 l 635 886 l 191 886 l 212 991 l 794 991 l 777 897 l 150 104 l 623 104 l 600 0 m 450 1162 q 472 1223 450 1198 q 528 1249 494 1249 q 587 1187 587 1249 q 565 1124 587 1150 q 513 1099 542 1099 q 469 1115 487 1099 q 450 1162 450 1132 z "},"ż":{"ha":616,"x_min":-20,"x_max":606,"o":"m 468 0 l -20 0 l -4 79 l 467 659 l 142 659 l 160 743 l 606 743 l 586 648 l 125 85 l 485 85 l 468 0 m 339 933 q 361 994 339 969 q 416 1019 382 1019 q 476 958 476 1019 q 453 895 476 921 q 401 869 431 869 q 357 886 376 869 q 339 933 339 903 z "},"Ž":{"ha":737,"x_min":-11,"x_max":794,"o":"m 600 0 l -11 0 l 8 93 l 635 886 l 191 886 l 212 991 l 794 991 l 777 897 l 150 104 l 623 104 l 600 0 m 340 1293 l 408 1293 q 463 1238 436 1272 q 518 1165 490 1204 q 685 1293 602 1239 l 757 1293 l 757 1275 q 641 1164 698 1223 q 563 1071 585 1106 l 454 1071 q 370 1230 431 1135 l 340 1275 l 340 1293 z "},"ž":{"ha":616,"x_min":-20,"x_max":641,"o":"m 468 0 l -20 0 l -4 79 l 467 659 l 142 659 l 160 743 l 606 743 l 586 648 l 125 85 l 485 85 l 468 0 m 224 1064 l 292 1064 q 347 1008 320 1042 q 402 936 374 975 q 569 1064 486 1010 l 641 1064 l 641 1046 q 525 935 582 994 q 447 842 469 877 l 338 842 q 254 1001 315 906 l 224 1046 l 224 1064 z "},"ſ":{"ha":382,"x_min":-176,"x_max":589,"o":"m -93 -334 q -176 -319 -137 -334 l -176 -224 q -100 -239 -133 -239 q 22 -77 -12 -239 l 210 815 q 292 1005 237 947 q 460 1063 348 1063 q 526 1055 488 1063 q 589 1038 564 1048 l 559 950 q 467 970 508 970 q 375 936 407 970 q 325 817 343 901 l 135 -87 q 52 -275 108 -216 q -93 -334 -3 -334 z "},"ƒ":{"ha":765,"x_min":3,"x_max":754,"o":"m 86 -334 q 3 -319 39 -334 l 3 -224 q 79 -239 44 -239 q 201 -77 168 -239 l 338 570 l 208 570 l 216 614 l 355 659 l 375 758 q 459 948 401 890 q 627 1006 517 1006 q 694 998 655 1006 q 754 981 732 991 l 725 893 q 632 913 673 913 q 541 879 572 913 q 490 760 509 846 l 468 654 l 629 654 l 612 570 l 452 570 l 313 -87 q 232 -274 286 -215 q 86 -334 177 -334 z "},"Ǻ":{"ha":771,"x_min":-78,"x_max":761,"o":"m 661 971 q 600 848 661 891 l 705 0 l 591 0 l 554 317 l 216 317 l 49 0 l -78 0 l 393 872 q 363 970 363 909 q 405 1074 363 1034 q 511 1114 448 1114 q 620 1075 579 1114 q 661 971 661 1036 m 463 1162 q 616 1331 532 1224 l 761 1331 l 761 1318 q 662 1233 732 1287 q 543 1147 592 1178 l 463 1147 l 463 1162 m 589 970 q 567 1027 589 1006 q 511 1047 546 1047 q 455 1027 477 1047 q 433 970 433 1006 q 453 912 433 933 q 511 892 473 892 q 567 912 546 892 q 589 970 589 933 m 479 819 q 426 709 454 766 q 273 421 397 652 l 541 421 q 498 819 506 721 l 479 819 z "},"ǻ":{"ha":785,"x_min":66,"x_max":760,"o":"m 447 1162 q 602 1331 527 1236 l 746 1331 l 746 1318 q 640 1229 713 1284 q 526 1149 568 1173 l 447 1149 l 447 1162 m 639 957 q 598 851 639 890 q 490 812 557 812 q 382 850 424 812 q 340 956 340 888 q 383 1061 340 1021 q 490 1100 425 1100 q 598 1061 557 1100 q 639 957 639 1022 m 568 956 q 546 1013 568 992 q 490 1034 524 1034 q 434 1013 456 1034 q 412 956 412 992 q 432 899 412 920 q 490 878 452 878 q 546 899 524 878 q 568 956 568 920 m 433 757 q 545 723 496 757 q 621 627 593 690 l 628 627 l 673 743 l 760 743 l 602 0 l 511 0 l 529 142 l 524 142 q 268 -14 402 -14 q 120 54 174 -14 q 66 237 66 121 q 115 499 66 378 q 248 688 163 620 q 433 757 332 757 m 304 81 q 435 143 370 81 q 541 307 500 206 q 582 509 582 408 q 544 620 582 578 q 444 661 506 661 q 313 603 374 661 q 218 445 252 545 q 183 235 183 345 q 215 119 183 157 q 304 81 247 81 z "},"Ǽ":{"ha":1135,"x_min":-81,"x_max":1192,"o":"m 982 0 l 482 0 l 549 315 l 252 315 l 53 0 l -81 0 l 555 991 l 1192 991 l 1169 888 l 786 888 l 718 570 l 1076 570 l 1057 468 l 699 468 l 621 103 l 1004 103 l 982 0 m 570 421 l 669 888 l 612 888 l 318 421 l 570 421 m 765 1089 q 850 1192 803 1130 q 922 1293 897 1254 l 1051 1293 l 1051 1279 q 956 1177 1025 1246 q 836 1071 887 1107 l 765 1071 l 765 1089 z "},"ǽ":{"ha":1132,"x_min":66,"x_max":1101,"o":"m 790 -14 q 662 13 717 -14 q 579 94 606 40 l 558 0 l 481 0 l 498 142 l 493 142 q 363 19 419 52 q 243 -14 307 -14 q 113 54 160 -14 q 66 236 66 121 q 114 497 66 376 q 244 688 162 618 q 422 757 326 757 q 521 724 478 757 q 590 627 564 691 l 597 627 l 643 743 l 717 743 l 696 644 q 921 757 779 757 q 1052 711 1002 757 q 1101 586 1101 665 q 988 394 1101 463 q 668 325 876 325 l 642 325 l 639 271 q 681 132 639 182 q 812 82 724 82 q 891 93 850 82 q 1013 139 933 104 l 1013 37 q 790 -14 901 -14 m 279 81 q 407 143 344 81 q 511 306 471 205 q 551 509 551 407 q 520 620 551 578 q 437 661 490 661 q 311 603 370 661 q 217 446 251 544 q 183 236 183 347 q 208 120 183 159 q 279 81 233 81 m 899 660 q 755 596 819 660 q 660 419 692 532 l 669 419 q 906 459 823 419 q 989 574 989 498 q 965 637 989 615 q 899 660 941 660 m 625 860 q 710 963 663 901 q 782 1064 757 1025 l 911 1064 l 911 1050 q 816 947 885 1017 q 696 842 747 878 l 625 842 l 625 860 z "},"Ǿ":{"ha":1000,"x_min":81,"x_max":991,"o":"m 957 615 q 897 289 957 433 q 726 65 838 144 q 469 -14 615 -14 q 244 52 334 -14 l 157 -57 l 81 5 l 174 121 q 102 372 102 213 q 167 699 102 551 q 346 927 232 847 q 602 1007 459 1007 q 723 989 669 1007 q 825 932 777 970 l 914 1044 l 991 982 l 890 857 q 940 751 923 815 q 957 615 957 688 m 593 904 q 402 836 486 904 q 272 645 318 767 q 225 375 225 523 q 253 221 225 283 l 753 844 q 593 904 692 904 m 833 618 q 811 757 833 698 l 314 139 q 472 89 376 89 q 657 155 575 89 q 786 345 739 221 q 833 618 833 468 m 550 1089 q 635 1192 588 1130 q 707 1293 682 1254 l 836 1293 l 836 1279 q 741 1177 810 1246 q 621 1071 672 1107 l 550 1071 l 550 1089 z "},"ǿ":{"ha":779,"x_min":41,"x_max":749,"o":"m 710 478 q 663 234 710 350 q 533 54 616 118 q 346 -11 450 -11 q 179 33 247 -11 l 113 -52 l 41 4 l 115 96 q 69 275 69 165 q 119 520 69 407 q 252 693 169 633 q 436 753 334 753 q 607 707 535 753 l 677 794 l 749 741 l 668 653 q 710 478 710 587 m 439 659 q 306 609 366 659 q 213 472 247 559 q 179 282 179 385 q 191 189 179 220 l 542 627 q 439 659 505 659 m 600 467 q 591 547 600 524 l 243 113 q 350 82 281 82 q 478 131 420 82 q 568 267 536 179 q 600 467 600 354 m 399 860 q 485 963 437 901 q 557 1064 532 1025 l 686 1064 l 686 1050 q 591 947 660 1017 q 471 842 522 878 l 399 842 l 399 860 z "},"Ș":{"ha":697,"x_min":26,"x_max":718,"o":"m 619 288 q 524 65 619 144 q 256 -14 429 -14 q 129 -4 184 -14 q 26 29 75 6 l 26 144 q 257 87 136 87 q 431 139 367 87 q 496 279 496 190 q 460 373 496 332 q 328 468 425 413 q 185 583 225 526 q 146 720 146 641 q 235 926 146 846 q 471 1006 325 1006 q 596 993 538 1006 q 718 949 654 980 l 673 847 q 573 888 629 873 q 471 903 517 903 q 325 856 380 903 q 269 728 269 808 q 281 665 269 691 q 317 616 292 639 q 414 551 342 593 q 548 458 513 492 q 601 383 583 424 q 619 288 619 342 m 124 -289 q 175 -197 145 -256 q 224 -85 205 -138 l 332 -85 l 332 -98 q 271 -204 317 -138 q 186 -307 225 -270 l 124 -307 l 124 -289 z "},"ș":{"ha":595,"x_min":5,"x_max":567,"o":"m 498 211 q 424 46 498 105 q 212 -14 349 -14 q 5 33 98 -14 l 5 140 q 108 96 53 112 q 210 81 163 81 q 338 115 295 81 q 382 201 382 149 q 358 267 382 240 q 256 339 334 293 q 131 436 168 389 q 94 549 94 484 q 163 700 94 642 q 343 757 231 757 q 567 707 459 757 l 530 614 l 492 631 q 343 660 424 660 q 244 630 280 660 q 208 554 208 601 q 232 489 208 516 q 332 419 256 462 q 436 349 404 378 q 483 287 467 320 q 498 211 498 253 m 65 -289 q 116 -197 86 -256 q 165 -85 146 -138 l 273 -85 l 273 -98 q 212 -204 258 -138 q 127 -307 166 -270 l 65 -307 l 65 -289 z "},"ˆ":{"ha":770,"x_min":271,"x_max":688,"o":"m 688 842 l 618 842 q 509 970 579 874 q 345 842 418 889 l 271 842 l 271 860 q 409 994 369 950 q 465 1064 450 1038 l 572 1064 q 659 905 597 997 l 688 860 l 688 842 z "},"ˇ":{"ha":770,"x_min":317,"x_max":733,"o":"m 317 1064 l 385 1064 q 439 1008 412 1042 q 494 936 466 975 q 661 1064 578 1010 l 733 1064 l 733 1046 q 617 935 674 994 q 539 842 561 877 l 431 842 q 346 1001 408 906 l 317 1046 l 317 1064 z "},"ˉ":{"ha":743,"x_min":275,"x_max":665,"o":"m 296 937 l 665 937 l 644 842 l 275 842 l 296 937 z "},"˘":{"ha":770,"x_min":322,"x_max":713,"o":"m 713 1023 q 635 886 690 930 q 490 842 580 842 q 368 882 414 842 q 322 994 322 922 l 322 1008 l 323 1023 l 390 1023 q 415 961 390 983 q 503 939 440 939 q 640 1023 617 939 l 713 1023 z "},"˙":{"ha":338,"x_min":220,"x_max":357,"o":"m 220 933 q 241 994 220 969 q 297 1019 263 1019 q 357 958 357 1019 q 334 895 357 921 q 282 869 311 869 q 238 886 256 869 q 220 933 220 903 z "},"˚":{"ha":802,"x_min":374,"x_max":671,"o":"m 671 987 q 630 881 671 920 q 522 842 589 842 q 414 881 454 842 q 374 986 374 920 q 416 1089 374 1050 q 522 1129 458 1129 q 631 1090 591 1129 q 671 987 671 1052 m 600 986 q 578 1043 600 1022 q 522 1064 557 1064 q 467 1043 489 1064 q 444 986 444 1022 q 464 929 444 949 q 522 908 484 908 q 578 929 557 908 q 600 986 600 949 z "},"˛":{"ha":253,"x_min":-98,"x_max":125,"o":"m 125 0 q 46 -69 69 -44 q 9 -120 23 -94 q -4 -175 -4 -146 q 43 -222 -4 -222 q 97 -216 69 -222 l 97 -289 q 22 -298 68 -298 q -66 -270 -34 -298 q -98 -189 -98 -242 q -84 -123 -98 -153 q -43 -66 -70 -93 q 46 0 -16 -39 l 125 0 z "},"˜":{"ha":770,"x_min":228,"x_max":726,"o":"m 568 843 q 516 855 541 843 q 466 881 490 867 q 419 908 442 896 q 375 920 397 920 q 328 900 345 920 q 296 842 311 881 l 228 842 q 385 1017 267 1017 q 441 1004 414 1017 q 492 978 468 992 q 537 951 516 963 q 576 939 558 939 q 624 957 606 939 q 659 1018 641 975 l 726 1018 q 568 843 682 843 z "},"˝":{"ha":770,"x_min":269,"x_max":774,"o":"m 269 860 q 346 952 299 890 q 425 1064 393 1013 l 542 1064 l 542 1050 q 441 941 507 1006 q 328 842 374 876 l 269 842 l 269 860 m 501 860 q 580 956 533 895 q 657 1064 627 1017 l 774 1064 l 774 1050 q 673 941 739 1006 q 559 842 606 876 l 501 842 l 501 860 z "},"΄":{"ha":782,"x_min":422,"x_max":667,"o":"m 422 861 q 491 998 454 918 q 543 1121 528 1078 l 667 1121 l 667 1101 q 595 980 650 1061 q 493 842 541 899 l 422 842 l 422 861 z "},"΅":{"ha":782,"x_min":304,"x_max":700,"o":"m 452 957 q 558 1164 524 1084 l 690 1164 l 690 1150 q 604 1045 656 1103 q 503 942 552 987 l 452 942 l 452 957 m 304 935 q 324 989 304 968 q 374 1011 343 1011 q 427 957 427 1011 q 406 900 427 923 q 359 878 385 878 q 320 892 336 878 q 304 935 304 907 m 578 935 q 597 988 578 966 q 647 1011 616 1011 q 700 957 700 1011 q 680 901 700 924 q 633 878 660 878 q 594 892 610 878 q 578 935 578 907 z "},"Ά":{"ha":771,"x_min":-79,"x_max":705,"o":"m 551 315 l 215 315 l 49 0 l -79 0 l 463 991 l 581 991 l 705 0 l 590 0 l 551 315 m 539 421 l 515 624 q 496 861 499 745 q 441 743 471 802 q 272 421 412 684 l 539 421 m 94 790 q 162 927 125 847 q 215 1050 199 1006 l 338 1050 l 338 1030 q 267 908 321 989 q 165 770 213 827 l 94 770 l 94 790 z "},"·":{"ha":351,"x_min":115,"x_max":283,"o":"m 115 468 q 143 551 115 520 q 218 582 170 582 q 266 564 248 582 q 283 511 283 547 q 256 430 283 463 q 183 398 229 398 q 134 416 152 398 q 115 468 115 433 z "},"Έ":{"ha":789,"x_min":48,"x_max":847,"o":"m 637 0 l 139 0 l 349 991 l 847 991 l 825 888 l 441 888 l 375 570 l 732 570 l 713 467 l 354 467 l 277 103 l 660 103 l 637 0 m 48 790 q 116 927 79 847 q 169 1050 153 1006 l 292 1050 l 292 1030 q 221 908 275 989 q 119 770 167 827 l 48 770 l 48 790 z "},"Ή":{"ha":1047,"x_min":48,"x_max":1050,"o":"m 840 0 l 727 0 l 824 467 l 376 467 l 278 0 l 163 0 l 372 991 l 488 991 l 399 570 l 846 570 l 937 991 l 1050 991 l 840 0 m 48 790 q 116 927 79 847 q 169 1050 153 1006 l 292 1050 l 292 1030 q 221 908 275 989 q 119 770 167 827 l 48 770 l 48 790 z "},"Ό":{"ha":1051,"x_min":62,"x_max":1008,"o":"m 1008 615 q 949 289 1008 433 q 778 65 889 144 q 521 -14 667 -14 q 250 88 347 -14 q 153 372 153 189 q 218 699 153 551 q 397 927 283 847 q 653 1007 511 1007 q 913 903 819 1007 q 1008 615 1008 798 m 644 904 q 454 836 538 904 q 323 645 370 767 q 277 375 277 523 q 343 164 277 240 q 524 89 410 89 q 708 155 627 89 q 838 345 790 221 q 885 618 885 468 q 821 828 885 753 q 644 904 758 904 m 62 790 q 131 927 94 847 q 183 1050 168 1006 l 307 1050 l 307 1030 q 235 908 290 989 q 133 770 181 827 l 62 770 l 62 790 z "},"Ύ":{"ha":889,"x_min":48,"x_max":1017,"o":"m 555 485 l 886 991 l 1017 991 l 592 367 l 515 0 l 399 0 l 479 372 l 318 991 l 433 991 l 555 485 m 48 790 q 116 927 79 847 q 169 1050 153 1006 l 292 1050 l 292 1030 q 221 908 275 989 q 119 770 167 827 l 48 770 l 48 790 z "},"Ώ":{"ha":1086,"x_min":57,"x_max":1033,"o":"m 75 790 q 143 927 106 847 q 195 1050 180 1006 l 319 1050 l 319 1030 q 248 908 302 989 q 145 770 193 827 l 75 770 l 75 790 m 656 904 q 470 847 551 904 q 346 689 390 791 q 302 458 302 587 q 337 255 302 343 q 448 89 371 166 l 431 0 l 57 0 l 77 103 l 313 103 q 179 465 179 241 q 242 744 179 618 q 415 939 305 871 q 665 1007 526 1007 q 863 960 780 1007 q 990 826 947 913 q 1033 623 1033 739 q 958 332 1033 467 q 739 103 882 198 l 985 103 l 964 0 l 555 0 l 573 89 q 825 325 741 189 q 909 627 909 461 q 843 832 909 760 q 656 904 777 904 z "},"ΐ":{"ha":424,"x_min":71,"x_max":488,"o":"m 258 79 q 353 97 291 79 l 353 9 q 298 -6 332 1 q 239 -14 264 -14 q 114 27 157 -14 q 71 147 71 67 q 77 206 71 170 q 189 743 83 242 l 302 743 l 197 244 q 186 160 186 193 q 258 79 186 79 m 240 957 q 347 1164 312 1084 l 479 1164 l 479 1150 q 393 1045 445 1103 q 291 942 340 987 l 240 942 l 240 957 m 93 935 q 112 989 93 968 q 162 1011 132 1011 q 215 957 215 1011 q 194 900 215 923 q 148 878 174 878 q 109 892 124 878 q 93 935 93 907 m 366 935 q 385 988 366 966 q 435 1011 404 1011 q 488 957 488 1011 q 468 901 488 924 q 422 878 448 878 q 382 892 398 878 q 366 935 366 907 z "},"Α":{"ha":771,"x_min":-79,"x_max":705,"o":"m 551 315 l 215 315 l 49 0 l -79 0 l 463 991 l 581 991 l 705 0 l 590 0 l 551 315 m 539 421 l 515 624 q 496 861 499 745 q 441 743 471 802 q 272 421 412 684 l 539 421 z "},"Β":{"ha":831,"x_min":58,"x_max":815,"o":"m 522 991 q 815 764 815 991 q 756 602 815 668 q 590 517 697 536 l 590 510 q 710 435 668 488 q 751 307 751 382 q 648 82 751 163 q 372 0 545 0 l 58 0 l 268 991 l 522 991 m 294 567 l 463 567 q 631 616 568 567 q 694 751 694 666 q 649 857 694 822 q 507 892 604 892 l 364 892 l 294 567 m 195 98 l 375 98 q 564 153 498 98 q 629 307 629 208 q 579 428 629 386 q 433 469 528 469 l 273 469 l 195 98 z "},"Γ":{"ha":661,"x_min":58,"x_max":766,"o":"m 175 0 l 58 0 l 268 991 l 766 991 l 746 888 l 363 888 l 175 0 z "},"Δ":{"ha":775,"x_min":-37,"x_max":684,"o":"m 465 990 l 582 990 l 684 69 l 669 0 l -37 0 l -24 71 l 465 990 m 500 864 q 387 619 452 742 l 114 103 l 567 103 l 514 616 q 500 864 500 755 z "},"Ε":{"ha":710,"x_min":58,"x_max":766,"o":"m 557 0 l 58 0 l 268 991 l 766 991 l 745 888 l 361 888 l 294 570 l 652 570 l 632 467 l 273 467 l 196 103 l 579 103 l 557 0 z "},"Ζ":{"ha":737,"x_min":-11,"x_max":794,"o":"m 600 0 l -11 0 l 8 93 l 635 886 l 191 886 l 212 991 l 794 991 l 777 897 l 150 104 l 623 104 l 600 0 z "},"Η":{"ha":942,"x_min":58,"x_max":946,"o":"m 736 0 l 623 0 l 720 467 l 272 467 l 174 0 l 58 0 l 268 991 l 383 991 l 294 570 l 742 570 l 832 991 l 946 991 l 736 0 z "},"Θ":{"ha":1000,"x_min":102,"x_max":957,"o":"m 717 555 l 696 454 l 335 454 l 355 555 l 717 555 m 957 615 q 897 289 957 433 q 726 65 838 144 q 469 -14 615 -14 q 199 88 296 -14 q 102 372 102 189 q 167 699 102 551 q 346 927 232 847 q 602 1007 459 1007 q 862 903 767 1007 q 957 615 957 798 m 593 904 q 402 836 486 904 q 272 645 318 767 q 225 375 225 523 q 292 164 225 240 q 472 89 358 89 q 657 155 575 89 q 786 345 739 221 q 833 618 833 468 q 770 828 833 753 q 593 904 706 904 z "},"Κ":{"ha":774,"x_min":58,"x_max":897,"o":"m 701 0 l 575 0 q 476 244 526 123 q 376 489 425 365 l 258 400 l 174 0 l 58 0 l 268 991 l 383 991 l 281 510 l 755 991 l 897 991 l 464 559 l 701 0 z "},"Λ":{"ha":775,"x_min":-79,"x_max":711,"o":"m -79 0 l 464 990 l 585 990 l 711 0 l 597 0 l 521 633 q 503 867 508 739 q 383 624 454 753 l 49 0 l -79 0 z "},"Μ":{"ha":1162,"x_min":57,"x_max":1166,"o":"m 458 0 l 346 879 l 340 879 q 321 745 336 830 q 296 610 307 660 l 167 0 l 57 0 l 267 991 l 432 991 l 533 175 l 539 175 l 986 991 l 1166 991 l 961 0 l 843 0 q 974 614 928 400 q 1038 880 1019 828 l 1034 880 l 547 0 l 458 0 z "},"Ν":{"ha":975,"x_min":57,"x_max":982,"o":"m 772 0 l 650 0 l 338 829 l 334 829 q 283 546 312 680 l 167 0 l 57 0 l 267 991 l 389 991 l 700 164 l 704 164 q 753 439 724 316 l 871 991 l 982 991 l 772 0 z "},"Ξ":{"ha":718,"x_min":-18,"x_max":770,"o":"m 187 570 l 621 570 l 602 468 l 167 468 l 187 570 m 218 991 l 770 991 l 747 888 l 196 888 l 218 991 m 608 103 l 586 0 l -18 0 l 3 103 l 608 103 z "},"Ο":{"ha":1000,"x_min":102,"x_max":957,"o":"m 957 615 q 897 289 957 433 q 726 65 838 144 q 469 -14 615 -14 q 199 88 296 -14 q 102 372 102 189 q 167 699 102 551 q 346 927 232 847 q 602 1007 459 1007 q 862 903 767 1007 q 957 615 957 798 m 593 904 q 402 836 486 904 q 272 645 318 767 q 225 375 225 523 q 292 164 225 240 q 472 89 358 89 q 657 155 575 89 q 786 345 739 221 q 833 618 833 468 q 770 828 833 753 q 593 904 706 904 z "},"Π":{"ha":943,"x_min":58,"x_max":950,"o":"m 741 0 l 623 0 l 810 889 l 361 889 l 174 0 l 58 0 l 268 991 l 950 991 l 741 0 z "},"Ρ":{"ha":786,"x_min":58,"x_max":786,"o":"m 786 736 q 675 479 786 568 q 349 390 564 390 l 257 390 l 174 0 l 58 0 l 268 991 l 492 991 q 711 927 637 991 q 786 736 786 863 m 278 489 l 368 489 q 591 551 515 489 q 667 732 667 612 q 620 854 667 817 q 475 892 572 892 l 364 892 l 278 489 z "},"Σ":{"ha":724,"x_min":-20,"x_max":781,"o":"m -20 0 l -1 94 l 359 513 l 178 899 l 196 991 l 781 991 l 758 888 l 300 888 l 481 504 l 135 103 l 632 103 l 610 0 l -20 0 z "},"Τ":{"ha":692,"x_min":126,"x_max":817,"o":"m 330 0 l 214 0 l 401 889 l 126 889 l 149 991 l 817 991 l 796 889 l 519 889 l 330 0 z "},"Υ":{"ha":699,"x_min":127,"x_max":827,"o":"m 364 485 l 696 991 l 827 991 l 401 367 l 325 0 l 208 0 l 289 372 l 127 991 l 243 991 l 364 485 z "},"Φ":{"ha":1034,"x_min":102,"x_max":990,"o":"m 375 -14 l 408 139 q 181 230 261 149 q 102 450 102 310 q 221 762 102 647 q 567 884 341 877 l 591 1006 l 711 1006 l 686 884 q 911 795 832 875 q 990 579 990 716 q 933 350 990 450 q 772 197 876 250 q 528 139 668 144 l 494 -14 l 375 -14 m 549 239 q 788 336 703 248 q 872 572 872 425 q 818 724 872 670 q 664 782 764 778 l 549 239 m 545 782 q 368 742 441 782 q 257 628 295 701 q 220 457 220 555 q 274 299 220 357 q 428 239 329 241 l 545 782 z "},"Χ":{"ha":721,"x_min":-71,"x_max":836,"o":"m 648 0 l 526 0 l 382 435 l 56 0 l -71 0 l 334 526 l 155 991 l 272 991 l 410 610 l 710 991 l 836 991 l 460 521 l 648 0 z "},"Ψ":{"ha":1021,"x_min":135,"x_max":1088,"o":"m 587 304 l 561 304 l 497 0 l 378 0 l 441 304 l 432 304 q 212 375 290 304 q 135 578 135 446 q 151 718 135 641 l 208 991 l 329 991 l 269 705 q 253 582 253 630 q 301 447 253 491 q 452 403 350 403 l 463 403 l 587 991 l 707 991 l 582 403 l 591 403 q 792 465 717 403 q 896 664 867 526 l 965 991 l 1088 991 l 1017 654 q 874 390 981 475 q 587 304 767 304 z "},"Ω":{"ha":1018,"x_min":-11,"x_max":965,"o":"m 589 904 q 402 847 483 904 q 278 689 322 791 q 235 458 235 587 q 269 255 235 343 q 380 89 303 166 l 363 0 l -11 0 l 9 103 l 245 103 q 111 465 111 241 q 174 744 111 618 q 348 939 237 871 q 597 1007 458 1007 q 795 960 712 1007 q 922 826 879 913 q 965 623 965 739 q 890 332 965 467 q 671 103 814 198 l 917 103 l 896 0 l 488 0 l 505 89 q 757 325 673 189 q 842 627 842 461 q 775 832 842 760 q 589 904 709 904 z "},"Ϋ":{"ha":699,"x_min":127,"x_max":827,"o":"m 364 485 l 696 991 l 827 991 l 401 367 l 325 0 l 208 0 l 289 372 l 127 991 l 243 991 l 364 485 m 307 1164 q 326 1218 307 1195 q 376 1240 345 1240 q 429 1186 429 1240 q 409 1130 429 1153 q 362 1107 389 1107 q 322 1122 338 1107 q 307 1164 307 1137 m 553 1164 q 572 1218 553 1195 q 623 1240 591 1240 q 675 1186 675 1240 q 655 1130 675 1153 q 609 1107 635 1107 q 569 1122 585 1107 q 553 1164 553 1137 z "},"ά":{"ha":790,"x_min":66,"x_max":787,"o":"m 428 757 q 544 724 495 757 q 619 628 593 691 l 628 628 q 696 743 665 709 l 787 743 q 732 597 762 692 q 685 422 703 502 l 636 204 q 625 127 625 158 q 637 91 625 104 q 669 78 648 78 q 714 86 688 78 l 714 4 q 675 -8 701 -3 q 632 -14 648 -14 q 511 117 511 -14 l 511 126 l 505 126 q 388 19 445 52 q 268 -14 330 -14 q 120 53 174 -14 q 66 237 66 120 q 114 500 66 379 q 244 689 161 621 q 428 757 327 757 m 304 81 q 433 143 370 81 q 537 306 497 205 q 576 509 576 407 q 538 620 576 578 q 439 661 500 661 q 311 605 370 661 q 218 450 252 549 q 183 235 183 351 q 215 119 183 157 q 304 81 247 81 m 431 861 q 499 998 462 918 q 551 1121 536 1078 l 675 1121 l 675 1101 q 604 980 658 1061 q 501 842 549 899 l 431 842 l 431 861 z "},"έ":{"ha":618,"x_min":43,"x_max":627,"o":"m 444 336 l 368 336 q 209 300 263 336 q 155 195 155 263 q 194 109 155 138 q 302 79 233 79 q 528 140 402 79 l 528 43 q 415 2 480 17 q 285 -14 349 -14 q 106 37 170 -14 q 43 176 43 87 q 93 317 43 262 q 245 390 143 372 l 245 395 q 169 453 195 414 q 142 545 142 492 q 177 657 142 609 q 273 730 212 705 q 412 755 335 755 q 627 707 534 755 l 585 618 q 505 648 553 637 q 418 660 458 660 q 293 627 337 660 q 249 534 249 595 q 284 461 249 487 q 380 435 319 435 l 465 435 l 444 336 m 376 861 q 444 998 407 918 q 496 1121 481 1078 l 620 1121 l 620 1101 q 549 980 603 1061 q 446 842 494 899 l 376 842 l 376 861 z "},"ή":{"ha":802,"x_min":40,"x_max":722,"o":"m 422 -334 l 595 469 q 608 567 608 540 q 584 635 608 610 q 507 661 560 661 q 390 621 447 661 q 289 505 332 580 q 222 322 245 429 l 154 0 l 40 0 l 199 743 l 293 743 l 278 606 l 285 606 q 411 723 350 688 q 536 757 471 757 q 672 710 623 757 q 722 578 722 663 q 707 456 722 524 l 536 -334 l 422 -334 m 429 861 q 497 998 460 918 q 550 1121 534 1078 l 673 1121 l 673 1101 q 602 980 656 1061 q 500 842 548 899 l 429 842 l 429 861 z "},"ί":{"ha":424,"x_min":71,"x_max":467,"o":"m 258 79 q 353 97 291 79 l 353 9 q 298 -6 332 1 q 239 -14 264 -14 q 114 27 157 -14 q 71 147 71 67 q 77 206 71 170 q 189 743 83 242 l 302 743 l 197 244 q 186 160 186 193 q 258 79 186 79 m 223 861 q 291 998 254 918 q 344 1121 328 1078 l 467 1121 l 467 1101 q 396 980 450 1061 q 294 842 342 899 l 223 842 l 223 861 z "},"ΰ":{"ha":800,"x_min":90,"x_max":745,"o":"m 345 -14 q 156 50 222 -14 q 90 229 90 113 q 97 306 90 262 q 187 743 104 349 l 301 743 l 227 387 q 204 235 204 287 q 244 116 204 153 q 351 79 283 79 q 503 152 440 79 q 598 372 565 224 q 631 743 631 519 l 745 743 q 345 -14 745 -14 m 435 957 q 542 1164 507 1084 l 674 1164 l 674 1150 q 588 1045 640 1103 q 486 942 536 987 l 435 942 l 435 957 m 288 935 q 308 989 288 968 q 357 1011 327 1011 q 410 957 410 1011 q 390 900 410 923 q 343 878 369 878 q 304 892 319 878 q 288 935 288 907 m 562 935 q 581 988 562 966 q 631 1011 600 1011 q 684 957 684 1011 q 664 901 684 924 q 617 878 644 878 q 577 892 593 878 q 562 935 562 907 z "},"α":{"ha":790,"x_min":66,"x_max":787,"o":"m 428 757 q 544 724 495 757 q 619 628 593 691 l 628 628 q 696 743 665 709 l 787 743 q 732 597 762 692 q 685 422 703 502 l 636 204 q 625 127 625 158 q 637 91 625 104 q 669 78 648 78 q 714 86 688 78 l 714 4 q 675 -8 701 -3 q 632 -14 648 -14 q 511 117 511 -14 l 511 126 l 505 126 q 388 19 445 52 q 268 -14 330 -14 q 120 53 174 -14 q 66 237 66 120 q 114 500 66 379 q 244 689 161 621 q 428 757 327 757 m 304 81 q 433 143 370 81 q 537 306 497 205 q 576 509 576 407 q 538 620 576 578 q 439 661 500 661 q 311 605 370 661 q 218 450 252 549 q 183 235 183 351 q 215 119 183 157 q 304 81 247 81 z "},"β":{"ha":802,"x_min":-31,"x_max":781,"o":"m -31 -334 l 199 741 q 267 925 225 859 q 374 1027 309 992 q 533 1063 439 1063 q 715 1000 650 1063 q 781 828 781 938 q 721 648 781 718 q 543 550 661 577 q 671 470 627 530 q 715 319 715 410 q 625 77 715 168 q 383 -14 534 -14 q 274 4 325 -14 q 168 64 224 21 l 83 -334 l -31 -334 m 521 968 q 390 917 440 968 q 313 739 340 866 l 184 139 q 271 96 220 113 q 376 79 322 79 q 498 110 446 79 q 578 194 551 140 q 606 313 606 248 q 403 505 606 505 l 357 505 l 378 602 l 427 602 q 604 658 543 602 q 665 821 665 715 q 628 928 665 888 q 521 968 590 968 z "},"γ":{"ha":637,"x_min":57,"x_max":703,"o":"m 176 -334 l 57 -334 q 182 8 85 -178 l 66 743 l 182 743 l 236 342 q 254 100 254 199 l 257 100 q 366 338 307 224 l 582 743 l 703 743 l 307 14 q 176 -334 213 -158 z "},"δ":{"ha":768,"x_min":50,"x_max":766,"o":"m 404 643 q 311 746 338 696 q 283 851 283 796 q 351 1004 283 945 q 528 1063 418 1063 q 766 985 652 1063 l 721 903 q 607 957 648 945 q 526 970 566 970 q 426 939 460 970 q 392 851 392 909 q 402 798 392 821 q 433 751 412 774 q 511 682 454 728 q 646 532 607 605 q 685 367 685 458 q 640 172 685 260 q 513 35 595 84 q 323 -14 431 -14 q 124 59 199 -14 q 50 252 50 132 q 140 498 50 398 q 404 643 230 597 m 336 81 q 505 160 440 81 q 570 366 570 239 q 547 487 570 434 q 471 586 524 541 q 244 470 323 552 q 165 268 165 387 q 209 131 165 180 q 336 81 253 81 z "},"ε":{"ha":618,"x_min":43,"x_max":627,"o":"m 444 336 l 368 336 q 209 300 263 336 q 155 195 155 263 q 194 109 155 138 q 302 79 233 79 q 528 140 402 79 l 528 43 q 415 2 480 17 q 285 -14 349 -14 q 106 37 170 -14 q 43 176 43 87 q 93 317 43 262 q 245 390 143 372 l 245 395 q 169 453 195 414 q 142 545 142 492 q 177 657 142 609 q 273 730 212 705 q 412 755 335 755 q 627 707 534 755 l 585 618 q 505 648 553 637 q 418 660 458 660 q 293 627 337 660 q 249 534 249 595 q 284 461 249 487 q 380 435 319 435 l 465 435 l 444 336 z "},"ζ":{"ha":629,"x_min":66,"x_max":729,"o":"m 66 261 q 180 566 66 405 q 578 965 294 728 q 399 957 500 957 l 260 957 l 281 1055 l 729 1055 l 710 965 l 589 859 q 275 529 366 664 q 183 278 183 393 q 213 166 183 205 q 323 92 243 126 q 460 10 425 50 q 496 -90 496 -30 q 469 -184 496 -138 q 380 -283 443 -231 l 261 -283 q 361 -180 336 -218 q 386 -106 386 -142 q 363 -54 386 -75 q 257 1 340 -33 q 108 104 149 47 q 66 261 66 161 z "},"η":{"ha":802,"x_min":40,"x_max":722,"o":"m 422 -334 l 595 469 q 608 567 608 540 q 584 635 608 610 q 507 661 560 661 q 390 621 447 661 q 289 505 332 580 q 222 322 245 429 l 154 0 l 40 0 l 199 743 l 293 743 l 278 606 l 285 606 q 411 723 350 688 q 536 757 471 757 q 672 710 623 757 q 722 578 722 663 q 707 456 722 524 l 536 -334 l 422 -334 z "},"θ":{"ha":754,"x_min":66,"x_max":728,"o":"m 290 -14 q 125 57 184 -14 q 66 273 66 127 q 128 666 66 455 q 283 974 190 877 q 507 1071 376 1071 q 728 771 728 1071 q 668 394 728 602 q 514 86 608 186 q 290 -14 420 -14 m 304 83 q 462 182 396 83 q 578 496 528 281 l 200 496 q 178 286 178 381 q 209 131 178 179 q 304 83 240 83 m 493 974 q 337 884 403 974 q 221 595 272 795 l 597 595 q 615 775 615 682 q 493 974 615 974 z "},"ι":{"ha":424,"x_min":71,"x_max":353,"o":"m 258 79 q 353 97 291 79 l 353 9 q 298 -6 332 1 q 239 -14 264 -14 q 114 27 157 -14 q 71 147 71 67 q 77 206 71 170 q 189 743 83 242 l 302 743 l 197 244 q 186 160 186 193 q 258 79 186 79 z "},"κ":{"ha":677,"x_min":39,"x_max":717,"o":"m 224 379 l 581 743 l 717 743 l 399 427 l 599 0 l 472 0 l 313 355 l 210 272 l 154 0 l 39 0 l 196 743 l 311 743 l 269 553 q 260 512 265 532 q 221 379 255 492 l 224 379 z "},"λ":{"ha":671,"x_min":-79,"x_max":608,"o":"m 343 730 l 330 831 q 298 937 322 905 q 228 970 273 970 q 158 962 191 970 l 144 1053 q 236 1064 187 1064 q 341 1044 301 1064 q 404 980 382 1023 q 435 856 425 937 l 515 144 q 562 78 523 78 q 608 86 585 78 l 608 1 q 573 -9 595 -5 q 533 -14 551 -14 q 444 20 472 -14 q 408 125 416 54 l 379 400 q 367 612 367 504 q 285 435 330 516 l 40 0 l -79 0 l 343 730 z "},"μ":{"ha":810,"x_min":-29,"x_max":766,"o":"m 200 180 q 300 81 200 81 q 416 121 360 81 q 517 237 473 161 q 585 419 562 313 l 656 743 l 766 743 l 608 0 l 514 0 l 530 139 l 522 139 q 398 22 459 57 q 271 -14 337 -14 q 160 52 195 -14 l 154 52 q 139 -49 146 -1 q 82 -334 131 -96 l -29 -334 l 199 743 l 313 743 l 212 272 q 200 180 200 210 z "},"ν":{"ha":679,"x_min":66,"x_max":693,"o":"m 66 743 l 180 743 l 231 318 q 249 98 242 209 q 450 362 370 208 q 581 743 530 517 l 693 743 q 546 323 642 496 q 278 0 449 150 l 158 0 l 66 743 z "},"ξ":{"ha":618,"x_min":56,"x_max":679,"o":"m 558 509 l 504 509 q 334 478 410 509 q 215 392 258 448 q 172 258 172 336 q 203 158 172 195 q 322 87 235 122 q 488 -89 488 28 q 463 -181 488 -136 q 374 -283 438 -227 l 250 -283 q 350 -182 324 -219 q 375 -107 375 -146 q 351 -51 375 -74 q 240 4 327 -28 q 99 98 142 41 q 56 245 56 155 q 133 444 56 363 q 347 555 210 526 l 347 559 q 237 626 274 581 q 200 736 200 671 q 262 878 200 814 q 424 965 323 941 l 393 962 q 286 957 347 957 l 248 957 l 268 1055 l 679 1055 l 660 965 l 656 965 q 484 937 564 965 q 357 859 404 909 q 310 745 310 809 q 515 599 310 599 l 578 599 l 558 509 z "},"ο":{"ha":779,"x_min":66,"x_max":714,"o":"m 436 753 q 640 676 565 753 q 714 467 714 600 q 665 226 714 339 q 533 51 616 113 q 345 -11 450 -11 q 140 66 214 -11 q 66 275 66 142 q 116 518 66 404 q 250 692 165 631 q 436 753 334 753 m 596 482 q 554 609 596 560 q 439 657 511 657 q 306 607 365 657 q 215 468 248 557 q 183 269 183 378 q 226 132 183 180 q 350 83 269 83 q 477 133 420 83 q 565 274 533 182 q 596 482 596 365 z "},"π":{"ha":833,"x_min":52,"x_max":861,"o":"m 640 79 q 697 90 670 79 l 697 0 q 607 -14 650 -14 q 513 18 545 -14 q 481 104 481 50 q 493 201 481 146 l 585 644 l 317 644 l 178 0 l 62 0 l 201 644 l 52 644 l 60 689 l 193 743 l 861 743 l 840 644 l 699 644 l 604 191 q 596 123 596 151 q 607 92 596 104 q 640 79 618 79 z "},"ρ":{"ha":793,"x_min":-29,"x_max":725,"o":"m 725 463 q 677 220 725 336 q 550 46 630 105 q 370 -14 471 -14 q 261 6 310 -14 q 164 72 212 25 q 153 3 159 40 q 83 -334 146 -35 l -29 -334 l 135 441 q 463 755 199 755 q 658 681 591 755 q 725 463 725 606 m 456 661 q 322 605 374 661 q 241 414 271 548 l 186 155 q 359 81 260 81 q 489 132 432 81 q 578 274 546 183 q 610 464 610 365 q 570 611 610 562 q 456 661 530 661 z "},"ς":{"ha":629,"x_min":66,"x_max":636,"o":"m 183 297 q 198 200 183 239 q 245 134 214 161 q 340 83 277 108 q 465 7 431 48 q 498 -94 498 -34 q 472 -188 498 -142 q 383 -292 446 -235 l 261 -292 q 355 -192 325 -235 q 386 -106 386 -149 q 363 -50 386 -71 q 265 -1 340 -29 q 114 110 161 37 q 66 286 66 182 q 119 526 66 415 q 258 697 171 637 q 456 757 345 757 q 636 722 546 757 l 604 627 q 538 650 576 638 q 452 661 500 661 q 317 614 377 661 q 220 478 256 566 q 183 297 183 390 z "},"σ":{"ha":807,"x_min":66,"x_max":827,"o":"m 692 407 q 645 190 692 289 q 520 40 598 90 q 340 -11 443 -11 q 136 67 205 -11 q 66 296 66 145 q 177 624 66 505 q 486 743 288 743 l 827 743 l 807 644 l 627 644 q 667 559 656 591 q 685 491 679 528 q 692 407 692 455 m 482 644 q 260 555 336 644 q 183 297 183 466 q 225 137 183 191 q 349 83 267 83 q 519 176 459 83 q 579 436 579 269 q 530 644 579 564 l 482 644 z "},"τ":{"ha":581,"x_min":52,"x_max":624,"o":"m 357 79 q 454 97 393 79 l 454 9 q 398 -7 432 0 q 342 -14 363 -14 q 212 27 257 -14 q 167 147 167 67 q 186 279 167 191 l 262 644 l 52 644 l 60 689 l 193 743 l 624 743 l 603 644 l 378 644 l 298 275 q 282 158 282 200 q 302 99 282 119 q 357 79 321 79 z "},"υ":{"ha":800,"x_min":90,"x_max":745,"o":"m 345 -14 q 156 50 222 -14 q 90 229 90 113 q 97 306 90 262 q 187 743 104 349 l 301 743 l 227 387 q 204 235 204 287 q 244 116 204 153 q 351 79 283 79 q 503 152 440 79 q 598 372 565 224 q 631 743 631 519 l 745 743 q 345 -14 745 -14 z "},"φ":{"ha":930,"x_min":66,"x_max":864,"o":"m 318 -12 q 133 78 199 1 q 66 281 66 155 q 120 526 66 415 q 293 749 174 636 l 366 681 q 223 494 267 586 q 179 293 179 403 q 339 81 179 101 l 431 517 q 516 699 457 642 q 669 755 574 755 q 815 690 766 755 q 864 509 864 625 q 810 239 864 356 q 659 57 755 121 q 429 -16 562 -7 l 363 -334 l 250 -334 l 318 -12 m 750 504 q 663 660 750 660 q 587 625 614 660 q 542 501 560 589 l 452 81 q 608 142 542 90 q 712 292 675 195 q 750 504 750 388 z "},"χ":{"ha":699,"x_min":-155,"x_max":746,"o":"m 167 745 q 272 705 235 745 q 321 574 309 666 l 349 335 l 627 743 l 746 743 l 374 207 l 419 -131 q 448 -218 429 -194 q 507 -241 467 -241 q 561 -233 533 -241 l 561 -318 q 473 -334 516 -334 q 366 -291 404 -334 q 314 -144 327 -248 l 282 107 l -26 -334 l -155 -334 l 257 231 l 216 557 q 192 632 210 610 q 143 653 174 653 q 97 643 132 653 l 77 726 q 167 745 124 745 z "},"ψ":{"ha":991,"x_min":97,"x_max":937,"o":"m 696 1054 l 490 86 q 679 169 605 98 q 786 376 752 239 q 821 743 821 512 l 937 743 q 887 319 937 478 q 734 80 838 160 q 469 -9 631 0 l 401 -334 l 289 -334 l 358 -9 q 164 69 232 2 q 97 254 97 136 q 115 399 97 317 l 187 743 l 301 743 l 229 396 q 212 268 212 317 q 254 136 212 180 q 378 83 295 92 l 583 1054 l 696 1054 z "},"ω":{"ha":1014,"x_min":66,"x_max":949,"o":"m 256 -14 q 116 53 166 -14 q 66 235 66 119 q 113 488 66 357 q 244 743 159 618 l 364 743 q 183 237 183 465 q 282 82 183 82 q 429 265 390 82 l 473 472 l 586 472 l 545 283 q 533 195 533 233 q 556 111 533 139 q 619 82 578 82 q 727 136 680 82 q 804 298 775 191 q 832 524 832 406 q 814 743 832 645 l 928 743 q 949 528 949 644 q 905 249 949 380 q 786 52 861 118 q 614 -14 712 -14 q 511 19 551 -14 q 456 106 471 52 q 371 16 418 46 q 256 -14 323 -14 z "},"ϊ":{"ha":424,"x_min":71,"x_max":463,"o":"m 258 79 q 353 97 291 79 l 353 9 q 298 -6 332 1 q 239 -14 264 -14 q 114 27 157 -14 q 71 147 71 67 q 77 206 71 170 q 189 743 83 242 l 302 743 l 197 244 q 186 160 186 193 q 258 79 186 79 m 94 935 q 113 988 94 966 q 163 1011 132 1011 q 216 957 216 1011 q 196 901 216 924 q 150 878 176 878 q 110 892 126 878 q 94 935 94 907 m 341 935 q 360 988 341 966 q 411 1011 379 1011 q 463 957 463 1011 q 443 901 463 924 q 397 878 423 878 q 357 892 373 878 q 341 935 341 907 z "},"ϋ":{"ha":800,"x_min":90,"x_max":745,"o":"m 345 -14 q 156 50 222 -14 q 90 229 90 113 q 97 306 90 262 q 187 743 104 349 l 301 743 l 227 387 q 204 235 204 287 q 244 116 204 153 q 351 79 283 79 q 503 152 440 79 q 598 372 565 224 q 631 743 631 519 l 745 743 q 345 -14 745 -14 m 305 935 q 324 988 305 966 q 374 1011 343 1011 q 427 957 427 1011 q 407 901 427 924 q 361 878 387 878 q 321 892 337 878 q 305 935 305 907 m 552 935 q 571 988 552 966 q 622 1011 590 1011 q 674 957 674 1011 q 654 901 674 924 q 608 878 634 878 q 568 892 584 878 q 552 935 552 907 z "},"ό":{"ha":779,"x_min":66,"x_max":714,"o":"m 436 753 q 640 676 565 753 q 714 467 714 600 q 665 226 714 339 q 533 51 616 113 q 345 -11 450 -11 q 140 66 214 -11 q 66 275 66 142 q 116 518 66 404 q 250 692 165 631 q 436 753 334 753 m 596 482 q 554 609 596 560 q 439 657 511 657 q 306 607 365 657 q 215 468 248 557 q 183 269 183 378 q 226 132 183 180 q 350 83 269 83 q 477 133 420 83 q 565 274 533 182 q 596 482 596 365 m 424 861 q 492 998 455 918 q 545 1121 529 1078 l 668 1121 l 668 1101 q 597 980 651 1061 q 494 842 543 899 l 424 842 l 424 861 z "},"ύ":{"ha":800,"x_min":90,"x_max":745,"o":"m 345 -14 q 156 50 222 -14 q 90 229 90 113 q 97 306 90 262 q 187 743 104 349 l 301 743 l 227 387 q 204 235 204 287 q 244 116 204 153 q 351 79 283 79 q 503 152 440 79 q 598 372 565 224 q 631 743 631 519 l 745 743 q 345 -14 745 -14 m 414 861 q 482 998 445 918 q 534 1121 519 1078 l 658 1121 l 658 1101 q 587 980 641 1061 q 484 842 532 899 l 414 842 l 414 861 z "},"ώ":{"ha":1014,"x_min":66,"x_max":949,"o":"m 256 -14 q 116 53 166 -14 q 66 235 66 119 q 113 488 66 357 q 244 743 159 618 l 364 743 q 183 237 183 465 q 282 82 183 82 q 429 265 390 82 l 473 472 l 586 472 l 545 283 q 533 195 533 233 q 556 111 533 139 q 619 82 578 82 q 727 136 680 82 q 804 298 775 191 q 832 524 832 406 q 814 743 832 645 l 928 743 q 949 528 949 644 q 905 249 949 380 q 786 52 861 118 q 614 -14 712 -14 q 511 19 551 -14 q 456 106 471 52 q 371 16 418 46 q 256 -14 323 -14 m 541 861 q 609 998 572 918 q 661 1121 646 1078 l 785 1121 l 785 1101 q 713 980 768 1061 q 611 842 659 899 l 541 842 l 541 861 z "},"Ё":{"ha":710,"x_min":58,"x_max":766,"o":"m 557 0 l 58 0 l 268 991 l 766 991 l 745 888 l 361 888 l 294 570 l 652 570 l 632 467 l 273 467 l 196 103 l 579 103 l 557 0 m 355 1164 q 374 1218 355 1195 q 424 1240 393 1240 q 477 1186 477 1240 q 457 1130 477 1153 q 410 1107 437 1107 q 371 1122 387 1107 q 355 1164 355 1137 m 602 1164 q 621 1218 602 1195 q 671 1240 640 1240 q 724 1186 724 1240 q 704 1130 724 1153 q 657 1107 684 1107 q 617 1122 633 1107 q 602 1164 602 1137 z "},"Ђ":{"ha":926,"x_min":126,"x_max":827,"o":"m 546 -14 q 453 0 498 -14 l 453 103 q 539 89 494 89 q 638 122 602 89 q 692 241 674 156 q 711 386 711 345 q 676 474 711 446 q 567 503 640 503 l 378 503 l 272 0 l 155 0 l 345 889 l 126 889 l 149 991 l 760 991 l 739 889 l 461 889 l 400 606 l 575 606 q 827 397 827 606 q 814 275 827 340 l 804 227 q 717 44 779 102 q 546 -14 654 -14 z "},"Ѓ":{"ha":661,"x_min":58,"x_max":766,"o":"m 175 0 l 58 0 l 268 991 l 766 991 l 746 888 l 363 888 l 175 0 m 446 1089 q 531 1192 484 1130 q 603 1293 578 1254 l 732 1293 l 732 1279 q 637 1177 706 1246 q 517 1071 568 1107 l 446 1071 l 446 1089 z "},"Є":{"ha":812,"x_min":102,"x_max":875,"o":"m 639 903 q 399 814 500 903 q 254 572 298 726 l 676 572 l 656 469 l 232 469 q 225 367 225 427 q 290 162 225 235 q 473 89 355 89 q 692 127 568 89 l 692 26 q 581 -4 633 5 q 453 -14 528 -14 q 194 86 286 -14 q 102 364 102 185 q 173 693 102 541 q 366 926 245 846 q 639 1006 486 1006 q 875 951 772 1006 l 828 856 q 639 903 734 903 z "},"Ѕ":{"ha":697,"x_min":26,"x_max":718,"o":"m 619 288 q 524 65 619 144 q 256 -14 429 -14 q 129 -4 184 -14 q 26 29 75 6 l 26 144 q 257 87 136 87 q 431 139 367 87 q 496 279 496 190 q 460 373 496 332 q 328 468 425 413 q 185 583 225 526 q 146 720 146 641 q 235 926 146 846 q 471 1006 325 1006 q 596 993 538 1006 q 718 949 654 980 l 673 847 q 573 888 629 873 q 471 903 517 903 q 325 856 380 903 q 269 728 269 808 q 281 665 269 691 q 317 616 292 639 q 414 551 342 593 q 548 458 513 492 q 601 383 583 424 q 619 288 619 342 z "},"Ј":{"ha":371,"x_min":-216,"x_max":383,"o":"m -113 -261 q -216 -244 -184 -261 l -212 -144 q -114 -158 -165 -158 q -2 -116 -46 -158 q 60 8 43 -73 l 268 991 l 383 991 l 174 -4 q -113 -261 120 -261 z "},"Љ":{"ha":1235,"x_min":-45,"x_max":1153,"o":"m 503 888 q 392 482 452 690 q 289 173 332 274 q 186 28 245 72 q 40 -16 127 -16 q -45 0 -12 -16 l -45 102 q 25 87 -9 87 q 117 117 81 87 q 184 218 153 147 q 266 448 216 288 q 418 991 315 608 l 869 991 l 781 568 l 854 568 q 1153 326 1153 568 q 1052 85 1153 170 q 764 0 951 0 l 545 0 l 732 888 l 503 888 m 782 98 q 1034 315 1034 98 q 990 431 1034 393 q 856 468 947 468 l 760 468 l 681 98 l 782 98 z "},"Њ":{"ha":1253,"x_min":58,"x_max":1171,"o":"m 772 991 l 888 991 l 798 570 l 872 570 q 1171 326 1171 570 q 1070 85 1171 170 q 782 0 970 0 l 562 0 l 660 467 l 272 467 l 174 0 l 58 0 l 268 991 l 383 991 l 294 570 l 682 570 l 772 991 m 800 98 q 1051 315 1051 98 q 1009 429 1051 391 q 873 467 968 467 l 778 467 l 699 98 l 800 98 z "},"Ћ":{"ha":926,"x_min":126,"x_max":827,"o":"m 711 387 q 676 475 711 448 q 567 503 640 503 l 378 503 l 272 0 l 155 0 l 345 889 l 126 889 l 149 991 l 760 991 l 739 889 l 461 889 l 400 606 l 585 606 q 768 553 709 606 q 827 395 827 500 q 820 330 827 368 q 753 0 814 292 l 636 0 l 697 282 q 711 387 711 345 z "},"Ќ":{"ha":777,"x_min":58,"x_max":901,"o":"m 722 0 l 589 0 l 277 492 l 174 0 l 58 0 l 268 991 l 383 991 l 281 509 l 758 991 l 901 991 l 401 496 l 722 0 m 493 1089 q 578 1192 531 1130 q 650 1293 625 1254 l 779 1293 l 779 1279 q 684 1177 753 1246 q 564 1071 615 1107 l 493 1071 l 493 1089 z "},"Ў":{"ha":794,"x_min":-3,"x_max":922,"o":"m 110 -14 q 51 -8 83 -14 q -3 5 18 -3 l -3 119 q 109 93 59 93 q 235 135 180 93 q 355 285 289 176 l 146 991 l 262 991 l 383 555 q 431 359 416 432 q 515 526 472 452 l 790 991 l 922 991 l 460 243 q 296 46 376 105 q 110 -14 216 -14 m 807 1282 q 527 1071 768 1071 q 367 1112 421 1071 q 313 1235 313 1154 q 319 1282 313 1257 l 418 1282 q 414 1242 414 1259 q 532 1156 414 1156 q 647 1185 608 1156 q 697 1282 685 1215 l 807 1282 z "},"Џ":{"ha":943,"x_min":58,"x_max":950,"o":"m 268 991 l 385 991 l 197 103 l 646 103 l 833 991 l 950 991 l 741 0 l 454 0 l 400 -258 l 290 -258 l 346 0 l 58 0 l 268 991 z "},"А":{"ha":771,"x_min":-79,"x_max":705,"o":"m 551 315 l 215 315 l 49 0 l -79 0 l 463 991 l 581 991 l 705 0 l 590 0 l 551 315 m 539 421 l 515 624 q 496 861 499 745 q 441 743 471 802 q 272 421 412 684 l 539 421 z "},"Б":{"ha":783,"x_min":61,"x_max":766,"o":"m 400 568 q 699 326 699 568 q 598 85 699 170 q 310 0 498 0 l 61 0 l 271 991 l 766 991 l 745 888 l 366 888 l 297 568 l 400 568 m 328 98 q 579 315 579 98 q 537 430 579 393 q 401 468 494 468 l 277 468 l 197 98 l 328 98 z "},"В":{"ha":831,"x_min":58,"x_max":815,"o":"m 522 991 q 815 764 815 991 q 756 602 815 668 q 590 517 697 536 l 590 510 q 710 435 668 488 q 751 307 751 382 q 648 82 751 163 q 372 0 545 0 l 58 0 l 268 991 l 522 991 m 294 567 l 463 567 q 631 616 568 567 q 694 751 694 666 q 649 857 694 822 q 507 892 604 892 l 364 892 l 294 567 m 195 98 l 375 98 q 564 153 498 98 q 629 307 629 208 q 579 428 629 386 q 433 469 528 469 l 273 469 l 195 98 z "},"Г":{"ha":661,"x_min":58,"x_max":766,"o":"m 175 0 l 58 0 l 268 991 l 766 991 l 746 888 l 363 888 l 175 0 z "},"Д":{"ha":863,"x_min":-115,"x_max":856,"o":"m 607 -257 l 661 0 l 46 0 l -8 -257 l -115 -257 l -39 104 l 31 104 q 217 405 125 235 q 372 728 309 574 q 463 991 436 882 l 856 991 l 668 104 l 794 104 l 717 -257 l 607 -257 m 717 886 l 547 886 q 378 480 495 718 q 161 104 261 243 l 550 104 l 717 886 z "},"Е":{"ha":710,"x_min":58,"x_max":766,"o":"m 557 0 l 58 0 l 268 991 l 766 991 l 745 888 l 361 888 l 294 570 l 652 570 l 632 467 l 273 467 l 196 103 l 579 103 l 557 0 z "},"Ж":{"ha":1078,"x_min":-68,"x_max":1204,"o":"m 396 521 l 149 991 l 275 991 l 519 518 l 619 991 l 732 991 l 632 518 l 1064 991 l 1204 991 l 747 493 l 1002 0 l 872 0 l 627 496 l 522 0 l 410 0 l 514 496 l 74 0 l -68 0 l 396 521 z "},"З":{"ha":739,"x_min":-4,"x_max":721,"o":"m 721 786 q 653 609 721 682 q 468 513 585 536 l 468 509 q 608 439 555 496 q 660 290 660 383 q 611 132 660 202 q 473 24 563 62 q 261 -14 383 -14 q -4 40 109 -14 l -4 153 q 122 102 49 122 q 271 82 195 82 q 466 140 396 82 q 536 296 536 198 q 318 464 536 464 l 172 464 l 192 559 l 328 559 q 528 616 454 559 q 602 771 602 672 q 559 876 602 843 q 446 909 517 909 q 207 829 332 909 l 158 913 q 308 984 235 963 q 468 1006 380 1006 q 653 947 585 1006 q 721 786 721 888 z "},"И":{"ha":968,"x_min":58,"x_max":975,"o":"m 268 991 l 379 991 l 261 437 l 200 170 l 203 170 l 840 991 l 975 991 l 765 0 l 656 0 l 774 559 q 838 838 814 755 l 835 838 l 193 0 l 58 0 l 268 991 z "},"Й":{"ha":968,"x_min":58,"x_max":975,"o":"m 268 991 l 379 991 l 261 437 l 200 170 l 203 170 l 840 991 l 975 991 l 765 0 l 656 0 l 774 559 q 838 838 814 755 l 835 838 l 193 0 l 58 0 l 268 991 m 895 1282 q 614 1071 856 1071 q 454 1112 509 1071 q 400 1235 400 1154 q 407 1282 400 1257 l 506 1282 q 502 1242 502 1259 q 620 1156 502 1156 q 734 1185 696 1156 q 785 1282 772 1215 l 895 1282 z "},"К":{"ha":777,"x_min":58,"x_max":901,"o":"m 722 0 l 589 0 l 277 492 l 174 0 l 58 0 l 268 991 l 383 991 l 281 509 l 758 991 l 901 991 l 401 496 l 722 0 z "},"Л":{"ha":895,"x_min":-45,"x_max":901,"o":"m 503 888 q 392 482 452 690 q 289 173 332 274 q 186 28 245 72 q 40 -16 127 -16 q -45 0 -12 -16 l -45 102 q 25 87 -9 87 q 117 117 81 87 q 184 218 153 147 q 266 448 216 288 q 418 991 315 608 l 901 991 l 690 0 l 574 0 l 762 888 l 503 888 z "},"М":{"ha":1162,"x_min":57,"x_max":1166,"o":"m 458 0 l 346 879 l 340 879 q 321 745 336 830 q 296 610 307 660 l 167 0 l 57 0 l 267 991 l 432 991 l 533 175 l 539 175 l 986 991 l 1166 991 l 961 0 l 843 0 q 974 614 928 400 q 1038 880 1019 828 l 1034 880 l 547 0 l 458 0 z "},"Н":{"ha":942,"x_min":58,"x_max":946,"o":"m 736 0 l 623 0 l 720 467 l 272 467 l 174 0 l 58 0 l 268 991 l 383 991 l 294 570 l 742 570 l 832 991 l 946 991 l 736 0 z "},"О":{"ha":1000,"x_min":102,"x_max":957,"o":"m 957 615 q 897 289 957 433 q 726 65 838 144 q 469 -14 615 -14 q 199 88 296 -14 q 102 372 102 189 q 167 699 102 551 q 346 927 232 847 q 602 1007 459 1007 q 862 903 767 1007 q 957 615 957 798 m 593 904 q 402 836 486 904 q 272 645 318 767 q 225 375 225 523 q 292 164 225 240 q 472 89 358 89 q 657 155 575 89 q 786 345 739 221 q 833 618 833 468 q 770 828 833 753 q 593 904 706 904 z "},"П":{"ha":943,"x_min":58,"x_max":950,"o":"m 741 0 l 623 0 l 810 889 l 361 889 l 174 0 l 58 0 l 268 991 l 950 991 l 741 0 z "},"Р":{"ha":786,"x_min":58,"x_max":786,"o":"m 786 736 q 675 479 786 568 q 349 390 564 390 l 257 390 l 174 0 l 58 0 l 268 991 l 492 991 q 711 927 637 991 q 786 736 786 863 m 278 489 l 368 489 q 591 551 515 489 q 667 732 667 612 q 620 854 667 817 q 475 892 572 892 l 364 892 l 278 489 z "},"С":{"ha":812,"x_min":102,"x_max":875,"o":"m 639 903 q 428 837 521 903 q 280 644 334 771 q 225 367 225 517 q 291 164 225 240 q 473 89 357 89 q 692 127 568 89 l 692 26 q 581 -4 633 5 q 453 -14 528 -14 q 195 88 289 -14 q 102 364 102 189 q 173 693 102 541 q 366 926 245 846 q 639 1006 486 1006 q 875 951 772 1006 l 828 856 q 639 903 734 903 z "},"Т":{"ha":692,"x_min":126,"x_max":817,"o":"m 330 0 l 214 0 l 401 889 l 126 889 l 149 991 l 817 991 l 796 889 l 519 889 l 330 0 z "},"У":{"ha":794,"x_min":-3,"x_max":922,"o":"m 110 -14 q 51 -8 83 -14 q -3 5 18 -3 l -3 119 q 109 93 59 93 q 235 135 180 93 q 355 285 289 176 l 146 991 l 262 991 l 383 555 q 431 359 416 432 q 515 526 472 452 l 790 991 l 922 991 l 460 243 q 296 46 376 105 q 110 -14 216 -14 z "},"Ф":{"ha":1034,"x_min":102,"x_max":990,"o":"m 375 -14 l 408 139 q 181 230 261 149 q 102 450 102 310 q 221 762 102 647 q 567 884 341 877 l 591 1006 l 711 1006 l 686 884 q 911 795 832 875 q 990 579 990 716 q 933 350 990 450 q 772 197 876 250 q 528 139 668 144 l 494 -14 l 375 -14 m 549 239 q 788 336 703 248 q 872 572 872 425 q 818 724 872 670 q 664 782 764 778 l 549 239 m 545 782 q 368 742 441 782 q 257 628 295 701 q 220 457 220 555 q 274 299 220 357 q 428 239 329 241 l 545 782 z "},"Х":{"ha":721,"x_min":-71,"x_max":836,"o":"m 648 0 l 526 0 l 382 435 l 56 0 l -71 0 l 334 526 l 155 991 l 272 991 l 410 610 l 710 991 l 836 991 l 460 521 l 648 0 z "},"Ц":{"ha":924,"x_min":57,"x_max":928,"o":"m 852 106 l 775 -257 l 665 -257 l 720 0 l 57 0 l 267 991 l 383 991 l 196 104 l 624 104 l 811 991 l 928 991 l 741 106 l 852 106 z "},"Ч":{"ha":888,"x_min":170,"x_max":895,"o":"m 568 0 l 654 407 q 383 347 519 347 q 223 396 277 347 q 170 534 170 444 q 184 648 170 585 l 258 991 l 374 991 l 301 650 q 288 557 288 582 q 315 477 288 504 q 411 450 343 450 q 523 461 462 450 q 676 504 585 473 l 778 991 l 895 991 l 685 0 l 568 0 z "},"Ш":{"ha":1326,"x_min":57,"x_max":1333,"o":"m 57 0 l 267 991 l 383 991 l 195 104 l 555 104 l 743 991 l 859 991 l 671 104 l 1031 104 l 1218 991 l 1333 991 l 1124 0 l 57 0 z "},"Щ":{"ha":1329,"x_min":57,"x_max":1333,"o":"m 1258 106 l 1181 -257 l 1071 -257 l 1125 0 l 57 0 l 267 991 l 383 991 l 195 104 l 555 104 l 743 991 l 859 991 l 671 104 l 1031 104 l 1218 991 l 1333 991 l 1146 106 l 1258 106 z "},"Ъ":{"ha":868,"x_min":126,"x_max":786,"o":"m 488 568 q 786 326 786 568 q 686 85 786 170 q 397 0 585 0 l 157 0 l 345 889 l 126 889 l 149 991 l 484 991 l 393 568 l 488 568 m 415 98 q 667 315 667 98 q 624 430 667 393 q 489 468 582 468 l 372 468 l 293 98 l 415 98 z "},"Ы":{"ha":1092,"x_min":58,"x_max":1099,"o":"m 889 0 l 774 0 l 983 991 l 1099 991 l 889 0 m 385 991 l 294 568 l 389 568 q 688 326 688 568 q 587 85 688 170 q 298 0 486 0 l 58 0 l 268 991 l 385 991 m 317 98 q 568 315 568 98 q 525 431 568 393 q 390 468 482 468 l 273 468 l 195 98 l 317 98 z "},"Ь":{"ha":770,"x_min":58,"x_max":688,"o":"m 385 991 l 294 568 l 389 568 q 688 326 688 568 q 587 85 688 170 q 298 0 486 0 l 58 0 l 268 991 l 385 991 m 317 98 q 568 315 568 98 q 525 431 568 393 q 390 468 482 468 l 273 468 l 195 98 l 317 98 z "},"Э":{"ha":812,"x_min":12,"x_max":770,"o":"m 254 89 q 505 185 408 89 q 632 469 602 282 l 210 469 l 229 572 l 644 572 l 646 635 q 583 832 646 761 q 408 903 520 903 q 321 895 366 903 q 191 860 277 888 l 161 957 q 419 1006 296 1006 q 678 908 586 1006 q 770 635 770 810 q 706 284 770 432 q 526 61 643 136 q 244 -14 410 -14 q 121 -1 176 -14 q 12 40 66 12 l 12 153 q 115 110 84 120 q 180 95 146 100 q 254 89 214 89 z "},"Ю":{"ha":1360,"x_min":58,"x_max":1317,"o":"m 1317 615 q 1259 289 1317 433 q 1094 66 1202 145 q 844 -14 987 -14 q 581 88 673 -14 q 489 372 489 189 q 493 467 489 418 l 272 467 l 174 0 l 58 0 l 268 991 l 383 991 l 294 570 l 510 570 q 681 889 555 770 q 981 1007 807 1007 q 1227 904 1137 1007 q 1317 615 1317 800 m 964 904 q 781 836 862 904 q 656 646 701 767 q 612 375 612 524 q 674 164 612 239 q 848 89 735 89 q 1025 153 948 89 q 1148 342 1103 218 q 1193 618 1193 467 q 1133 829 1193 754 q 964 904 1073 904 z "},"Я":{"ha":790,"x_min":-52,"x_max":798,"o":"m 403 414 l 89 0 l -52 0 l 297 454 q 167 675 167 523 q 264 909 167 827 q 539 991 361 991 l 798 991 l 589 0 l 472 0 l 559 414 l 403 414 m 663 892 l 539 892 q 349 839 412 892 q 286 686 286 787 q 337 557 286 602 q 481 513 387 513 l 582 513 l 663 892 z "},"а":{"ha":785,"x_min":66,"x_max":760,"o":"m 433 757 q 545 723 496 757 q 621 627 593 690 l 628 627 l 673 743 l 760 743 l 602 0 l 511 0 l 529 142 l 524 142 q 268 -14 402 -14 q 120 54 174 -14 q 66 237 66 121 q 115 499 66 378 q 248 688 163 620 q 433 757 332 757 m 304 81 q 435 143 370 81 q 541 307 500 206 q 582 509 582 408 q 544 620 582 578 q 444 661 506 661 q 313 603 374 661 q 218 445 252 545 q 183 235 183 345 q 215 119 183 157 q 304 81 247 81 z "},"б":{"ha":751,"x_min":68,"x_max":799,"o":"m 68 298 q 117 610 68 450 q 244 865 165 770 q 424 990 323 961 q 599 1028 474 1006 q 785 1060 724 1050 l 799 966 l 727 955 q 467 900 547 925 q 216 566 292 842 l 220 564 q 335 657 270 623 q 471 690 401 690 q 628 624 576 690 q 681 440 681 558 q 637 199 681 304 q 515 40 593 94 q 332 -14 437 -14 q 136 65 204 -14 q 68 298 68 144 m 342 81 q 456 124 407 81 q 534 250 505 167 q 564 427 564 334 q 534 555 564 515 q 444 595 504 595 q 315 553 382 595 q 199 441 248 511 q 183 294 183 363 q 342 81 183 81 z "},"в":{"ha":747,"x_min":66,"x_max":707,"o":"m 458 755 q 642 709 577 755 q 707 568 707 662 q 517 375 707 418 l 517 372 q 624 314 591 353 q 657 214 657 275 q 622 97 657 149 q 518 16 587 45 q 357 -14 450 -14 q 141 64 215 -14 q 66 293 66 142 q 115 534 66 427 q 253 698 163 640 q 458 755 342 755 m 183 322 l 183 290 q 367 82 183 82 q 500 118 451 82 q 549 215 549 153 q 505 296 549 270 q 366 322 460 322 l 183 322 m 461 659 q 290 596 358 659 q 196 416 222 534 l 349 416 q 530 453 468 416 q 593 555 593 489 q 558 631 593 604 q 461 659 524 659 z "},"г":{"ha":635,"x_min":37,"x_max":595,"o":"m 138 703 q 275 744 216 732 q 385 755 333 755 q 541 712 487 755 q 595 586 595 669 q 543 459 595 514 q 366 355 492 404 q 221 293 255 314 q 170 245 187 271 q 153 182 153 219 q 186 109 153 136 q 290 82 219 82 q 503 139 382 82 l 503 37 q 275 -14 395 -14 q 100 36 163 -14 q 37 172 37 85 q 63 272 37 229 q 136 349 89 315 q 283 421 183 382 q 409 477 374 456 q 461 523 444 498 q 479 579 479 547 q 375 660 479 660 q 168 611 288 660 l 138 703 z "},"д":{"ha":782,"x_min":66,"x_max":730,"o":"m 730 643 q 674 312 730 470 q 524 70 618 154 q 309 -14 429 -14 q 131 57 195 -14 q 66 254 66 128 q 113 484 66 375 q 239 653 159 593 q 415 713 318 713 q 531 685 484 713 q 610 595 579 656 l 614 595 l 615 616 l 615 633 q 569 891 615 807 q 428 975 522 975 q 282 943 352 975 l 253 1026 q 345 1057 291 1045 q 441 1069 399 1069 q 659 964 587 1069 q 730 643 730 859 m 321 82 q 487 185 414 82 q 593 463 559 288 q 527 581 572 538 q 422 624 483 624 q 305 574 361 624 q 216 439 249 524 q 183 256 183 353 q 219 127 183 173 q 321 82 254 82 z "},"е":{"ha":685,"x_min":66,"x_max":643,"o":"m 334 -14 q 138 60 209 -14 q 66 265 66 134 q 117 510 66 393 q 251 692 168 627 q 435 757 334 757 q 591 712 538 757 q 643 586 643 667 q 530 394 643 464 q 208 325 418 325 l 186 325 l 183 271 q 225 132 183 182 q 354 82 267 82 q 442 94 397 82 q 554 139 487 106 l 554 40 q 441 -2 490 10 q 334 -14 393 -14 m 428 660 q 297 596 358 660 q 203 419 235 532 l 211 419 q 448 459 366 419 q 530 576 530 500 q 506 636 530 612 q 428 660 481 660 z "},"ж":{"ha":1158,"x_min":-24,"x_max":1198,"o":"m 525 332 l 415 332 q 343 151 393 229 q 222 30 294 73 q 60 -14 150 -14 q -24 -3 14 -14 l -7 92 q 61 81 29 81 q 190 133 132 81 q 282 277 248 185 q 315 468 315 370 q 280 612 315 562 q 178 661 245 661 q 102 652 144 661 l 102 745 q 195 757 161 757 q 371 684 310 757 q 432 471 432 611 l 429 419 l 543 419 l 611 743 l 715 743 l 644 419 l 755 419 q 828 599 776 519 q 950 718 880 679 q 1103 757 1020 757 q 1198 745 1156 757 l 1178 652 q 1104 661 1141 661 q 978 610 1034 661 q 889 466 922 559 q 856 273 856 373 q 889 130 856 180 q 990 81 922 81 q 1068 92 1029 81 l 1068 -3 q 977 -14 1012 -14 q 800 60 860 -14 q 739 272 739 134 q 742 332 739 310 l 627 332 l 557 0 l 454 0 l 525 332 z "},"з":{"ha":606,"x_min":-3,"x_max":568,"o":"m 257 435 q 454 567 454 435 q 425 635 454 610 q 338 660 396 660 q 249 649 293 660 q 149 612 205 638 l 113 700 q 230 743 174 729 q 353 757 286 757 q 512 711 456 757 q 568 583 568 665 q 524 459 568 509 q 393 390 479 409 l 393 387 q 519 228 519 354 q 436 52 519 117 q 207 -14 352 -14 q -3 33 85 -14 l -3 140 q 104 96 45 111 q 218 81 163 81 q 358 119 304 81 q 411 224 411 157 q 376 310 411 284 q 269 336 342 336 l 168 336 l 191 435 l 257 435 z "},"и":{"ha":802,"x_min":77,"x_max":758,"o":"m 306 743 l 204 272 q 192 178 192 212 q 292 81 192 81 q 409 121 351 81 q 511 238 467 162 q 578 421 555 314 l 646 743 l 758 743 l 602 0 l 507 0 l 522 138 l 514 138 q 387 20 448 53 q 262 -14 327 -14 q 126 34 176 -14 q 77 168 77 81 q 92 285 77 210 l 191 743 l 306 743 z "},"й":{"ha":802,"x_min":77,"x_max":768,"o":"m 306 743 l 204 272 q 192 178 192 212 q 292 81 192 81 q 409 121 351 81 q 511 238 467 162 q 578 421 555 314 l 646 743 l 758 743 l 602 0 l 507 0 l 522 138 l 514 138 q 387 20 448 53 q 262 -14 327 -14 q 126 34 176 -14 q 77 168 77 81 q 92 285 77 210 l 191 743 l 306 743 m 768 1053 q 488 842 729 842 q 328 883 382 842 q 273 1006 273 924 q 280 1053 273 1027 l 379 1053 q 375 1013 375 1029 q 493 926 375 926 q 607 956 569 926 q 658 1053 646 986 l 768 1053 z "},"к":{"ha":663,"x_min":40,"x_max":729,"o":"m 585 743 l 729 743 l 357 376 l 611 0 l 473 0 l 232 371 l 154 0 l 40 0 l 197 743 l 310 743 l 233 385 l 585 743 z "},"л":{"ha":746,"x_min":-64,"x_max":700,"o":"m 545 0 l 429 0 l 570 647 q 517 653 543 653 q 432 632 465 653 q 372 561 399 612 q 288 349 344 509 q 191 118 231 186 q 104 21 152 51 q -11 -9 57 -9 q -64 0 -43 -9 l -64 98 q -18 92 -45 92 q 56 117 25 92 q 116 201 87 143 q 189 386 146 259 q 290 625 248 561 q 387 719 331 690 q 533 749 444 749 q 700 728 618 749 l 545 0 z "},"м":{"ha":958,"x_min":41,"x_max":916,"o":"m 657 0 l 785 597 q 705 458 774 574 l 440 0 l 357 0 l 282 460 q 267 596 269 536 l 140 0 l 41 0 l 199 743 l 325 743 l 403 252 q 419 111 416 155 q 501 264 442 163 l 781 743 l 916 743 l 757 0 l 657 0 z "},"н":{"ha":832,"x_min":40,"x_max":789,"o":"m 311 743 l 245 432 l 608 432 l 675 743 l 789 743 l 632 0 l 517 0 l 587 335 l 225 335 l 154 0 l 40 0 l 199 743 l 311 743 z "},"о":{"ha":779,"x_min":66,"x_max":714,"o":"m 436 753 q 640 676 565 753 q 714 467 714 600 q 665 226 714 339 q 533 51 616 113 q 345 -11 450 -11 q 140 66 214 -11 q 66 275 66 142 q 116 518 66 404 q 250 692 165 631 q 436 753 334 753 m 596 482 q 554 609 596 560 q 439 657 511 657 q 306 607 365 657 q 215 468 248 557 q 183 269 183 378 q 226 132 183 180 q 350 83 269 83 q 477 133 420 83 q 565 274 533 182 q 596 482 596 365 z "},"п":{"ha":802,"x_min":40,"x_max":722,"o":"m 494 0 l 595 469 q 608 567 608 540 q 584 635 608 610 q 507 661 560 661 q 390 621 447 661 q 289 505 332 580 q 222 322 245 429 l 154 0 l 40 0 l 199 743 l 293 743 l 278 606 l 285 606 q 411 723 350 688 q 536 757 471 757 q 672 710 623 757 q 722 578 722 663 q 707 456 722 524 l 610 0 l 494 0 z "},"р":{"ha":802,"x_min":-29,"x_max":733,"o":"m 370 -14 q 254 20 304 -14 q 178 115 205 54 l 171 115 l 168 90 q 161 42 166 73 q 83 -334 156 12 l -29 -334 l 199 743 l 293 743 l 275 602 l 281 602 q 533 755 402 755 q 680 689 626 755 q 733 504 733 623 q 686 240 733 360 q 557 53 640 120 q 370 -14 474 -14 m 496 661 q 363 597 431 661 q 256 435 296 532 q 216 235 216 337 q 254 120 216 160 q 363 81 292 81 q 488 136 430 81 q 581 292 546 191 q 616 507 616 393 q 496 661 616 661 z "},"с":{"ha":625,"x_min":66,"x_max":636,"o":"m 343 -14 q 139 59 212 -14 q 66 264 66 132 q 117 514 66 399 q 255 693 167 629 q 454 757 344 757 q 636 722 547 757 l 604 627 q 456 661 523 661 q 317 609 380 661 q 219 465 254 557 q 183 264 183 372 q 228 129 183 177 q 353 81 273 81 q 445 94 401 81 q 530 126 488 108 l 530 29 q 343 -14 446 -14 z "},"т":{"ha":1211,"x_min":40,"x_max":1133,"o":"m 472 0 l 572 469 q 585 561 585 533 q 564 635 585 608 q 492 661 543 661 q 381 621 435 661 q 286 504 327 580 q 222 322 245 429 l 154 0 l 40 0 l 199 743 l 293 743 l 278 606 l 285 606 q 402 722 344 686 q 524 757 461 757 q 642 713 600 757 q 690 590 683 669 l 696 590 q 820 716 754 675 q 953 757 886 757 q 1086 711 1039 757 q 1133 576 1133 665 q 1118 456 1133 530 l 1021 0 l 905 0 l 1006 469 q 1019 568 1019 540 q 996 636 1019 610 q 922 661 972 661 q 814 622 867 661 q 720 510 760 583 q 659 339 680 438 l 586 0 l 472 0 z "},"у":{"ha":642,"x_min":-134,"x_max":707,"o":"m 66 743 l 180 743 l 231 374 q 244 236 237 327 q 250 89 250 144 l 254 89 q 313 224 278 148 q 366 330 349 301 l 586 743 l 707 743 l 235 -126 q 110 -288 172 -243 q -39 -334 48 -334 q -134 -319 -87 -334 l -134 -228 q -45 -240 -91 -240 q 51 -206 11 -240 q 127 -104 90 -172 l 179 -12 l 66 743 z "},"ф":{"ha":921,"x_min":66,"x_max":857,"o":"m 593 754 q 789 658 721 737 q 857 444 857 578 q 803 212 857 317 q 651 48 748 107 q 432 -11 553 -11 l 363 -334 l 258 -334 l 326 -12 q 134 85 201 4 q 66 304 66 166 q 119 531 66 429 q 267 691 171 633 q 489 754 362 750 l 553 1055 l 659 1055 l 593 754 m 183 306 q 228 148 183 206 q 347 83 273 89 l 469 659 q 317 608 382 654 q 217 482 252 561 q 183 306 183 403 m 453 83 q 604 132 540 87 q 704 259 668 177 q 741 439 741 340 q 697 593 741 537 q 575 657 654 650 l 453 83 z "},"х":{"ha":664,"x_min":-50,"x_max":699,"o":"m 317 294 l 82 0 l -50 0 l 272 383 l 110 743 l 225 743 l 343 464 l 567 743 l 699 743 l 390 378 l 561 0 l 447 0 l 317 294 z "},"ц":{"ha":827,"x_min":77,"x_max":758,"o":"m 306 743 l 204 272 q 192 178 192 212 q 292 81 192 81 q 409 121 351 81 q 511 238 467 162 q 578 421 555 314 l 646 743 l 758 743 l 647 218 q 636 131 636 165 q 689 78 636 78 q 742 87 707 78 l 665 -257 l 549 -257 l 603 -11 q 542 34 561 0 q 522 136 522 68 l 517 136 q 264 -14 411 -14 q 126 34 176 -14 q 77 168 77 82 q 92 285 77 210 l 191 743 l 306 743 z "},"ч":{"ha":771,"x_min":107,"x_max":729,"o":"m 275 743 q 236 555 249 618 q 222 456 222 492 q 250 377 222 399 q 325 355 277 355 q 496 436 425 355 q 599 667 566 517 l 615 743 l 729 743 l 571 0 l 454 0 l 498 210 q 546 390 517 298 l 541 390 q 296 260 442 260 q 107 447 107 260 q 123 571 107 484 l 160 743 l 275 743 z "},"ш":{"ha":1211,"x_min":77,"x_max":1169,"o":"m 737 743 l 637 273 q 625 182 625 211 q 646 109 625 135 q 718 82 667 82 q 829 123 775 82 q 924 239 883 163 q 987 421 965 315 l 1055 743 l 1169 743 l 1011 0 l 917 0 l 932 138 l 925 138 q 807 22 866 57 q 686 -14 749 -14 q 568 31 610 -14 q 519 153 527 75 l 514 153 q 391 28 457 70 q 257 -14 325 -14 q 124 33 171 -14 q 77 167 77 79 q 92 288 77 213 l 189 743 l 304 743 l 204 273 q 191 175 191 204 q 214 107 191 133 q 288 82 237 82 q 395 121 342 82 q 489 233 448 159 q 551 404 530 306 l 624 743 l 737 743 z "},"щ":{"ha":1236,"x_min":77,"x_max":1169,"o":"m 739 743 l 637 272 q 625 182 625 212 q 646 108 625 134 q 718 82 667 82 q 829 123 775 82 q 924 239 883 163 q 987 421 965 315 l 1055 743 l 1169 743 l 1059 218 q 1047 131 1047 163 q 1062 91 1047 104 q 1100 78 1076 78 q 1131 82 1118 78 q 1153 87 1144 85 l 1076 -257 l 960 -257 l 1014 -11 q 951 34 971 0 q 930 136 930 68 l 926 136 q 686 -14 823 -14 q 568 31 610 -14 q 519 153 527 75 l 514 153 q 257 -14 399 -14 q 124 33 171 -14 q 77 167 77 79 q 92 288 77 210 l 189 743 l 304 743 l 204 272 q 191 175 191 204 q 214 107 191 133 q 288 82 237 82 q 395 121 342 82 q 490 233 449 161 q 551 404 530 304 l 624 743 l 739 743 z "},"ъ":{"ha":822,"x_min":57,"x_max":734,"o":"m 358 418 q 507 435 443 435 q 678 384 622 435 q 734 239 734 333 q 659 55 734 124 q 449 -14 584 -14 q 272 41 334 -14 q 210 199 210 95 q 225 330 210 263 l 292 644 l 57 644 l 78 743 l 428 743 l 358 418 m 476 339 q 338 325 408 339 q 322 211 322 253 q 355 114 322 145 q 456 82 388 82 q 578 122 533 82 q 623 229 623 162 q 589 313 623 286 q 476 339 556 339 z "},"ы":{"ha":1002,"x_min":87,"x_max":958,"o":"m 800 0 l 688 0 l 844 743 l 958 743 l 800 0 m 306 743 l 236 418 q 385 435 321 435 q 556 384 499 435 q 612 239 612 333 q 536 55 612 124 q 326 -14 460 -14 q 149 41 211 -14 q 87 199 87 96 q 103 330 87 263 l 191 743 l 306 743 m 354 339 q 215 325 286 339 q 200 211 200 250 q 233 114 200 145 q 334 82 266 82 q 456 122 412 82 q 500 229 500 162 q 467 313 500 287 q 354 339 433 339 z "},"ь":{"ha":721,"x_min":87,"x_max":633,"o":"m 235 418 q 400 435 326 435 q 574 386 514 435 q 633 239 633 337 q 596 107 633 165 q 491 18 559 49 q 334 -14 423 -14 q 151 40 214 -14 q 87 201 87 94 q 103 330 87 263 l 191 743 l 306 743 l 235 418 m 375 339 q 215 325 288 339 q 200 211 200 252 q 236 114 200 145 q 343 82 271 82 q 475 121 427 82 q 522 229 522 160 q 487 312 522 285 q 375 339 451 339 z "},"э":{"ha":633,"x_min":12,"x_max":566,"o":"m 289 755 q 495 679 425 755 q 566 456 566 602 q 519 204 566 313 q 388 41 473 96 q 187 -14 304 -14 q 89 -4 139 -14 q 12 20 39 6 l 12 122 q 187 82 109 82 q 352 148 286 82 q 439 332 418 214 l 113 332 l 132 432 l 450 432 l 450 452 q 408 611 450 560 q 279 661 365 661 q 115 623 204 661 l 81 710 q 289 755 186 755 z "},"ю":{"ha":1084,"x_min":40,"x_max":1017,"o":"m 1017 467 q 969 222 1017 335 q 843 49 922 109 q 663 -11 763 -11 q 468 67 538 -11 q 397 275 397 144 q 400 335 397 320 l 225 335 l 154 0 l 40 0 l 199 743 l 311 743 l 245 432 l 415 432 q 546 669 458 585 q 751 753 633 753 q 946 676 876 753 q 1017 467 1017 599 m 753 657 q 630 609 684 657 q 545 469 576 560 q 514 269 514 378 q 554 132 514 180 q 669 83 595 83 q 787 134 734 83 q 869 275 840 184 q 899 482 899 366 q 859 610 899 563 q 753 657 820 657 z "},"я":{"ha":732,"x_min":-29,"x_max":688,"o":"m 386 294 q 296 271 329 294 q 228 172 263 247 q 160 53 186 83 q 101 7 134 22 q 24 -8 68 -8 q -29 0 -9 -8 l -29 90 q 4 86 -15 86 q 60 107 37 86 q 121 204 83 128 q 171 284 142 250 q 248 338 200 319 q 151 400 184 356 q 117 509 117 444 q 194 680 117 616 q 407 743 272 743 l 688 743 l 530 0 l 418 0 l 481 294 l 386 294 m 386 643 q 269 607 310 643 q 228 509 228 571 q 374 395 228 395 l 501 395 l 554 643 l 386 643 z "},"ё":{"ha":685,"x_min":66,"x_max":649,"o":"m 334 -14 q 138 60 209 -14 q 66 265 66 134 q 117 510 66 393 q 251 692 168 627 q 435 757 334 757 q 591 712 538 757 q 643 586 643 667 q 530 394 643 464 q 208 325 418 325 l 186 325 l 183 271 q 225 132 183 182 q 354 82 267 82 q 442 94 397 82 q 554 139 487 106 l 554 40 q 441 -2 490 10 q 334 -14 393 -14 m 428 660 q 297 596 358 660 q 203 419 235 532 l 211 419 q 448 459 366 419 q 530 576 530 500 q 506 636 530 612 q 428 660 481 660 m 280 935 q 299 988 280 966 q 349 1011 318 1011 q 402 957 402 1011 q 382 901 402 924 q 336 878 362 878 q 296 892 312 878 q 280 935 280 907 m 527 935 q 546 988 527 966 q 597 1011 565 1011 q 649 957 649 1011 q 629 901 649 924 q 583 878 609 878 q 543 892 559 878 q 527 935 527 907 z "},"ђ":{"ha":802,"x_min":40,"x_max":717,"o":"m 350 929 l 587 929 l 568 842 l 334 842 q 297 678 308 722 q 269 578 286 635 l 277 578 q 530 730 378 730 q 669 681 621 730 q 717 542 717 631 q 701 429 717 500 l 586 -110 q 509 -280 562 -226 q 364 -334 456 -334 q 281 -319 317 -334 l 281 -222 q 361 -237 321 -237 q 473 -97 445 -237 l 589 443 q 603 534 603 510 q 501 635 603 635 q 384 594 441 635 q 283 478 327 554 q 216 296 239 403 l 154 0 l 40 0 l 220 842 l 117 842 l 136 929 l 237 929 l 264 1055 l 378 1055 l 350 929 z "},"ѓ":{"ha":635,"x_min":37,"x_max":654,"o":"m 138 703 q 275 744 216 732 q 385 755 333 755 q 541 712 487 755 q 595 586 595 669 q 543 459 595 514 q 366 355 492 404 q 221 293 255 314 q 170 245 187 271 q 153 182 153 219 q 186 109 153 136 q 290 82 219 82 q 503 139 382 82 l 503 37 q 275 -14 395 -14 q 100 36 163 -14 q 37 172 37 85 q 63 272 37 229 q 136 349 89 315 q 283 421 183 382 q 409 477 374 456 q 461 523 444 498 q 479 579 479 547 q 375 660 479 660 q 168 611 288 660 l 138 703 m 368 860 q 453 963 406 901 q 525 1064 500 1025 l 654 1064 l 654 1050 q 559 947 628 1017 q 439 842 490 878 l 368 842 l 368 860 z "},"є":{"ha":625,"x_min":66,"x_max":636,"o":"m 343 -14 q 139 59 212 -14 q 66 264 66 132 q 118 517 66 399 q 257 696 170 635 q 454 757 344 757 q 636 722 547 757 l 604 627 q 456 661 523 661 q 306 602 371 661 q 207 432 241 542 l 526 432 l 504 332 l 186 332 q 183 264 183 308 q 228 131 183 180 q 353 81 272 81 q 430 90 391 81 q 530 126 469 98 l 530 29 q 343 -14 446 -14 z "},"ѕ":{"ha":595,"x_min":5,"x_max":567,"o":"m 498 211 q 424 46 498 105 q 212 -14 349 -14 q 5 33 98 -14 l 5 140 q 108 96 53 112 q 210 81 163 81 q 338 115 295 81 q 382 201 382 149 q 358 267 382 240 q 256 339 334 293 q 131 436 168 389 q 94 549 94 484 q 163 700 94 642 q 343 757 231 757 q 567 707 459 757 l 530 614 l 492 631 q 343 660 424 660 q 244 630 280 660 q 208 554 208 601 q 232 489 208 516 q 332 419 256 462 q 436 349 404 378 q 483 287 467 320 q 498 211 498 253 z "},"і":{"ha":353,"x_min":40,"x_max":368,"o":"m 154 0 l 40 0 l 199 743 l 313 743 l 154 0 m 231 933 q 252 995 231 971 q 309 1019 274 1019 q 368 958 368 1019 q 346 895 368 921 q 293 869 323 869 q 248 886 266 869 q 231 933 231 903 z "},"ї":{"ha":353,"x_min":40,"x_max":478,"o":"m 154 0 l 40 0 l 199 743 l 313 743 l 154 0 m 109 935 q 128 988 109 966 q 178 1011 147 1011 q 231 957 231 1011 q 211 901 231 924 q 165 878 191 878 q 125 892 141 878 q 109 935 109 907 m 356 935 q 375 988 356 966 q 426 1011 394 1011 q 478 957 478 1011 q 458 901 478 924 q 412 878 438 878 q 372 892 388 878 q 356 935 356 907 z "},"ј":{"ha":353,"x_min":-175,"x_max":367,"o":"m -92 -334 q -175 -319 -138 -334 l -175 -224 q -94 -239 -134 -239 q 20 -100 -9 -239 l 199 743 l 311 743 l 131 -110 q 53 -280 106 -226 q -92 -334 0 -334 m 231 933 q 252 995 231 971 q 309 1019 274 1019 q 367 958 367 1019 q 344 895 367 921 q 292 869 321 869 q 248 886 266 869 q 231 933 231 903 z "},"љ":{"ha":1059,"x_min":-64,"x_max":971,"o":"m 593 418 q 743 435 680 435 q 915 384 858 435 q 971 239 971 333 q 895 55 971 124 q 685 -14 819 -14 q 508 41 570 -14 q 446 199 446 95 q 461 330 446 256 l 526 647 q 484 653 504 653 q 416 629 443 653 q 362 548 389 606 q 288 349 335 490 q 193 120 233 187 q 106 21 154 52 q -8 -9 59 -9 q -64 0 -43 -9 l -64 98 q -18 92 -43 92 q 56 117 25 92 q 116 201 87 143 q 189 386 146 259 q 244 540 218 472 q 304 654 270 608 q 386 724 338 700 q 509 749 434 749 q 659 726 584 749 l 593 418 m 713 339 q 574 325 642 339 q 558 211 558 253 q 692 82 558 82 q 814 122 769 82 q 859 229 859 162 q 825 313 859 286 q 713 339 792 339 z "},"њ":{"ha":1128,"x_min":39,"x_max":1040,"o":"m 664 418 q 812 435 747 435 q 984 384 927 435 q 1040 239 1040 333 q 964 55 1040 124 q 754 -14 888 -14 q 577 41 639 -14 q 515 199 515 96 q 532 335 515 264 l 225 335 l 154 0 l 39 0 l 199 743 l 311 743 l 245 432 l 553 432 l 619 743 l 733 743 l 664 418 m 783 339 q 643 325 714 339 q 628 210 628 248 q 761 82 628 82 q 883 122 838 82 q 928 229 928 162 q 895 313 928 287 q 783 339 861 339 z "},"ћ":{"ha":802,"x_min":40,"x_max":720,"o":"m 494 0 l 593 460 q 606 551 606 520 q 505 654 606 654 q 388 614 446 654 q 286 497 330 573 q 220 314 242 420 l 154 0 l 40 0 l 220 842 l 117 842 l 136 929 l 237 929 l 264 1055 l 378 1055 l 350 929 l 587 929 l 568 842 l 332 842 l 272 593 l 279 593 q 533 749 391 749 q 672 699 624 749 q 720 558 720 649 q 704 446 720 519 l 608 0 l 494 0 z "},"ќ":{"ha":663,"x_min":40,"x_max":729,"o":"m 585 743 l 729 743 l 357 376 l 611 0 l 473 0 l 232 371 l 154 0 l 40 0 l 197 743 l 310 743 l 233 385 l 585 743 m 401 860 q 486 963 439 901 q 558 1064 533 1025 l 687 1064 l 687 1050 q 592 947 661 1017 q 472 842 523 878 l 401 842 l 401 860 z "},"ў":{"ha":642,"x_min":-134,"x_max":707,"o":"m 66 743 l 180 743 l 231 374 q 244 236 237 327 q 250 89 250 144 l 254 89 q 313 224 278 148 q 366 330 349 301 l 586 743 l 707 743 l 235 -126 q 110 -288 172 -243 q -39 -334 48 -334 q -134 -319 -87 -334 l -134 -228 q -45 -240 -91 -240 q 51 -206 11 -240 q 127 -104 90 -172 l 179 -12 l 66 743 m 685 1053 q 405 842 646 842 q 245 883 299 842 q 191 1006 191 924 q 197 1053 191 1027 l 296 1053 q 292 1013 292 1029 q 410 926 292 926 q 525 956 486 926 q 575 1053 563 986 l 685 1053 z "},"џ":{"ha":802,"x_min":77,"x_max":758,"o":"m 361 -49 l 389 -49 l 326 -334 l 211 -334 l 267 -79 l 361 -49 m 306 743 l 204 272 q 192 178 192 212 q 292 81 192 81 q 409 121 351 81 q 511 238 467 162 q 578 421 555 314 l 646 743 l 758 743 l 602 0 l 507 0 l 522 138 l 514 138 q 387 20 448 53 q 262 -14 327 -14 q 126 34 176 -14 q 77 168 77 81 q 92 285 77 210 l 191 743 l 306 743 z "},"Ґ":{"ha":661,"x_min":58,"x_max":806,"o":"m 652 991 l 694 1194 l 806 1194 l 739 886 l 363 886 l 175 0 l 58 0 l 269 991 l 652 991 z "},"ґ":{"ha":532,"x_min":40,"x_max":631,"o":"m 566 659 l 293 659 l 154 0 l 40 0 l 199 743 l 467 743 l 514 960 l 631 960 l 566 659 z "},"Ẁ":{"ha":1183,"x_min":151,"x_max":1303,"o":"m 852 0 l 737 0 l 704 654 q 699 846 699 747 l 694 846 q 653 741 677 797 q 311 0 629 685 l 193 0 l 151 991 l 267 991 l 288 380 l 289 321 q 282 146 289 254 l 286 146 q 392 406 347 311 l 667 991 l 787 991 l 817 408 q 823 202 823 304 l 822 146 l 828 146 q 917 386 879 298 l 1179 991 l 1303 991 l 852 0 m 786 1071 l 715 1071 q 628 1175 674 1112 q 564 1279 583 1238 l 564 1293 l 686 1293 q 786 1088 715 1201 l 786 1071 z "},"ẁ":{"ha":996,"x_min":79,"x_max":1046,"o":"m 564 0 l 542 408 q 539 525 539 472 l 539 631 l 533 631 l 499 551 l 443 422 l 245 0 l 109 0 l 79 743 l 191 743 l 203 340 l 203 281 q 197 98 203 181 l 201 98 q 294 317 233 182 l 494 743 l 618 743 l 643 340 q 647 163 647 227 l 647 127 l 646 98 l 650 98 q 706 247 669 157 q 925 743 743 336 l 1046 743 l 703 0 l 564 0 m 631 842 l 560 842 q 473 946 519 883 q 408 1050 427 1009 l 408 1064 l 531 1064 q 631 859 560 972 l 631 842 z "},"Ẃ":{"ha":1183,"x_min":151,"x_max":1303,"o":"m 852 0 l 737 0 l 704 654 q 699 846 699 747 l 694 846 q 653 741 677 797 q 311 0 629 685 l 193 0 l 151 991 l 267 991 l 288 380 l 289 321 q 282 146 289 254 l 286 146 q 392 406 347 311 l 667 991 l 787 991 l 817 408 q 823 202 823 304 l 822 146 l 828 146 q 917 386 879 298 l 1179 991 l 1303 991 l 852 0 m 687 1089 q 772 1192 725 1130 q 844 1293 819 1254 l 973 1293 l 973 1279 q 878 1177 947 1246 q 758 1071 809 1107 l 687 1071 l 687 1089 z "},"ẃ":{"ha":996,"x_min":79,"x_max":1046,"o":"m 564 0 l 542 408 q 539 525 539 472 l 539 631 l 533 631 l 499 551 l 443 422 l 245 0 l 109 0 l 79 743 l 191 743 l 203 340 l 203 281 q 197 98 203 181 l 201 98 q 294 317 233 182 l 494 743 l 618 743 l 643 340 q 647 163 647 227 l 647 127 l 646 98 l 650 98 q 706 247 669 157 q 925 743 743 336 l 1046 743 l 703 0 l 564 0 m 524 860 q 609 963 562 901 q 681 1064 656 1025 l 810 1064 l 810 1050 q 715 947 784 1017 q 595 842 646 878 l 524 842 l 524 860 z "},"Ẅ":{"ha":1183,"x_min":151,"x_max":1303,"o":"m 852 0 l 737 0 l 704 654 q 699 846 699 747 l 694 846 q 653 741 677 797 q 311 0 629 685 l 193 0 l 151 991 l 267 991 l 288 380 l 289 321 q 282 146 289 254 l 286 146 q 392 406 347 311 l 667 991 l 787 991 l 817 408 q 823 202 823 304 l 822 146 l 828 146 q 917 386 879 298 l 1179 991 l 1303 991 l 852 0 m 557 1164 q 576 1218 557 1195 q 627 1240 595 1240 q 680 1186 680 1240 q 660 1130 680 1153 q 613 1107 640 1107 q 573 1122 589 1107 q 557 1164 557 1137 m 804 1164 q 823 1218 804 1195 q 874 1240 842 1240 q 926 1186 926 1240 q 906 1130 926 1153 q 860 1107 886 1107 q 820 1122 836 1107 q 804 1164 804 1137 z "},"ẅ":{"ha":996,"x_min":79,"x_max":1046,"o":"m 564 0 l 542 408 q 539 525 539 472 l 539 631 l 533 631 l 499 551 l 443 422 l 245 0 l 109 0 l 79 743 l 191 743 l 203 340 l 203 281 q 197 98 203 181 l 201 98 q 294 317 233 182 l 494 743 l 618 743 l 643 340 q 647 163 647 227 l 647 127 l 646 98 l 650 98 q 706 247 669 157 q 925 743 743 336 l 1046 743 l 703 0 l 564 0 m 393 935 q 412 988 393 966 q 463 1011 431 1011 q 515 957 515 1011 q 495 901 515 924 q 449 878 475 878 q 409 892 425 878 q 393 935 393 907 m 640 935 q 659 988 640 966 q 710 1011 678 1011 q 762 957 762 1011 q 742 901 762 924 q 696 878 722 878 q 656 892 672 878 q 640 935 640 907 z "},"Ỳ":{"ha":699,"x_min":127,"x_max":827,"o":"m 364 485 l 696 991 l 827 991 l 401 367 l 325 0 l 208 0 l 289 372 l 127 991 l 243 991 l 364 485 m 522 1071 l 451 1071 q 364 1175 410 1112 q 299 1279 318 1238 l 299 1293 l 422 1293 q 522 1088 451 1201 l 522 1071 z "},"ỳ":{"ha":642,"x_min":-134,"x_max":707,"o":"m 66 743 l 180 743 l 231 374 q 244 236 237 327 q 250 89 250 144 l 254 89 q 313 224 278 148 q 366 330 349 301 l 586 743 l 707 743 l 235 -126 q 110 -288 172 -243 q -39 -334 48 -334 q -134 -319 -87 -334 l -134 -228 q -45 -240 -91 -240 q 51 -206 11 -240 q 127 -104 90 -172 l 179 -12 l 66 743 m 446 842 l 376 842 q 289 946 334 883 q 224 1050 243 1009 l 224 1064 l 347 1064 q 446 859 376 972 l 446 842 z "},"–":{"ha":667,"x_min":37,"x_max":619,"o":"m 37 318 l 61 427 l 619 427 l 596 318 l 37 318 z "},"—":{"ha":1333,"x_min":37,"x_max":1286,"o":"m 37 318 l 61 427 l 1286 427 l 1263 318 l 37 318 z "},"―":{"ha":1333,"x_min":37,"x_max":1286,"o":"m 37 318 l 61 427 l 1286 427 l 1263 318 l 37 318 z "},"‗":{"ha":547,"x_min":-140,"x_max":468,"o":"m 410 -315 l -140 -315 l -120 -220 l 430 -220 l 410 -315 m 448 -124 l -102 -124 l -82 -29 l 468 -29 l 448 -124 z "},"‘":{"ha":236,"x_min":83,"x_max":353,"o":"m 87 652 l 83 667 q 267 991 150 810 l 353 991 q 215 652 253 758 l 87 652 z "},"’":{"ha":236,"x_min":85,"x_max":355,"o":"m 350 991 l 355 977 q 280 828 328 915 q 172 652 232 742 l 85 652 q 222 991 176 854 l 350 991 z "},"‚":{"ha":334,"x_min":-68,"x_max":203,"o":"m 197 161 l 203 146 q 20 -179 126 -14 l -68 -179 q 71 161 18 15 l 197 161 z "},"‛":{"ha":236,"x_min":155,"x_max":290,"o":"m 279 991 q 290 652 279 806 l 210 652 q 155 977 168 804 l 167 991 l 279 991 z "},"“":{"ha":488,"x_min":83,"x_max":604,"o":"m 339 652 l 334 667 q 518 991 388 789 l 604 991 q 467 652 494 734 l 339 652 m 87 652 l 83 667 q 267 991 150 810 l 353 991 q 215 652 253 758 l 87 652 z "},"”":{"ha":488,"x_min":85,"x_max":607,"o":"m 350 991 l 355 977 q 280 828 328 915 q 172 652 232 742 l 85 652 q 222 991 176 854 l 350 991 m 600 991 l 607 977 q 421 652 543 837 l 335 652 q 413 837 374 737 q 472 991 453 936 l 600 991 z "},"„":{"ha":582,"x_min":-68,"x_max":453,"o":"m 197 161 l 203 146 q 20 -179 126 -14 l -68 -179 q 71 161 18 15 l 197 161 m 447 161 l 453 146 q 269 -179 389 7 l 182 -179 q 319 161 277 35 l 447 161 z "},"†":{"ha":647,"x_min":147,"x_max":659,"o":"m 635 675 l 422 696 l 310 0 l 170 0 l 354 697 l 147 675 l 171 793 l 370 771 l 395 1055 l 534 1055 l 437 771 l 659 793 l 635 675 z "},"‡":{"ha":661,"x_min":53,"x_max":679,"o":"m 358 330 l 579 351 l 554 235 l 340 256 l 322 0 l 182 0 l 272 256 l 53 235 l 78 351 l 289 330 l 301 533 l 371 725 l 151 703 l 178 821 l 389 799 l 407 1055 l 547 1055 l 457 799 l 679 821 l 653 703 l 440 725 l 431 533 l 358 330 z "},"•":{"ha":525,"x_min":135,"x_max":446,"o":"m 135 464 q 185 621 135 562 q 319 679 235 679 q 414 646 382 679 q 446 550 446 612 q 395 394 446 454 q 258 334 345 334 q 166 367 198 334 q 135 464 135 401 z "}}}
